<?xml version="1.0" encoding="UTF-8" standalone="no"?>
<!-- Created with Inkscape (http://www.inkscape.org/) -->

<svg
   width="600"
   height="400"
   viewBox="0 0 600 400"
   version="1.1"
   id="svg1"
   xmlns:xlink="http://www.w3.org/1999/xlink"
   xmlns="http://www.w3.org/2000/svg"
   xmlns:svg="http://www.w3.org/2000/svg">
  <defs
     id="defs1">
    <linearGradient
       id="linearGradient8">
      <stop
         style="stop-color:#a4a4a4;stop-opacity:1;"
         offset="0"
         id="stop9" />
      <stop
         style="stop-color:#3f3f3f;stop-opacity:0.60326087;"
         offset="0.7673077"
         id="stop11" />
      <stop
         style="stop-color:#000000;stop-opacity:0.48641303;"
         offset="1"
         id="stop10" />
    </linearGradient>
    <linearGradient
       id="linearGradient2">
      <stop
         style="stop-color:#adadad;stop-opacity:0.93478262;"
         offset="0"
         id="stop1" />
      <stop
         style="stop-color:#020202;stop-opacity:0.94836956;"
         offset="1"
         id="stop2" />
    </linearGradient>
    <linearGradient
       id="linearGradient159">
      <stop
         style="stop-color:#cbcbcb;stop-opacity:0.58108097;"
         offset="0"
         id="stop159" />
      <stop
         style="stop-color:#bdbdbd;stop-opacity:0;"
         offset="1"
         id="stop160" />
    </linearGradient>
    <clipPath
       clipPathUnits="userSpaceOnUse"
       id="clipPath33">
      <path
         id="path34"
         style="fill:none;stroke:#000000;stroke-width:2.27351"
         d="m 226.14681,149.6924 h 186.70636 c 13.91393,0 25.1154,11.20146 25.1154,25.11539 v 3.79117 c 0,13.91393 -11.20147,25.1154 -25.1154,25.1154 H 226.14681 c -13.91393,0 -25.11539,-11.20147 -25.11539,-25.1154 v -3.79117 c 0,-13.91393 11.20146,-25.11539 25.11539,-25.11539 z" />
    </clipPath>
    <linearGradient
       xlink:href="#linearGradient2"
       id="linearGradient158"
       gradientUnits="userSpaceOnUse"
       x1="504.43439"
       y1="303.51758"
       x2="509.27267"
       y2="303.51758" />
    <linearGradient
       xlink:href="#linearGradient159"
       id="linearGradient160"
       x1="250.04217"
       y1="180.15774"
       x2="364.88749"
       y2="180.15774"
       gradientUnits="userSpaceOnUse" />
    <radialGradient
       xlink:href="#linearGradient8"
       id="radialGradient10"
       cx="506.85352"
       cy="303.51758"
       fx="506.85352"
       fy="303.51758"
       r="4.1749768"
       gradientUnits="userSpaceOnUse" />
    <radialGradient
       xlink:href="#linearGradient8"
       id="radialGradient12"
       gradientUnits="userSpaceOnUse"
       cx="506.85352"
       cy="303.51758"
       fx="506.85352"
       fy="303.51758"
       r="4.1749768" />
    <linearGradient
       xlink:href="#linearGradient2"
       id="linearGradient12"
       gradientUnits="userSpaceOnUse"
       x1="504.43439"
       y1="303.51758"
       x2="509.27267"
       y2="303.51758" />
    <radialGradient
       xlink:href="#linearGradient8"
       id="radialGradient16"
       gradientUnits="userSpaceOnUse"
       cx="506.85352"
       cy="303.51758"
       fx="506.85352"
       fy="303.51758"
       r="4.1749768" />
    <linearGradient
       xlink:href="#linearGradient2"
       id="linearGradient16"
       gradientUnits="userSpaceOnUse"
       x1="504.43439"
       y1="303.51758"
       x2="509.27267"
       y2="303.51758" />
    <radialGradient
       xlink:href="#linearGradient8"
       id="radialGradient17"
       gradientUnits="userSpaceOnUse"
       cx="506.85352"
       cy="303.51758"
       fx="506.85352"
       fy="303.51758"
       r="4.1749768" />
    <linearGradient
       xlink:href="#linearGradient2"
       id="linearGradient17"
       gradientUnits="userSpaceOnUse"
       x1="504.43439"
       y1="303.51758"
       x2="509.27267"
       y2="303.51758" />
  </defs>
  <g
     id="tape-R"
     style="display:inline;fill:#6e6e6e;fill-opacity:1">
    <path
       id="path171"
       style="fill:#36190e;stroke:#250000;stroke-width:0.164675;fill-opacity:1"
       d="m 390.88922,135.00345 c -12.0225,0 -23.55289,4.77526 -32.05409,13.27646 -8.50119,8.50118 -13.27738,20.03158 -13.27738,32.05407 0,12.0225 4.77619,23.5529 13.27738,32.05409 8.5012,8.50119 20.03159,13.27645 32.05409,13.27645 12.0225,0 23.55198,-4.77526 32.05316,-13.27645 8.50119,-8.50119 13.27738,-20.03159 13.27738,-32.05409 0,-12.02249 -4.77619,-23.55289 -13.27738,-32.05407 -8.50118,-8.5012 -20.03066,-13.27646 -32.05316,-13.27646 z m -0.0433,19.13742 c 14.35441,-6.3e-4 25.99147,11.6354 25.99212,25.9898 6.3e-4,14.35532 -11.63681,25.99275 -25.99212,25.99213 -14.3544,-6.6e-4 -25.99044,-11.63771 -25.98981,-25.99213 6.5e-4,-14.3535 11.63631,-25.98915 25.98981,-25.9898 z" />
    <path
       style="fill:none;fill-rule:evenodd;stroke:#000000;stroke-width:0.16174765;stroke-dasharray:none"
       id="path172"
       d="m 223.66394,197.39271 c -9.19842,8.213 -23.73594,7.33091 -31.93556,-1.8538 -8.29723,-9.29403 -7.40563,-23.98184 1.87467,-32.26571 9.38965,-8.38145 24.22776,-7.48035 32.59586,1.89556 8.46568,9.48525 7.55508,24.47366 -1.91644,32.92599 -9.58085,8.54992 -24.71956,7.62981 -33.25613,-1.93731 -8.63415,-9.67646 -7.70454,-24.96546 1.95818,-33.58628 9.77208,-8.71837 25.21138,-7.77926 33.91643,1.97907 8.80261,9.86768 7.85398,25.45728 -1.99995,34.24656 -9.96329,8.88684 -25.70318,7.92872 -34.5767,-2.02082 -8.97107,-10.0589 -8.00344,-25.94909 2.04169,-34.90685 10.15452,-9.0553 26.195,-8.07816 35.237,2.06258 9.13953,10.25012 8.15289,26.4409 -2.08345,35.56714 -10.34574,9.22375 -26.68682,8.22761 -35.89729,-2.10434 -9.30798,-10.44134 -8.30234,-26.93271 2.12521,-36.22742 10.53695,-9.39222 27.17863,-8.37706 36.55757,2.14609 9.47645,10.63255 8.45179,27.42453 -2.16696,36.88771 -10.72817,9.56068 -27.67044,8.52651 -37.21786,-2.18784 -9.64491,-10.82378 -8.60124,-27.91635 2.20872,-37.548 10.91939,-9.72914 28.16225,-8.67597 37.87814,2.2296 9.81337,11.01499 8.7507,28.40815 -2.25047,38.20828 -11.1106,9.8976 -28.65407,8.82542 -38.53843,-2.27135 -9.98183,-11.20621 -8.90015,-28.89997 2.29223,-38.86857 11.30182,-10.06607 29.14588,-8.97488 39.19871,2.31311 10.1503,11.39742 9.0496,29.39178 -2.33398,39.52885 -11.49304,10.23453 -29.63769,9.12433 -39.859,-2.35486 -10.31876,-11.58864 -9.19905,-29.8836 2.37574,-40.18914 11.68425,-10.40299 30.12951,-9.27378 40.51928,2.39662 10.48722,11.77985 9.34851,30.37541 -2.41749,40.84942 -11.87547,10.57145 -30.62132,9.42323 -41.17957,-2.43837 -10.65568,-11.97108 -9.49796,-30.86723 2.45925,-41.50971 12.06668,-10.73992 31.11313,-9.57269 41.83985,2.48013 10.82415,12.16229 9.64742,31.35904 -2.501,42.16999 -12.2579,10.90838 -31.60495,9.72214 -42.50014,-2.52188 -10.99261,-12.35351 -9.79687,-31.85086 2.54276,-42.83028 12.44911,-11.07684 32.09676,-9.8716 43.16042,2.56363 11.16107,12.54473 9.94632,32.34267 -2.58451,43.49057 -12.64033,11.2453 -32.58858,10.02105 -43.82071,-2.60539 -11.32953,-12.73594 -10.09578,-32.83449 2.62627,-44.15085 12.83155,-11.41377 33.08039,-10.17051 44.48099,2.64714 11.498,12.92716 10.24523,33.3263 -2.66802,44.81114 -13.02276,11.58223 -33.57221,10.31996 -45.14128,-2.6889 -11.66646,-13.11837 -10.39468,-33.81811 2.70978,-45.47142 13.21398,-11.75069 34.06402,-10.46941 45.80156,2.73065 11.83493,13.30959 10.54414,34.30993 -2.75153,46.13171 -13.40519,11.91916 -34.55584,10.61887 -46.46185,-2.77241 -12.00339,-13.5008 -10.69359,-34.80174 2.79329,-46.79199 13.59641,-12.08762 35.04765,-10.76832 47.12213,2.81416 12.17185,13.69202 10.84305,35.29356 -2.83504,47.45228 -13.78762,12.25608 -35.53947,10.91777 -47.78242,-2.85592 -12.34031,-13.88323 -10.9925,-35.78537 2.8768,-48.11256 13.97884,-12.42455 36.03128,-11.06723 48.4427,2.89767 12.50878,14.07445 11.14196,36.27719 -2.91855,48.77285 -14.17005,12.59301 -36.5231,11.21668 -49.10299,-2.93943 -12.67724,-14.26566 -11.29141,-36.769 2.96031,-49.43313 14.36127,-12.76148 37.01491,-11.36614 49.76327,2.98118 12.84571,14.45688 11.44087,37.26082 -3.00206,50.09342 -14.55248,12.92994 -37.50673,11.51559 -50.42356,-3.02294 -13.01417,-14.64809 -11.59032,-37.75263 3.04382,-50.7537 14.74369,-13.09841 37.99854,-11.66505 51.08384,3.06469 13.18264,14.83931 11.73978,38.24445 -3.08557,51.41399 -14.93491,13.26687 -38.49036,11.8145 -51.74413,-3.10645 -13.3511,-15.03052 -11.88923,-38.73627 3.12733,-52.07427 15.12612,-13.43533 38.98217,-11.96396 52.40441,3.1482 2.5791,2.90381 4.69832,6.21124 6.25937,9.76747"
       transform="matrix(1.236494,0,0,1.236494,133.04871,-42.801476)" />
    <path
       d="m 392.67971,153.32318 h -2.57423 c -13.9228,0.65593 -25.06867,11.80182 -25.72461,25.72461 v 2.57421 c 0.65603,13.9152 11.79064,25.05627 25.70313,25.72266 h 2.61523 c 14.34253,-0.68646 25.76952,-12.49722 25.76952,-27.00976 0,-14.51914 -11.43736,-26.33511 -25.78904,-27.01172 z m 2.03319,46.27538 v -7.92187 h -7.80663 v 7.71094 a 19.578505,19.578505 0 0 1 -10.36719,-6.30665 l 6.40039,-3.6953 -3.90625,-6.75977 -6.29687,3.63672 a 19.578505,19.578505 0 0 1 -0.92384,-5.92773 19.578505,19.578505 0 0 1 0.94335,-5.91602 l 6.27734,3.625 3.90625,-6.76172 -6.40038,-3.69337 a 19.578505,19.578505 0 0 1 10.36718,-6.26172 v 7.66408 h 7.80664 v -7.91797 a 19.578505,19.578505 0 0 1 11.11719,6.08007 l -7.15038,4.12891 3.90625,6.76172 7.23437,-4.17773 a 19.578505,19.578505 0 0 1 1.15038,6.46875 19.578505,19.578505 0 0 1 -1.15038,6.46875 l -7.23437,-4.17774 -3.90625,6.75977 7.15038,4.12889 a 19.578505,19.578505 0 0 1 -11.11718,6.08399 z"
       style="display:inline;fill:#cccccc;fill-opacity:1;stroke:#000000;stroke-width:1;stroke-dasharray:none"
       id="spindle.R" />
  </g>
  <g
     id="tape-L"
     style="display:inline;fill:#6e6e6e;fill-opacity:1">
    <path
       id="circle170"
       style="fill:#361a0e;stroke:#250000;stroke-width:0.303;stroke-dasharray:none;fill-opacity:1"
       d="m 208.57604,96.951054 c -22.11468,-10e-7 -43.32419,8.783836 -58.96165,24.421286 -15.63744,15.63744 -24.42297,36.84696 -24.42297,58.96164 0,22.11469 8.78553,43.32421 24.42297,58.96165 15.63746,15.63746 36.84697,24.42129 58.96165,24.42129 22.11469,-1e-5 43.32251,-8.78383 58.95996,-24.42129 15.63744,-15.63744 24.42297,-36.84696 24.42297,-58.96165 0,-22.11468 -8.78553,-43.3242 -24.42297,-58.96164 -15.63745,-15.63745 -36.84527,-24.421284 -58.95996,-24.421286 z m -0.0783,63.612756 a 19.39834,19.39834 0 0 1 19.39918,19.39747 19.39834,19.39834 0 0 1 -19.39918,19.39918 19.39834,19.39834 0 0 1 -19.39747,-19.39918 19.39834,19.39834 0 0 1 19.39747,-19.39747 z" />
    <path
       style="fill:none;fill-rule:evenodd;stroke:#000000;stroke-width:0.22772037;stroke-dasharray:none"
       id="path170"
       d="m 200.55635,201.4514 c -11.60147,-4.38657 -17.51569,-17.77796 -13.13943,-29.34306 4.4783,-11.83476 18.14127,-17.8673 29.93968,-13.39937 12.06805,4.57003 18.21892,18.50458 13.65932,30.53631 -4.66177,12.30134 -18.86789,18.57053 -31.13294,13.91927 -12.53463,-4.75351 -18.92215,-19.23122 -14.17921,-31.72957 4.84523,-12.76793 19.59452,-19.27378 32.3262,-14.43916 13.00121,4.93696 19.62539,19.95784 14.6991,32.92283 -5.02869,13.2345 -20.32116,19.97701 -33.51946,14.95905 -13.4678,-5.12042 -20.32863,-20.68448 -15.21899,-34.11609 5.21214,-13.70109 21.04779,-20.68026 34.71271,-15.47895 13.93439,5.30388 21.03188,21.41112 15.73889,35.30935 -5.3956,14.16768 -21.77443,21.3835 -35.90597,15.99884 -14.40098,-5.48733 -21.73513,-22.13775 -16.25879,-36.50261 5.57906,-14.63427 22.50107,-22.08675 37.09924,-16.51873 14.86756,5.67078 22.43838,22.86439 16.77867,37.69587 -5.76249,15.10086 -23.2277,22.79 -38.29249,17.03862 -15.33415,-5.85422 -23.14163,-23.59102 -17.29857,-38.88913 5.94594,-15.56744 23.95434,-23.49326 39.48576,-17.55851 15.80074,6.03766 23.84489,24.31766 17.81846,40.08239 -6.12939,16.03403 -24.68099,24.19652 -40.67902,18.0784 -16.26733,-6.2211 -24.54815,-25.0443 -18.33835,-41.27565 6.31282,-16.50062 25.40762,-24.89977 41.87228,-18.59829 16.73392,6.40454 25.2514,25.77094 18.85824,42.46891 -6.49626,16.96722 -26.13427,25.60303 -43.06554,19.11818 -17.20051,-6.58798 -25.95467,-26.49758 -19.37813,-43.66216 6.6797,-17.43382 26.86091,-26.3063 44.25879,-19.63808 17.66711,6.77141 26.65794,27.22423 19.89803,44.85542 -6.86313,17.90041 -27.58755,27.00957 -45.45206,20.15797 -18.1337,-6.95484 -27.36119,-27.95087 -20.41791,-46.04868 7.04656,-18.367 28.31419,-27.71283 46.64531,-20.67786 18.6003,7.13827 28.06447,28.67751 20.93781,47.24194 -7.22999,18.8336 -29.04084,28.4161 -47.83857,21.19775 -19.0669,-7.3217 -28.76774,-29.40415 -21.4577,-48.4352 7.41342,-19.30019 29.76748,-29.11937 49.03183,-21.71764 19.53349,7.50513 29.471,30.1308 21.97759,49.62846 -7.59685,19.76678 -30.49412,29.82264 -50.22509,22.23753 -20.00008,-7.68856 -30.17427,-30.85744 -22.49748,-50.82172 7.78027,-20.23338 31.22077,-30.52591 51.41835,-22.75742 20.46668,7.87198 30.87754,31.58409 23.01737,52.01498 -7.9637,20.69997 -31.94741,31.22918 -52.61161,23.27731 -20.93327,-8.05541 -31.58082,-32.31073 -23.53726,-53.20823 8.14712,-21.16658 32.67406,-31.93246 53.80487,-23.79721 21.39987,8.23883 32.28409,33.03738 24.05715,54.40149 -8.33055,21.63318 -33.40071,32.63573 -54.99813,24.31711 -21.86647,-8.42226 -32.98736,-33.76403 -24.57704,-55.59476 8.51397,-22.09977 34.12735,-33.33901 56.19138,-24.83699 22.33307,8.60568 33.69065,34.49067 25.09694,56.78801 -8.69739,22.56637 -34.854,34.04228 -57.38464,25.35689 -22.79967,-8.7891 -34.39392,-35.21733 -25.61683,-57.98128 8.88081,-23.03296 35.58064,-34.74556 58.5779,-25.87677 23.26626,8.97252 35.0972,35.94397 26.13672,59.17453 -9.06423,23.49956 -36.30729,35.44883 -59.77116,26.39667 -23.73286,-9.15594 -35.80047,-36.67062 -26.65661,-60.3678 9.24765,-23.96616 37.03394,-36.15211 60.96442,-26.91656 24.19946,9.33937 36.50375,37.39727 27.1765,61.56106 -9.43107,24.43276 -37.76059,36.85539 -62.15768,27.43645 -24.66606,-9.52278 -37.20703,-38.12392 -27.6964,-62.75431 9.61449,-24.89936 38.48724,-37.55867 63.35095,-27.95635 25.13265,9.7062 37.91031,38.85057 28.21628,63.94757 -9.7979,25.36596 -39.21388,38.26195 -64.5442,28.47624 -25.59925,-9.88962 -38.61359,-39.57721 -28.73618,-65.14083 9.98133,-25.83256 39.94054,-38.96523 65.73746,-28.99613 26.06586,10.07303 39.31687,40.30386 29.25608,66.33409 -10.16474,26.29916 -40.66719,39.66851 -66.93072,29.51602 -26.53246,-10.25645 -40.02015,-41.03051 -29.77597,-67.52735 10.34816,-26.76575 41.39384,-40.37179 68.12398,-30.03591 26.99906,10.43987 40.72343,41.75716 30.29586,68.72061 -10.53158,27.23235 -42.12049,41.07507 -69.31724,30.5558 -27.46566,-10.62328 -41.42672,-42.48381 -30.81575,-69.91387 10.71499,-27.69895 42.84714,-41.77835 70.5105,-31.07569 27.93225,10.8067 42.12999,43.21046 31.33564,71.10713 -10.8984,28.16555 -43.57379,42.48164 -71.70376,31.59558 C 160.03688,221.298 145.60245,188.351 156.5802,159.98773 c 11.08182,-28.63216 44.30044,-43.18492 72.89702,-32.11548 28.86545,11.17352 43.53656,44.66376 32.37542,73.49364 -11.26523,29.09876 -45.02709,43.88821 -74.09028,32.63537 -29.33205,-11.35693 -44.23984,-45.39041 -32.89531,-74.6869 11.44864,-29.56536 45.75374,-44.59149 75.28353,-33.15526 29.79866,11.54035 44.94313,46.11706 33.41521,75.88016 -11.63206,30.03196 -46.48039,45.29477 -76.47679,33.67515 -30.26526,-11.72376 -45.64642,-46.84371 -33.9351,-77.07342 11.81547,-30.49856 47.20704,-45.99805 77.67005,-34.19504 30.73186,11.90717 46.3497,47.57036 34.45499,78.26668 -11.99888,30.96516 -47.93369,46.70134 -78.86331,34.71493 -31.19846,-12.09058 -47.05298,-48.29701 -34.97488,-79.45994 12.18229,-31.43176 48.66034,-47.40462 80.05657,-35.23482 31.66506,12.274 47.75627,49.02366 35.49477,80.6532 -12.36571,31.89836 -49.38699,48.10791 -81.24983,35.75472 -32.13166,-12.45742 -48.45955,-49.75032 -36.01466,-81.84646 12.54912,-32.36497 50.11364,-48.8112 82.44309,-36.27461 32.59826,12.64082 49.16283,50.47696 36.53455,83.03971 -12.73253,32.83157 -50.84029,49.51449 -83.63635,36.79451 -33.06486,-12.82424 -49.86612,-51.20362 -37.05444,-84.23298 12.91594,-33.29817 51.56694,-50.21777 84.8296,-37.31439 33.53147,13.00764 50.56941,51.93026 37.57434,85.42623 -13.09935,33.76477 -52.29359,50.92106 -86.02286,37.83429 -33.99807,-13.19106 -51.2727,-52.65692 -38.09423,-86.6195 13.28276,-34.23137 53.02024,-51.62434 87.21612,-38.35418 34.46467,13.37447 51.97598,53.38358 38.61412,87.81276 -13.46617,34.69797 -53.74689,52.32763 -88.40938,38.87407 -34.93127,-13.55788 -52.67927,-54.11022 -39.13402,-89.00602 13.64959,-35.16457 54.47355,-53.03091 89.60265,-39.39396 35.39787,13.74129 53.38255,54.83688 39.6539,90.19928 -13.83299,35.63117 -55.2002,53.7342 -90.7959,39.91385 -35.86447,-13.9247 -54.08584,-55.56353 -40.1738,-91.39253 14.01641,-36.09778 55.92686,-54.43749 91.98917,-40.43375 36.33107,14.10811 54.78913,56.29018 40.69369,92.5858 -14.19982,36.56437 -56.65351,55.14077 -93.18243,40.95363 -36.79767,-14.29152 -55.49241,-57.01683 -41.21358,-93.77905 14.38323,-37.03098 57.38016,-55.844063 94.37568,-41.47353 37.26428,14.47493 56.19571,57.74348 41.73348,94.97231 -14.56664,37.49758 -58.10681,56.54735 -95.56894,41.99342 -37.73088,-14.65834 -56.899,-58.47013 -42.25337,-96.16557 14.75004,-37.96418 58.83346,-57.250636 96.7622,-42.51331 38.19748,14.84175 57.60228,59.19679 42.77326,97.35883 -14.93346,38.43078 -59.56011,57.95393 -97.95546,43.0332 -38.66409,-15.02516 -58.30557,-59.92344 -43.29315,-98.55209 15.11686,-38.89738 60.28676,-58.65721 99.14872,-43.55309 39.13069,15.20857 59.00886,60.65009 43.81304,99.74535 -15.30027,39.36399 -61.01342,59.3605 -100.34198,44.07298 -39.59729,-15.39197 -59.71214,-61.37674 -44.33293,-100.9386 15.48368,-39.83059 61.74007,-60.063794 101.53524,-44.59288 40.06389,15.57538 60.41543,62.10339 44.85282,102.13187 -15.66709,40.29719 -62.46672,60.76707 -102.7285,45.11276 -40.53049,-15.75879 -61.11872,-62.83004 -45.37271,-103.32512 15.85049,-40.7638 63.19337,-61.470369 103.92175,-45.63266 40.9971,15.9422 61.82202,63.5567 45.89261,104.51838 -16.0339,41.2304 -63.92003,62.17366 -105.11501,46.15255 -41.4637,-16.1256 -62.5253,-64.28335 -46.4125,-105.71164 16.21731,-41.697 64.64668,-62.876944 106.30827,-46.67244 41.9303,16.30901 63.22859,65.01 46.93239,106.9049 -16.40072,42.1636 -65.37333,63.58023 -107.50153,47.19234 -42.39691,-16.49243 -63.93188,-65.73666 -47.45228,-108.09817 16.58412,-42.6302 66.09998,-64.28352 108.69479,-47.71222 42.86351,16.67583 64.63517,66.46331 47.97217,109.29142 -16.76753,43.09681 -66.82663,64.98681 -109.88805,48.23212 -43.33011,-16.85924 -65.33846,-67.18997 -48.49206,-110.48468 16.95094,-43.56341 67.55329,-65.690106 111.08131,-48.75201 43.79671,17.04264 66.04174,67.91661 49.01195,111.67794 -17.13435,44.03001 -68.27994,66.39339 -112.27457,49.2719 -44.26331,-17.22606 -66.74503,-68.64327 -49.53184,-112.8712 17.31775,-44.49662 69.00659,-67.096682 113.46782,-49.791795 44.72992,17.409465 67.44833,69.369925 50.05174,114.064455 -17.50116,44.96322 -69.73324,67.79997 -114.66108,50.31169 -45.19652,-17.59287 -68.15162,-70.09658 -50.57164,-115.25772 17.68458,-45.42982 70.4599,-68.503259 115.85435,-50.831576 45.66312,17.776276 68.85491,70.823226 51.09152,116.450976 -17.86798,45.89642 -71.18655,69.20655 -117.0476,51.35147 -46.12973,-17.95968 -69.5582,-71.54988 -51.61142,-117.64424 18.05139,-46.36302 71.91321,-69.909837 118.24087,-51.871357 46.59633,18.143087 70.26148,72.276537 52.13131,118.837497 -18.2348,46.82963 -72.63986,70.61313 -119.43413,52.39125 -47.06293,-18.3265 -70.96477,-73.00319 -52.6512,-120.03076 18.4182,-47.296228 73.36651,-71.316414 120.62739,-52.911138 47.52953,18.509908 71.66806,73.729838 53.17109,121.224018 -18.60161,47.76283 -74.09317,72.01971 -121.82065,53.43103 -47.99613,-18.69331 -72.37135,-74.45649 -53.69098,-122.41727 18.78502,-48.229441 74.81982,-72.723002 123.0139,-53.950929 13.99929,5.452862 26.63208,14.241769 36.61571,25.468209"
       transform="matrix(0.87827012,0,0,0.87827012,25.484683,21.915469)" />
    <path
       d="m 209.83008,207.34466 c 14.3517,-0.67661 25.78906,-12.49258 25.78906,-27.01172 0,-14.51254 -11.427,-26.32331 -25.76953,-27.00976 h -2.61524 c -13.91248,0.66639 -25.04709,11.80746 -25.70312,25.72266 v 2.57421 c 0.65593,13.92279 11.80182,25.06868 25.72461,25.72461 z m -4.60938,-46.27539 v 7.92188 h 7.8086 v -7.71094 a 19.578505,19.578505 0 0 1 10.36523,6.30664 l -6.39844,3.69531 3.9043,6.75977 6.29688,-3.63672 a 19.578505,19.578505 0 0 1 0.92382,5.92773 19.578505,19.578505 0 0 1 -0.94336,5.91602 l -6.27734,-3.625 -3.9043,6.76172 6.39844,3.69336 a 19.578505,19.578505 0 0 1 -10.36523,6.26172 v -7.66407 h -7.8086 v 7.91797 a 19.578505,19.578505 0 0 1 -11.11718,-6.08007 l 7.15039,-4.12891 -3.9043,-6.76172 -7.23633,4.17773 a 19.578505,19.578505 0 0 1 -1.14844,-6.46875 19.578505,19.578505 0 0 1 1.14844,-6.46875 l 7.23633,4.17774 3.9043,-6.75977 -7.15039,-4.1289 a 19.578505,19.578505 0 0 1 11.11718,-6.08399 z"
       style="display:inline;fill:#cbcbcb;fill-opacity:1;stroke:#000000;stroke-width:1;stroke-dasharray:none;stroke-opacity:1"
       id="spindle.L" />
  </g>
  <path
     id="rect1"
     style="display:inline;fill:#6e6e6e;fill-opacity:1;stroke:#000000;stroke-width:2;stroke-dasharray:none"
     d="M 113.61523,70.85248 C 106.07265,70.85248 100,76.925129 100,84.467715 V 307.23724 c 0,7.54258 6.07265,13.61524 13.61523,13.61524 h 63.52735 c -2.09064,-2.39201 -3.39649,-5.49064 -3.39649,-8.93164 V 298.8388 c 0,-7.54259 6.07265,-13.61523 13.61524,-13.61523 h 228.49023 c 7.54259,0 13.61524,6.07264 13.61524,13.61523 v 13.08204 c 0,3.441 -1.3078,6.53963 -3.39844,8.93164 h 60.31641 c 7.54258,0 13.61523,-6.07266 13.61523,-13.61524 V 84.467715 C 500,76.925129 493.92735,70.85248 486.38477,70.85248 Z m 52.68555,52.51367 h 267 c 7.54258,0 13.61524,6.07265 13.61524,13.61523 v 83.48242 c 0,7.5426 -6.07266,13.61524 -13.61524,13.61524 h -267 c -7.54258,0 -13.61523,-6.07264 -13.61523,-13.61524 v -83.48242 c 0,-7.54258 6.07265,-13.61523 13.61523,-13.61523 z" />
  <path
     id="rect3"
     style="display:inline;fill:#969696;fill-opacity:1;stroke:#000000;stroke-width:1.98071"
     d="m 171.13281,279.19623 a 12.916499,12.916499 0 0 0 -12.62305,10.17968 l -6.39843,29.52149 a 8.465362,8.465362 0 0 0 8.27343,10.25976 h 279.07032 a 8.6266855,8.6266855 0 0 0 8.42968,-10.45507 L 441.5,289.24505 a 12.749767,12.749767 0 0 0 -12.46094,-10.04882 z m 53.23437,12.75781 a 5.3885393,5.3885393 0 0 1 5.38868,5.38867 5.3885393,5.3885393 0 0 1 -5.38868,5.38867 5.3885393,5.3885393 0 0 1 -5.38867,-5.38867 5.3885393,5.3885393 0 0 1 5.38867,-5.38867 z m 151.26563,0 a 5.3885393,5.3885393 0 0 1 5.38867,5.38867 5.3885393,5.3885393 0 0 1 -5.38867,5.38867 5.3885393,5.3885393 0 0 1 -5.38867,-5.38867 5.3885393,5.3885393 0 0 1 5.38867,-5.38867 z M 198.31445,310.8388 a 6.3593888,6.3593888 0 0 1 6.35938,6.35938 6.3593888,6.3593888 0 0 1 -6.35938,6.35937 6.3593888,6.3593888 0 0 1 -6.35937,-6.35937 6.3593888,6.3593888 0 0 1 6.35937,-6.35938 z m 203.37109,0 a 6.3593888,6.3593888 0 0 1 6.35938,6.35938 6.3593888,6.3593888 0 0 1 -6.35938,6.35937 6.3593888,6.3593888 0 0 1 -6.35937,-6.35937 6.3593888,6.3593888 0 0 1 6.35937,-6.35938 z" />
  <path
     id="rect25"
     style="display:inline;fill:#b4b4b4;fill-opacity:1;stroke:#000000;stroke-width:2;stroke-dasharray:none"
     d="m 134.46484,95.07709 -17.99218,17.99218 V 262.96966 H 483.52734 V 113.06927 L 465.53516,95.07709 Z m 72.18164,51.70312 h 19.97071 9.79883 7.96093 7.25196 6.86914 6.44726 6.39844 6.11914 6.16406 6.01758 5.92969 5.90625 72.26367 19.60938 c 17.42538,0 31.6582,14.23282 31.6582,31.6582 v 3.79102 c 0,17.42538 -14.23282,31.6582 -31.6582,31.6582 h -19.60547 -72.26758 -5.90625 -5.93164 -6.01758 -6.16406 -6.11719 -6.39844 -6.44922 -6.86718 -7.25196 -7.96289 -9.80078 -19.9668 c -17.42496,0 -31.6582,-14.23323 -31.6582,-31.6582 v -3.79102 c 0,-17.42496 14.23324,-31.6582 31.6582,-31.6582 z" />
  <g
     id="g170">
    <rect
       style="fill:#1190a3;fill-opacity:1;stroke:none;stroke-width:0.322479;stroke-dasharray:none;stroke-opacity:1"
       id="rect165"
       width="63.490726"
       height="12"
       x="117.50987"
       y="154"
       ry="0" />
    <rect
       style="fill:#6a58af;fill-opacity:1;stroke:none;stroke-width:0.322296;stroke-dasharray:none;stroke-opacity:1"
       id="rect167"
       width="63.418079"
       height="12"
       x="117.50987"
       y="166"
       ry="0" />
    <rect
       style="fill:#0e6d7c;fill-opacity:1;stroke:none;stroke-width:0.322294;stroke-dasharray:none;stroke-opacity:1"
       id="rect168"
       width="63.418079"
       height="12"
       x="117.50987"
       y="178"
       ry="0" />
    <rect
       style="fill:#8f2b85;fill-opacity:1;stroke:none;stroke-width:0.322295;stroke-dasharray:none;stroke-opacity:1"
       id="rect169"
       width="63.418079"
       height="12"
       x="117.50987"
       y="190"
       ry="0" />
  </g>
  <use
     x="0"
     y="0"
     xlink:href="#g170"
     id="use170"
     transform="translate(301.46398)" />
  <path
     id="path161"
     style="fill:none;fill-opacity:1;stroke:#656565;stroke-width:0.8;stroke-dasharray:none;stroke-opacity:0.40315315"
     d="M 151.38086 226.83984 L 448.61914 226.83984 L 151.38086 226.83984 z M 151.38086 245.49219 L 448.61914 245.49219 L 151.38086 245.49219 z " />
  <g
     id="g147"
     style="display:none"
     transform="translate(-20,3.6298245)">
    <path
       d="m 246.78711,203.71484 c 8.65738,-5.85909 14.34766,-15.77091 14.34766,-27.01172 0,-11.2408 -5.69029,-21.15067 -14.34766,-27.00976 h -16.9375 c 14.34253,0.68645 25.76953,12.49722 25.76953,27.00976 0,14.51914 -11.43736,26.33511 -25.78906,27.01172 z"
       style="display:inline;fill:#4d4d4d;stroke:#000000;stroke-width:1;stroke-dasharray:none"
       id="path117" />
    <path
       d="m 255.41992,203.71484 c 6.93613,-6.90171 11.23242,-16.45377 11.23242,-27.01172 0,-10.55696 -4.29548,-20.10819 -11.23047,-27.00976 h -8.63476 c 8.65737,5.85909 14.34766,15.76896 14.34766,27.00976 0,11.24081 -5.69028,21.15263 -14.34766,27.01172 z"
       style="display:inline;fill:#808080;stroke:#000000;stroke-width:1;stroke-dasharray:none"
       id="path116" />
    <path
       d="m 262.75977,203.71484 c 5.8755,-7.43246 9.4082,-16.8018 9.4082,-27.01172 0,-10.20947 -3.53315,-19.57745 -9.4082,-27.00976 h -7.3379 c 6.93499,6.90157 11.23047,16.4528 11.23047,27.00976 0,10.55795 -4.29629,20.11001 -11.23242,27.01172 z"
       style="display:inline;fill:#4d4d4d;stroke:#000000;stroke-width:1;stroke-dasharray:none"
       id="path115" />
    <path
       d="m 269.57617,203.71484 c 5.11433,-7.75335 8.10938,-17.02866 8.10938,-27.01172 0,-9.98246 -2.99561,-19.25669 -8.10938,-27.00976 h -6.8164 c 5.87505,7.43231 9.4082,16.80029 9.4082,27.00976 0,10.20992 -3.5327,19.57926 -9.4082,27.01172 z"
       style="display:inline;fill:#808080;stroke:#000000;stroke-width:1;stroke-dasharray:none"
       id="path114" />
    <path
       d="m 276.02344,203.71484 c 4.54594,-7.9727 7.17773,-17.1773 7.17773,-27.01172 0,-9.83429 -2.6319,-19.03713 -7.17773,-27.00976 h -6.44727 c 5.11377,7.75307 8.10938,17.0273 8.10938,27.00976 0,9.98306 -2.99505,19.25837 -8.10938,27.01172 z"
       style="display:inline;fill:#4d4d4d;stroke:#000000;stroke-width:1;stroke-dasharray:none"
       id="path113" />
    <path
       d="m 282.26172,203.71484 c 4.09672,-8.13021 6.45703,-17.28637 6.45703,-27.01172 0,-9.72471 -2.3608,-18.87993 -6.45703,-27.00976 h -6.23828 c 4.54583,7.97263 7.17773,17.17547 7.17773,27.00976 0,9.83442 -2.63179,19.03902 -7.17773,27.01172 z"
       style="display:inline;fill:#808080;stroke:#000000;stroke-width:1;stroke-dasharray:none"
       id="path112" />
    <path
       d="m 288.37891,203.71484 c 3.72948,-8.24676 5.85546,-17.37239 5.85546,-27.01172 0,-9.6387 -2.12644,-18.76342 -5.85546,-27.00976 h -6.11719 c 4.09623,8.12983 6.45703,17.28505 6.45703,27.00976 0,9.72535 -2.36031,18.88151 -6.45703,27.01172 z"
       style="display:inline;fill:#4d4d4d;stroke:#000000;stroke-width:1;stroke-dasharray:none"
       id="path111" />
    <path
       d="m 294.41406,203.71484 c 3.42117,-8.33355 5.33789,-17.44526 5.33789,-27.01172 0,-9.56614 -1.91498,-18.67642 -5.33593,-27.00976 h -6.03711 c 3.72902,8.24634 5.85546,17.37106 5.85546,27.00976 0,9.63933 -2.12598,18.76496 -5.85546,27.01172 z"
       style="display:inline;fill:#808080;stroke:#000000;stroke-width:1;stroke-dasharray:none"
       id="path110" />
    <path
       d="m 300.2832,203.71484 c 3.17004,-8.41259 4.98438,-17.49027 4.98438,-27.01172 0,-9.52079 -1.81475,-18.59764 -4.98438,-27.00976 h -5.86718 c 3.42095,8.33334 5.33593,17.44362 5.33593,27.00976 0,9.56646 -1.91672,18.67817 -5.33789,27.01172 z"
       style="display:inline;fill:#4d4d4d;stroke:#000000;stroke-width:1;stroke-dasharray:none"
       id="path109" />
    <path
       d="m 306.22266,203.71484 c 2.94287,-8.46331 4.5625,-17.54598 4.5625,-27.01172 -1e-5,-9.46486 -1.6182,-18.54711 -4.56055,-27.00976 h -5.94141 c 3.16963,8.41212 4.98438,17.48897 4.98438,27.00976 0,9.52145 -1.81434,18.59913 -4.98438,27.01172 z"
       style="display:inline;fill:#808080;stroke:#000000;stroke-width:1;stroke-dasharray:none"
       id="path108" />
    <path
       d="m 312.04687,203.71484 c 2.7513,-8.51124 4.25391,-17.58453 4.25391,-27.01172 0,-9.42718 -1.50261,-18.49852 -4.25391,-27.00976 h -5.82226 c 2.94235,8.46265 4.56054,17.5449 4.56055,27.00976 0,9.46574 -1.61963,18.54841 -4.5625,27.01172 z"
       style="display:inline;fill:#4d4d4d;stroke:#000000;stroke-width:1;stroke-dasharray:none"
       id="path107" />
    <path
       d="m 317.83203,149.69336 h -5.78516 c 2.7513,8.51124 4.25391,17.58258 4.25391,27.00976 0,9.42719 -1.50261,18.50048 -4.25391,27.01172 h 5.78516 c 2.58371,-8.55182 3.98633,-17.61695 3.98633,-27.01172 0,-9.39465 -1.40267,-18.45802 -3.98633,-27.00976 z"
       style="display:inline;fill:#808080;stroke:#000000;stroke-width:1;stroke-dasharray:none"
       id="path106" />
    <path
       d="m 323.56445,149.69336 h -5.73242 c 2.58366,8.55174 3.98633,17.61511 3.98633,27.00976 0,9.39477 -1.40262,18.4599 -3.98633,27.01172 h 5.73242 c 2.43705,-8.58866 3.76953,-17.64207 3.76953,-27.01172 0,-9.36931 -1.33264,-18.42136 -3.76953,-27.00976 z"
       style="display:inline;fill:#4d4d4d;stroke:#000000;stroke-width:1;stroke-dasharray:none"
       id="path105" />
    <path
       d="m 323.56445,149.69336 c 2.43689,8.5884 3.76953,17.64045 3.76953,27.00976 0,9.36965 -1.33248,18.42306 -3.76953,27.01172 h 61.25 c -6.97672,-6.88188 -11.30859,-16.43776 -11.30859,-27.01172 1e-5,-10.57295 4.33107,-20.12802 11.30664,-27.00976 z"
       style="display:inline;fill:none;stroke:#000000;stroke-width:1;stroke-dasharray:none"
       id="path104" />
    <path
       d="m 384.81445,203.71484 h 8.54883 c -8.69436,-5.83578 -14.41992,-15.75356 -14.41992,-27.01172 1e-5,-11.25659 5.72368,-21.17366 14.41601,-27.00976 h -8.54687 c -6.97557,6.88174 -11.30663,16.43681 -11.30664,27.00976 0,10.57396 4.33187,20.12984 11.30859,27.01172 z"
       style="display:inline;fill:#808080;stroke:#000000;stroke-width:1;stroke-dasharray:none"
       id="path101" />
    <path
       d="m 393.36328,203.71484 h 16.80664 c -14.3517,-0.67661 -25.78906,-12.49258 -25.78906,-27.01172 0,-14.51254 11.427,-26.32331 25.76953,-27.00976 h -16.79102 c -8.69233,5.8361 -14.416,15.75317 -14.41601,27.00976 0,11.25816 5.72556,21.17594 14.41992,27.01172 z"
       style="display:inline;fill:#4d4d4d;stroke:#000000;stroke-width:1;stroke-dasharray:none"
       id="path100" />
  </g>
  <path
     d="m 226.64648,143.15039 c -17.42498,0 -31.6582,14.23322 -31.6582,31.6582 v 3.79102 c 0,17.42499 14.23322,31.6582 31.6582,31.6582 h 19.9668 9.80078 7.96289 7.25196 6.86718 6.44922 6.39844 6.11719 6.16406 6.01758 5.93164 5.90625 72.26758 19.60547 c 17.4254,0 31.6582,-14.2328 31.6582,-31.6582 v -3.79102 c 0,-17.4254 -14.2328,-31.6582 -31.6582,-31.6582 h -19.60938 -72.26367 -5.90625 -5.92969 -6.01758 -6.16406 -6.11914 -6.39844 -6.44726 -6.86914 -7.25196 -7.96093 -9.79883 z m 3.3336,6.90202 c 0.43431,0 0.85689,0.0448 1.28611,0.0654 h 16.67135 8.49908 7.2226 6.70929 6.34596 6.14025 6.02107 5.94225 5.77498 5.84805 5.73077 5.69426 5.64234 60.28563 8.41257 16.52717 c 0.42923,-0.0206 0.85179,-0.0654 1.28611,-0.0654 0.43466,0 0.85846,0.0448 1.28803,0.0654 h 0.57866 c 13.69519,0 24.72058,11.02539 24.72058,24.72058 v 0.59789 c 0.02,0.42288 0.0635,0.83905 0.0635,1.26687 0,0.42753 -0.0435,0.84429 -0.0635,1.26689 v 0.5998 c 0,13.69519 -11.02539,24.72058 -24.72058,24.72058 h -0.59981 c -0.42259,0.0199 -0.83936,0.0635 -1.26688,0.0635 -0.42782,0 -0.844,-0.0435 -1.26689,-0.0635 h -16.54255 -8.41449 -60.28755 -5.64234 -5.69426 -5.73269 -5.84613 -5.77691 -5.94032 -6.02107 -6.14025 -6.34596 -6.70929 -7.22452 -8.49716 -16.69057 c -0.42288,0.02 -0.83908,0.0635 -1.26689,0.0635 -0.42751,0 -0.8443,-0.0435 -1.26688,-0.0635 h -0.59981 c -13.69486,0 -24.72058,-11.02571 -24.72058,-24.72058 V 177.97 c -0.0199,-0.42259 -0.0634,-0.83937 -0.0634,-1.26689 0,-0.42781 0.0435,-0.844 0.0634,-1.26687 v -0.59789 c 0,-13.69486 11.02572,-24.72058 24.72058,-24.72058 h 0.57866 c 0.42955,-0.0206 0.85338,-0.0654 1.28803,-0.0654 z"
     style="display:inline;fill:#666666;stroke:#000000;stroke-width:1;stroke-dasharray:none"
     id="path97"
     transform="translate(-20,3.6298245)" />
  <text
     xml:space="preserve"
     style="font-style:normal;font-variant:normal;font-weight:normal;font-stretch:normal;font-size:18.6667px;font-family:Handlee;-inkscape-font-specification:'Handlee, Normal';font-variant-ligatures:normal;font-variant-caps:normal;font-variant-numeric:normal;font-variant-east-asian:normal;display:inline;fill:#000000;fill-opacity:1;stroke:#787878;stroke-width:0.1;stroke-dasharray:none;stroke-opacity:0.681579"
     x="293.04715"
     y="242.3143"
     id="text158"><tspan
       id="tspan158"
       x="293.04715"
       y="242.3143"
       style="font-style:normal;font-variant:normal;font-weight:normal;font-stretch:normal;font-size:18.6667px;font-family:Handlee;-inkscape-font-specification:'Handlee, Normal';font-variant-ligatures:normal;font-variant-caps:normal;font-variant-numeric:normal;font-variant-east-asian:normal;text-align:center;text-anchor:middle">404 - PAGE NOT FOUND</tspan></text>
  <path
     id="rect159"
     style="display:inline;fill:url(#linearGradient160);stroke:#787878;stroke-width:0.1;stroke-opacity:0.681579"
     d="m 271.586,154.38684 h 93.2265 l -21.46884,51.54179 h -93.2265 z" />
  <path
     id="rect160"
     style="display:inline;fill:#6e6e6e;fill-opacity:1;stroke:#000000;stroke-width:1;stroke-dasharray:none;stroke-opacity:1"
     d="m 185.92383,146.21094 c -6.66677,0 -12.03321,5.36838 -12.03321,12.03515 v 45.12696 c 0,6.66677 5.36644,12.0332 12.03321,12.0332 h 229.24609 c 6.66677,0 12.0332,-5.36643 12.0332,-12.0332 v -45.12696 c 0,-6.66677 -5.36643,-12.03515 -12.0332,-12.03515 z m 62.27929,7.56054 h 103.59376 c 1.40388,0 2.5332,1.13127 2.5332,2.53516 v 47.66406 c 0,1.4039 -1.12932,2.53516 -2.5332,2.53516 H 248.20312 c -1.40388,0 -2.5332,-1.13126 -2.5332,-2.53516 v -47.66406 c 0,-1.40389 1.12932,-2.53516 2.5332,-2.53516 z m -39.41406,2.06836 a 24.067797,24.067797 0 0 1 24.06641,24.06641 24.067797,24.067797 0 0 1 -24.06641,24.06836 24.067797,24.067797 0 0 1 -24.06836,-24.06836 24.067797,24.067797 0 0 1 24.06836,-24.06641 z m 181.71094,0 A 24.067797,24.067797 0 0 1 414.56836,179.90625 24.067797,24.067797 0 0 1 390.5,203.97461 24.067797,24.067797 0 0 1 366.43164,179.90625 24.067797,24.067797 0 0 1 390.5,155.83984 Z" />
  <text
     xml:space="preserve"
     style="font-style:normal;font-variant:normal;font-weight:bold;font-stretch:normal;font-size:18.6667px;font-family:Noteworthy;-inkscape-font-specification:'Noteworthy, Bold';font-variant-ligatures:normal;font-variant-caps:normal;font-variant-numeric:normal;font-variant-east-asian:normal;fill:none;fill-opacity:1;stroke:#656565;stroke-width:0.8;stroke-dasharray:none;stroke-opacity:0.403153"
     x="133.57628"
     y="120.33899"
     id="text162"><tspan
       id="tspan162"
       x="133.57628"
       y="120.33899"
       style="font-style:normal;font-variant:normal;font-weight:normal;font-stretch:normal;font-size:16px;font-family:'Noto Sans Avestan';-inkscape-font-specification:'Noto Sans Avestan, Normal';font-variant-ligatures:normal;font-variant-caps:normal;font-variant-numeric:normal;font-variant-east-asian:normal;fill:#4c4c4c;fill-opacity:1;stroke:none;stroke-opacity:1">C-90</tspan></text>
  <text
     xml:space="preserve"
     style="font-style:normal;font-variant:normal;font-weight:normal;font-stretch:normal;font-size:16px;line-height:0.6;font-family:'Noto Sans Avestan';-inkscape-font-specification:'Noto Sans Avestan, Normal';font-variant-ligatures:normal;font-variant-caps:normal;font-variant-numeric:normal;font-variant-east-asian:normal;fill:#4c4c4c;fill-opacity:1;stroke:none;stroke-width:0.8;stroke-dasharray:none;stroke-opacity:1"
     x="466.48026"
     y="112.55972"
     id="text163"><tspan
       x="466.48026"
       y="112.55972"
       id="tspan164"
       style="font-style:normal;font-variant:normal;font-weight:normal;font-stretch:normal;font-size:5.33333px;line-height:0.6;font-family:Sans;-inkscape-font-specification:'Sans, Normal';font-variant-ligatures:normal;font-variant-caps:normal;font-variant-numeric:normal;font-variant-east-asian:normal;text-align:end;writing-mode:lr-tb;text-anchor:end"
       dy="0">NORMAL POSITION</tspan><tspan
       x="466.48026"
       y="122.15972"
       style="font-style:normal;font-variant:normal;font-weight:normal;font-stretch:normal;font-size:5.33333px;line-height:0.6;font-family:Sans;-inkscape-font-specification:'Sans, Normal';font-variant-ligatures:normal;font-variant-caps:normal;font-variant-numeric:normal;font-variant-east-asian:normal;text-align:end;writing-mode:lr-tb;text-anchor:end"
       id="tspan165">TYPE - II</tspan></text>
  <text
     xml:space="preserve"
     style="font-style:normal;font-variant:normal;font-weight:normal;font-stretch:normal;font-size:10.6667px;line-height:0.8;font-family:'Noto Sans Avestan';-inkscape-font-specification:'Noto Sans Avestan, Normal';font-variant-ligatures:normal;font-variant-caps:normal;font-variant-numeric:normal;font-variant-east-asian:normal;text-align:center;writing-mode:tb-rl;text-anchor:middle;fill:#242120;fill-opacity:0.6;stroke:#1c1c1c;stroke-width:0.303;stroke-dasharray:none;stroke-opacity:0.5"
     x="454.27707"
     y="164.32166"
     id="text175"><tspan
       x="454.27707"
       y="164.32166"
       style="font-style:normal;font-variant:normal;font-weight:normal;font-stretch:normal;font-size:10.6667px;line-height:0.8;font-family:'Noto Sans Avestan';-inkscape-font-specification:'Noto Sans Avestan, Normal';font-variant-ligatures:normal;font-variant-caps:normal;font-variant-numeric:normal;font-variant-east-asian:normal;writing-mode:lr-tb;fill:#242120;fill-opacity:0.6;stroke:#1c1c1c;stroke-opacity:0.5"
       id="tspan180">TRACKER</tspan></text>
  <text
     xml:space="preserve"
     style="font-style:normal;font-variant:normal;font-weight:normal;font-stretch:normal;font-size:10.6667px;line-height:0.6;font-family:'Noto Sans Avestan';-inkscape-font-specification:'Noto Sans Avestan, Normal';font-variant-ligatures:normal;font-variant-caps:normal;font-variant-numeric:normal;font-variant-east-asian:normal;text-align:center;writing-mode:lr-tb;text-anchor:middle;fill:#242120;fill-opacity:0.603604;stroke:#1c1c1c;stroke-width:0.303;stroke-dasharray:none;stroke-opacity:0.497748"
     x="147.239"
     y="164.08647"
     id="text174"><tspan
       id="tspan174"
       x="147.239"
       y="164.08647"
       style="font-style:normal;font-variant:normal;font-weight:normal;font-stretch:normal;font-size:10.6667px;font-family:'Noto Sans Avestan';-inkscape-font-specification:'Noto Sans Avestan, Normal';font-variant-ligatures:normal;font-variant-caps:normal;font-variant-numeric:normal;font-variant-east-asian:normal;fill:#242120;fill-opacity:0.603604;stroke:#1c1c1c;stroke-opacity:0.497748">ARTIST</tspan></text>
  <g
     id="g20"
     transform="translate(-20,3.6298245)"
     style="display:inline;fill:#6e6e6e;fill-opacity:1">
    <g
       id="g156"
       transform="translate(-4.1879929e-4,1.500574)"
       style="display:inline;fill:#6e6e6e;fill-opacity:1">
      <g
         id="g155"
         transform="translate(-1.2e-4)"
         style="fill:#6e6e6e;fill-opacity:1">
        <circle
           style="fill:url(#radialGradient16);fill-opacity:1;stroke:none;stroke-width:2;stroke-dasharray:none;stroke-opacity:1"
           id="circle154"
           cx="506.85352"
           cy="303.51758"
           r="4.1749768" />
        <path
           id="path154"
           style="display:inline;fill:#383838;fill-opacity:1;stroke:url(#linearGradient16);stroke-width:0.1;stroke-dasharray:none;stroke-opacity:0.681579"
           d="m 506.17578,301.14844 v 1.6914 h -1.6914 v 1.35547 h 1.6914 v 1.69141 h 1.35352 v -1.69141 h 1.69336 v -1.35547 h -1.69336 v -1.6914 z" />
      </g>
      <g
         id="g12"
         transform="translate(-373.55612)"
         style="fill:#6e6e6e;fill-opacity:1">
        <circle
           style="fill:url(#radialGradient17);fill-opacity:1;stroke:none;stroke-width:2;stroke-dasharray:none;stroke-opacity:1"
           id="circle12"
           cx="506.85352"
           cy="303.51758"
           r="4.1749768" />
        <path
           id="path12"
           style="display:inline;fill:#383838;fill-opacity:1;stroke:url(#linearGradient17);stroke-width:0.1;stroke-dasharray:none;stroke-opacity:0.681579"
           d="m 506.17578,301.14844 v 1.6914 h -1.6914 v 1.35547 h 1.6914 v 1.69141 h 1.35352 v -1.69141 h 1.69336 v -1.35547 h -1.69336 v -1.6914 z" />
      </g>
    </g>
    <g
       id="g15"
       transform="translate(-4.1879929e-4,-224.9996)"
       style="display:inline;fill:#6e6e6e;fill-opacity:1">
      <g
         id="g13"
         transform="translate(-1.2e-4)"
         style="fill:#6e6e6e;fill-opacity:1">
        <circle
           style="fill:url(#radialGradient12);fill-opacity:1;stroke:none;stroke-width:2;stroke-dasharray:none;stroke-opacity:1"
           id="circle13"
           cx="506.85352"
           cy="303.51758"
           r="4.1749768" />
        <path
           id="path13"
           style="display:inline;fill:#383838;fill-opacity:1;stroke:url(#linearGradient12);stroke-width:0.1;stroke-dasharray:none;stroke-opacity:0.681579"
           d="m 506.17578,301.14844 v 1.6914 h -1.6914 v 1.35547 h 1.6914 v 1.69141 h 1.35352 v -1.69141 h 1.69336 v -1.35547 h -1.69336 v -1.6914 z" />
      </g>
      <g
         id="g14"
         transform="translate(-373.55612)"
         style="fill:#6e6e6e;fill-opacity:1">
        <circle
           style="fill:url(#radialGradient10);fill-opacity:1;stroke:none;stroke-width:2;stroke-dasharray:none;stroke-opacity:1"
           id="circle14"
           cx="506.85352"
           cy="303.51758"
           r="4.1749768" />
        <path
           id="path14"
           style="display:inline;fill:#383838;fill-opacity:1;stroke:url(#linearGradient158);stroke-width:0.1;stroke-dasharray:none;stroke-opacity:0.681579"
           d="m 506.17578,301.14844 v 1.6914 h -1.6914 v 1.35547 h 1.6914 v 1.69141 h 1.35352 v -1.69141 h 1.69336 v -1.35547 h -1.69336 v -1.6914 z" />
      </g>
    </g>
  </g>
</svg>
