<?xml version="1.0" encoding="UTF-8" standalone="no"?>
<!-- Creator: CorelDRAW -->

<svg
   xml:space="preserve"
   width="24"
   height="24"
   style="clip-rule:evenodd;fill-rule:evenodd;image-rendering:optimizeQuality;shape-rendering:geometricPrecision;text-rendering:geometricPrecision"
   viewBox="0 0 0.24999999 0.24999999"
   version="1.1"
   id="svg2"
   sodipodi:docname="globe.svg"
   inkscape:version="1.3.2 (091e20e, 2023-11-25)"
   xmlns:inkscape="http://www.inkscape.org/namespaces/inkscape"
   xmlns:sodipodi="http://sodipodi.sourceforge.net/DTD/sodipodi-0.dtd"
   xmlns="http://www.w3.org/2000/svg"
   xmlns:svg="http://www.w3.org/2000/svg"><sodipodi:namedview
   id="namedview2"
   pagecolor="#505050"
   bordercolor="#eeeeee"
   borderopacity="1"
   inkscape:showpageshadow="0"
   inkscape:pageopacity="0"
   inkscape:pagecheckerboard="0"
   inkscape:deskcolor="#505050"
   inkscape:document-units="in"
   inkscape:zoom="9.7473346"
   inkscape:cx="14.414197"
   inkscape:cy="16.671224"
   inkscape:window-width="1440"
   inkscape:window-height="872"
   inkscape:window-x="0"
   inkscape:window-y="28"
   inkscape:window-maximized="0"
   inkscape:current-layer="Layer_x0020_1"
   showguides="true" />
 <defs
   id="defs1">
  <style
   type="text/css"
   id="style1">
   <![CDATA[
    .fil6 {fill:none}
    .fil0 {fill:#676767}
    .fil4 {fill:#7A7A7A}
    .fil2 {fill:#858585}
    .fil5 {fill:#B4B4B5}
    .fil3 {fill:#C5C5C5}
    .fil1 {fill:#C5C5C5;fill-rule:nonzero}
   ]]>
  </style>
 </defs>
 <g
   id="Layer_x0020_1"
   inkscape:label="Layer 1"
   inkscape:groupmode="layer">
  <metadata
   id="CorelCorpID_0Corel-Layer" />
  
  
  <g
   id="_246463496"
   transform="matrix(0.07012242,0,0,0.07012242,-0.11581393,-0.11266164)">
   <g
   id="g1"
   style="display:inline">
    <path
   id="_510587296"
   class="fil2"
   d="m 5.10881,3.41329 c 0,0.936469 -0.759039,1.69555 -1.69557,1.69555 C 2.477031,5.1088282 1.71785,4.349773 1.71785,3.4133 1.7178618,2.476855 2.477035,1.71781 3.41324,1.71781 c 0.936528,0 1.69557,0.759043 1.69557,1.69548 z"
   style="display:inline" /><path
   id="_510586984"
   class="fil1"
   d="m 3.70635,4.31108 c 4.173e-4,3.15e-5 9.055e-4,3.15e-5 0.00146,7.9e-6 -0.00807,-0.00299 -0.011512,-0.00421 -0.00146,-7.9e-6 z" />
    
    <path
   id="_510587248"
   class="fil3"
   d="m 3.55291,3.09541 0.00757,4.409e-4 0.00485,2.441e-4 z m 1.23705,0.344126 c 0,0 -0.010543,0.00688 -0.016457,0.011492 -0.00586,0.00452 -0.015213,0.00344 -0.031669,0.00351 -0.016445,9.84e-5 -0.012961,0.00353 -0.02589,0.00359 -0.013055,5.12e-5 -0.00834,0.00804 -0.020213,0.00926 -0.011858,0.00122 -0.020248,0.00241 -0.027394,0.00247 -0.0072,3.94e-5 -0.00705,-0.00913 -0.011823,-0.00908 l -0.00688,-0.00716 -1.693e-4,-0.002 c 0,-0.00347 7.88e-5,-0.00922 1.299e-4,-0.016087 0,-0.00689 -0.00477,-0.011457 -0.010768,-0.016 -0.006,-0.00457 -0.00591,-0.0092 -0.014343,-0.018366 -0.00839,-0.00919 -0.020394,-0.020681 -0.032591,-0.022957 -0.012094,-0.00235 -0.00114,-0.00689 -0.017043,-0.027677 -0.015898,-0.020839 -0.00614,-0.00811 -0.00985,-0.023165 -0.0015,-0.00591 -0.00317,-0.00836 -0.00536,-0.010051 -0.00339,-0.00255 -0.00816,-0.00311 -0.015579,-0.010819 -0.012468,-0.012862 -0.00995,-0.0082 -0.012468,-0.012862 -0.00247,-0.0047 -0.00147,-0.018575 -0.00156,-0.022071 0,-0.00345 -0.013921,-0.030342 -0.019197,-0.043228 -0.00522,-0.012965 -0.013705,-0.00604 -0.010083,-0.00955 0.00202,-0.00184 2.756e-4,-0.00417 -0.00239,-0.00887 -0.00224,-0.00396 -0.00499,-0.00957 -0.00696,-0.018158 -0.00417,-0.018799 -0.013287,-0.033098 -0.025016,-0.04635 -0.011681,-0.013232 -0.00789,-0.010831 -0.00821,-0.020311 -2.205e-4,-0.00947 -0.021028,-0.025398 -0.021252,-0.031347 -1.811e-4,-0.00596 -0.00692,-0.016874 -0.00426,-0.013224 0.00265,0.00365 0.010756,0.018146 0.014795,0.024185 0.00395,0.00603 0.00142,0.00481 0.018185,0.018177 0.016732,0.013417 0.00486,-0.00337 0.00564,-0.016433 3.228e-4,-0.00399 -6.851e-4,-0.010343 -0.00205,-0.017185 -0.00344,-0.015693 -0.00986,-0.034323 -0.012472,-0.034413 -0.00375,-7.87e-5 -0.00632,-0.00136 -0.016496,-0.00163 -0.00999,-2.756e-4 -0.00765,-0.00261 -0.017732,-0.00291 -0.01022,-2.992e-4 -0.00792,-0.00744 -0.024468,-0.00794 -0.016591,-5.079e-4 -0.017421,0.010287 -0.030059,0.014768 -0.012602,0.00442 -0.035476,-0.015535 -0.042024,-0.017004 -0.00655,-0.00141 -0.026071,-8.583e-4 -0.031303,-0.00104 -0.0037,-1.181e-4 -0.007,-0.0032 -0.011264,-0.00516 l -0.00609,-0.0015 c -0.00788,-2.205e-4 -0.025535,-0.00937 -0.025535,-0.00937 1.18e-5,0 -0.00673,-0.00391 -0.015209,-0.012784 -0.00834,-0.00886 -0.02002,-0.00192 -0.028087,-0.00226 -0.00798,-2.834e-4 -0.011508,0.010638 -0.018016,0.015319 -0.00646,0.00461 9.606e-4,0.019571 0.00129,0.028157 4.134e-4,0.00852 -0.00522,0.00229 -0.011823,0.00694 -0.00651,0.00463 -0.022965,4.843e-4 -0.031398,-0.00597 -0.00847,-0.00644 -0.00288,-0.00499 -0.010118,-0.011366 -0.00705,-0.00639 -0.026122,-0.00342 -0.03163,-0.0036 -0.00549,-2.362e-4 -0.00834,-3.15e-4 -0.01026,-0.012728 -0.00196,-0.012449 -0.011772,-0.015279 -0.011772,-0.015279 3.94e-5,-1.18e-5 -0.022315,-0.00336 -0.032177,-0.00374 -0.00975,-3.898e-4 -0.018327,-0.00327 -0.025339,-0.00354 l -0.010575,-0.0075 -0.00981,-0.00582 c -0.00844,-3.346e-4 -0.011693,-0.00796 -0.011693,-0.00796 0,0 -0.006,-0.00654 -0.00486,-0.013976 9.645e-4,-0.00752 0.00793,-0.010941 0.011823,-0.017055 0.00395,-0.00607 -0.00371,-0.016445 -0.00674,-0.020382 l 0.00904,-0.015976 c 0,0 -0.012342,0.00697 -0.012705,7.126e-4 -3.662e-4,-0.00637 -0.017496,-0.00976 -0.017496,-0.00976 -0.00609,9.882e-4 -0.012236,0.00192 -0.018382,0.00294 0,0 -0.014252,5.079e-4 -0.018563,3.386e-4 -0.0043,-2.481e-4 -0.01865,3.385e-4 -0.01865,3.385e-4 -0.00824,-4.448e-4 -0.016449,-8.346e-4 -0.024748,-0.0013 1.18e-5,-1.18e-5 -0.01287,0.00194 -0.040646,0.00429 -0.027902,0.00244 -0.029512,0.00106 -0.033957,8.307e-4 -0.00444,-1.772e-4 -0.014795,0.00183 -0.014795,0.00183 0,0 -0.017835,0.00159 -0.023693,0.00517 -0.00585,0.00352 -0.00724,0.0073 -0.013248,0.00699 -0.00604,-3.11e-4 -0.012094,6.615e-4 -0.024055,0.00518 -0.012004,0.00451 0,0 -0.0043,0.0049 l -0.00852,0.00513 -0.00509,-6.496e-4 c -0.0077,-0.00165 -0.0077,-0.00295 -0.012378,-0.00448 -0.00467,-0.00154 -0.00925,-4.41e-4 -0.015433,-7.756e-4 -0.0062,-3.15e-4 -0.013886,-7.165e-4 -0.020087,-0.001 -0.00627,-3.385e-4 -0.015752,-0.006 -0.015752,-0.006 0,0 -0.0066,-0.00933 -0.017512,-0.011236 -0.011,-0.00186 -0.00925,0.00469 -0.00925,0.00469 0,-1.18e-5 -0.00134,0.00644 -0.00285,0.011508 -0.00138,0.00511 -0.00752,0.011299 -0.00729,0.017744 1.417e-4,0.00648 -0.012469,0.00589 -0.015575,0.010898 -0.00302,0.00507 -0.010909,0.00473 -0.020445,0.00813 -0.00948,0.00342 -0.017547,0.00174 -0.023783,0.010508 -0.00628,0.00881 -0.014248,0.014976 -0.015756,0.021461 -0.00142,0.00642 -0.00794,0.00873 -0.00785,0.016512 1.929e-4,0.00782 0.00359,0.017079 0.00359,0.017079 l -0.00143,0.010378 c 0,0 -0.012965,0.00857 -0.012835,0.017717 1.417e-4,0.00906 -0.024512,0.0069 -0.024567,0.0069 5.51e-5,0 -0.018039,0.00716 -0.022988,0.012264 -0.00495,0.00502 -0.018291,0.00716 -0.023291,0.00828 l -2.205e-4,7.48e-5 c -0.00454,0.00157 0.00339,0.01724 -0.02315,0.028047 -0.02689,0.010965 -0.026902,0.032138 -0.030331,0.037346 -0.00339,0.00517 -0.00509,0.00777 -0.011909,0.014209 -0.00683,0.00642 -0.010224,0.019539 -0.010224,0.019539 0,-1.57e-5 -0.017224,0.01552 -0.024201,0.026004 -0.00687,0.010433 -0.00517,0.00521 -0.00687,0.014472 -0.00174,0.00927 0.00344,0.00938 0.00692,0.016043 0.00344,0.00672 0.00174,0.00537 0.010406,0.00814 0.00867,0.00277 0,0.017276 0,0.029201 0,0.011925 0.00174,0.00664 0.00174,0.018575 0,0.011874 -0.00344,0.015811 -0.00344,0.030421 0,0.00461 0,0.00768 -9.05e-5,0.010004 -2.205e-4,0.00498 -0.00102,0.00582 -0.00339,0.00857 l -0.015677,0.022547 c 0,0 -0.00352,0.00793 -0.00352,0.014614 0,0.00665 0,0.00804 0,0.015953 0,0.00796 0,0 -0.00344,0.012004 -0.00352,0.012028 0,0 -0.00174,0.0093 -0.00178,0.00935 0.012236,0.015886 0.012236,0.015886 l 8.701e-4,0.00106 0.00605,0.00681 c 0.00696,0.00794 0.0225,0.00377 0.0225,0.00377 -0.00384,0.00796 0.00573,0.012795 0.010858,0.014772 l 0.00299,10e-4 c 0,0 0.00682,0.010496 0.013693,0.01435 0.00679,0.00386 0.00513,0.00648 0.015299,0.012925 0.00629,0.004 0.010587,0.010953 0.01302,0.015693 l 0.00224,0.00512 -3.93e-5,0.015744 c 0,0.00396 0.011823,0.01026 0.016811,0.014134 0.00505,0.00379 0.00839,0.00501 0.020122,0.010039 l 0.00659,0.00361 c 0.00537,0.00385 0.00665,0.0078 0.011642,0.011622 0.0066,0.00515 0.036291,0.023811 0.036201,0.023811 0,-1.18e-5 0.018004,0.00861 0.030839,0.017319 0.013016,0.00867 0.017835,0.00333 0.017835,0.00333 l 0.00408,-6.732e-4 c 0.00463,-8.189e-4 0.00925,-0.00161 0.013744,-0.00239 5.12e-5,-3.94e-5 0.016224,-0.00826 0.020992,-0.00835 0.0048,-1.575e-4 0.011366,-0.00682 0.028772,-0.00729 0.017547,-4.292e-4 0.022189,-5.473e-4 0.036347,-9.607e-4 0.014158,-3.661e-4 0.00627,0.00365 0.01552,0.00725 0.00551,0.0021 0.010913,0.00152 0.014575,7.126e-4 l 0.00413,-0.00123 c 0.00522,-0.00186 0.010496,-0.00369 0.015626,-0.0055 0,0 0.012366,-0.00289 0.017043,-0.00556 0.00467,-0.00266 0.014028,-0.008 0.021717,-0.00816 0.00761,-2.323e-4 0.00926,-0.00654 0.018382,-0.00671 0.00917,-2.756e-4 0.00921,-0.00783 0.00926,-0.00783 l 0.00513,-8.425e-4 c 0.00618,-10e-4 0.016122,-0.0026 0.022138,-0.00355 L 3.82933,3.56591 c 0.0088,-0.00124 0.018835,-3.228e-4 0.030331,-5.709e-4 0.011874,-2.992e-4 0.010354,0.00477 0.026398,0.014342 0.016039,0.0096 0.00279,0.0099 9.567e-4,0.021213 -0.00174,0.011248 0.00426,0.00985 0.014488,0.00956 0.010362,-2.992e-4 0.020756,-0.00554 0.029457,-0.00578 0.00876,-2.481e-4 0.029291,-0.00822 0.029201,-0.00822 l 3.268e-4,3.543e-4 0.00952,0.011768 c 0,0 0.00706,0.00476 0.016642,0.019354 0.00682,0.010402 0.00357,0.016626 0,0.022106 l -0.00376,0.0065 c -0.00206,0.00502 -0.00496,0.012862 -0.00665,0.019693 l -0.0015,0.00907 c -3.819e-4,0.00757 -0.010602,0.014067 -0.014213,0.032929 -0.00298,0.015886 0.020705,0.042957 0.041968,0.061752 l 0.011689,0.00976 c 0.0055,0.00407 0.00907,0.00899 0.011732,0.014224 0.00321,0.0063 0.00486,0.013236 0.00591,0.020185 0.00174,0.011886 0.00188,0.023965 0.00531,0.033528 0.00725,0.019823 0.020941,0.021677 0.012598,0.022055 -0.00838,4.173e-4 -0.00466,0.030618 0.00335,0.035268 0.00792,0.00467 0.0087,0.035059 -0.00957,0.059157 -0.015772,0.020693 -0.033685,0.068441 -0.041618,0.098358 -0.00128,0.00483 -0.00229,0.00925 -0.00302,0.012846 -0.00454,0.026201 0.042894,0.110984 0.042606,0.111205 1.18e-5,-7.87e-5 0.00834,0.055854 0.00573,0.080732 -0.00201,0.020614 0.016276,0.044126 0.023382,0.056165 l 0.00265,0.00561 c 0.00179,0.00826 -4.528e-4,0.030591 0.015445,0.055205 0.015988,0.024642 -0.010445,0.045764 0.00468,0.076811 0.014988,0.031173 0.029732,0.019094 0.052736,0.00356 0.02311,-0.015449 0.034697,-0.00139 0.045413,-0.00177 0.010547,-4.016e-4 0.036071,-0.015929 0.051972,-0.016563 0.015807,-6.102e-4 0.013614,-0.026693 0.046465,-0.039461 0.032776,-0.012862 0.038866,-0.021823 0.04715,-0.050713 0.0083,-0.028772 0.027358,-0.037945 0.046972,-0.052831 0.017004,-0.012965 0.017602,-0.018783 0.012276,-0.036528 l -0.00269,-0.00847 c -0.00779,-0.024591 0.044906,-0.040425 0.044854,-0.040425 0.00894,-3.504e-4 0.016587,-0.013067 0.0215,-0.040347 0.0049,-0.027252 0.00388,-0.044476 -0.00999,-0.059831 -0.013941,-0.015327 0.00678,-0.020157 0.016169,-0.025795 0.00921,-0.00567 0.017405,-0.012575 0.025563,-0.020772 0.00821,-0.00817 0.011421,-0.017433 0.016874,-0.022811 0.0055,-0.00541 0.027216,-0.012716 0.033866,-0.018146 0.0066,-0.00551 0.019654,-0.013677 0.029228,-0.026839 0.00958,-0.013209 0.010909,-0.014524 0.00811,-0.028421 -0.0028,-0.013846 0.001,-0.014039 0.00274,-0.041787 0.00175,-0.027681 0.00449,-0.032642 0.00449,-0.032642 0,-1.18e-5 -0.00215,-0.00599 -0.00467,-0.01402 -0.00316,-0.00996 -0.00706,-0.023146 -0.00856,-0.032524 -0.00276,-0.017201 0.00132,-0.024669 -0.00321,-0.031827 -0.00453,-0.0072 -0.00656,-0.014429 -0.00688,-0.031433 -4.055e-4,-0.0165 0.010728,-0.00694 0.01187,-0.018799 l 9.05e-5,-8.819e-4 c 6.496e-4,-0.013264 0.00212,-0.018106 0.00968,-0.023146 0.00756,-0.00498 -0.00147,-0.021575 0.00843,-0.024138 0.0082,-0.00218 0.017591,-0.015079 0.020528,-0.019382 l 9.213e-4,-0.00143 0.016406,-0.015779 c 0.00256,-0.00365 0.018835,-0.022846 0.022681,-0.029941 0.00385,-0.00715 0.022264,-0.019213 0.02589,-0.022823 0.00367,-0.00353 0.015677,-0.0049 0.018197,-0.0096 0.00252,-0.00476 0.019653,-0.025925 0.025705,-0.029512 0.006,-0.00356 0.018098,-0.019937 0.023098,-0.030358 0.0049,-0.010468 0.00751,-0.022016 0.021953,-0.046205 0.014433,-0.024276 0.017173,-0.07326 0.025382,-0.08348 0.00821,-0.010279 -0.00463,-0.00567 -0.00463,-0.00568 z" />
    <path
   id="_510586912"
   class="fil3"
   d="m 2.21551,2.49309 c 0,0 0.00912,-0.0036 0.014524,-0.00731 C 2.235454,2.48217 2.248467,2.459788 2.25166,2.456902 L 2.214916,2.459022 C 2.209966,2.465692 2.19668,2.484998 2.192739,2.489613 2.188849,2.494293 2.190439,2.513684 2.185869,2.51544 2.181369,2.51719 2.172349,2.537456 2.166255,2.542727 2.160165,2.548117 2.15255,2.562979 2.15255,2.56294 l 0.00752,0.012146 c 0.00477,-0.00179 0.00957,-0.0036 0.014382,-0.00548 0.00353,-0.00578 0.00711,-0.011559 0.010638,-0.017441 0.006,-0.0023 0.011913,-0.00457 0.017913,-0.00687 -9.606e-4,-0.00466 -0.00193,-0.00938 -0.00284,-0.014055 3.74e-4,-0.00572 8.307e-4,-0.01148 0.00123,-0.017248 0.00469,-0.00693 0.00941,-0.013874 0.014118,-0.02089 z" />
    <path
   id="_510586936"
   class="fil3"
   d="m 2.47117,2.5127 c 0.006,-0.00256 0.022681,0.00357 0.026524,0.010614 0.00381,0.00709 0.00546,0.00922 0.013795,-0.00302 C 2.519969,2.507955 2.512639,2.503798 2.533351,2.493432 2.554162,2.483054 2.5618,2.472428 2.537651,2.471089 2.513505,2.469539 2.517037,2.466539 2.49971,2.465019 2.482395,2.463499 2.469017,2.476724 2.466403,2.468789 c -0.00266,-0.00783 0.02685,-0.018965 0.02689,-0.018965 1.58e-5,0 0.020539,-0.019394 0.00436,-0.013965 -0.016315,0.00546 -0.047071,0.00798 -0.032406,0.00176 0.014575,-0.00624 -0.011642,-0.00728 -0.011591,-0.0073 L 2.447886,2.41889 c 0,0 -0.023016,0.00207 -0.01861,-0.00295 0.00431,-0.00495 -0.019563,-0.00103 -0.015031,-0.00452 0.00468,-0.00354 0.00807,-0.014343 0.00444,-0.012847 -0.00361,0.00156 -0.027496,-0.00251 -0.042839,0.0055 -0.015264,0.00803 -0.00377,0.023579 0.0022,0.021098 0.006,-0.00255 0.015587,0.00119 0.015587,0.00119 L 2.377176,2.434831 2.349219,2.449599 c 0.00266,-0.00416 0.00531,-0.00839 0.00793,-0.012598 0.00262,-0.00477 0.00524,-0.00942 0.0078,-0.014161 L 2.363209,2.412541 c -0.00747,0.00369 -0.014937,0.0073 -0.022315,0.010925 -0.00623,0.00308 -0.012417,0.00619 -0.018602,0.00929 l -0.01187,0.011169 c 0.00252,-0.00677 0.00509,-0.013614 0.0077,-0.020457 -0.0044,0.00601 -0.00881,0.012012 -0.013158,0.017988 -0.00417,0.00503 0.00348,0.046724 -0.00118,0.048465 C 2.299194,2.491831 2.28765,2.476515 2.28765,2.476515 c 0,0 0.00769,-0.012327 0.00921,-0.017653 0.00151,-0.00528 -0.014807,-0.012677 -0.014807,-0.012701 -0.0082,0.010106 -0.016264,0.020157 -0.02428,0.030095 -0.00468,0.0055 -0.0094,0.011028 -0.014028,0.016461 6.89e-4,0.00581 0.00141,0.011701 0.00215,0.017484 0.00693,-0.00225 0.013839,-0.00448 0.02085,-0.00676 -0.00682,0.00522 -0.013614,0.010508 -0.020339,0.015677 l 0.00311,0.00937 c 0.00564,-0.00225 0.011315,-0.00447 0.017043,-0.00679 0,-1.58e-5 0.026122,-0.00447 0.045736,-0.012484 0.019653,-0.00802 0.038346,-0.015823 0.038346,-0.015823 0.00294,-0.00473 0.00587,-0.00947 0.00881,-0.014248 -5.12e-5,3.93e-5 0.026437,-3.898e-4 0.030835,0.00985 0.00431,0.010209 0.021866,0.00879 0.023512,0.018484 0.00169,0.00972 -0.00426,0.019508 -0.014571,0.025394 -0.010354,0.00577 -0.014846,0.029488 -0.014846,0.029449 0,-1.18e-5 3.229e-4,0.00856 -0.00783,0.011925 -0.00816,0.00339 -0.024382,0.00286 -0.029606,0.00782 -0.00527,0.00507 -0.015949,0.013677 -0.015898,0.013677 -5.12e-5,1.181e-4 -0.017512,0.029917 -0.005,0.024902 0.012469,-0.00512 0.0083,-0.00768 0.016264,-0.010898 0.00789,-0.00318 0.039591,-0.02615 0.046153,-0.00474 0.00647,0.021406 0.022913,0.015858 0.030201,0.014303 0.00723,-0.00163 0.029366,0.00176 0.028626,-0.00216 -7.244e-4,-0.00391 0.017567,-0.00865 -9.055e-4,-0.019185 -0.018512,-0.010653 -0.010224,-0.02124 1.811e-4,-0.01285 0.010457,0.00834 0.022551,0.011677 0.027409,-0.00443 0.00486,-0.016224 0.020756,-0.021591 0.0032,-0.032811 -0.017366,-0.011287 -0.018563,-0.018157 -0.018563,-0.018071 -3.94e-5,0 0.00651,-0.014508 0.012563,-0.017107 z" />
    <path
   id="_510587128"
   class="fil3"
   d="M 2.54857,2.78954 C 2.528267,2.799 2.528318,2.79896 2.528318,2.79896 l 0.00169,0.00187 c 0,0 -0.014976,0.014976 -0.019835,0.028228 C 2.505353,2.842255 2.499858,2.851908 2.492118,2.8574 2.484468,2.863 2.479917,2.893097 2.479917,2.89303 c 5.51e-5,-1.18e-5 -1.26e-4,6.69e-5 0.028098,-0.010898 0.02828,-0.011055 0.040138,-0.023201 0.040102,-0.023201 l 0.0048,0.00925 c 0.00455,7.008e-4 0.00917,0.00137 0.013744,0.00202 1.18e-5,-1.18e-5 0.00853,-0.00334 0.012654,-0.0087 0.00413,-0.00537 0.00375,-0.012716 0.00375,-0.012716 l -0.00375,-0.00472 c -10e-4,-0.00425 -0.00193,-0.00841 -0.00289,-0.01263 -5.472e-4,-0.00437 -0.0011,-0.00879 -0.00165,-0.013209 0,0 -0.015028,-0.00147 -0.022732,0.00535 -0.00774,0.0069 -0.012327,0.00369 -0.012327,0.00369 0.00212,-0.00416 0.00422,-0.00837 0.00636,-0.012598 1.57e-5,0 -0.013598,0.00138 -0.018457,0.00437 C 2.534549,2.812778 2.566068,2.781314 2.54856,2.78955 Z" />
    <path
   id="_510586792"
   class="fil3"
   d="M 2.18779,2.39105 C 2.1931,2.3884 2.198377,2.38566 2.203731,2.38306 L 2.208691,2.38923 2.220644,2.38604 C 2.2199551,2.38031 2.219314,2.374544 2.218574,2.368788 2.214184,2.3677998 2.209834,2.366828 2.205428,2.365818 2.201168,2.367548 2.196858,2.369248 2.192593,2.370988 2.185503,2.375478 2.178487,2.379898 2.17142,2.384338 2.17601,2.3841451 2.1805,2.3840152 2.185034,2.383901 Z" />
    <path
   id="_510587320"
   class="fil3"
   d="M 2.18027,2.45844 C 2.1871,2.45579 2.195991,2.45703 2.197093,2.45025 c 0.00114,-0.00676 0.00197,-0.015083 0.00197,-0.015083 7.284e-4,-0.00454 0.00146,-0.00911 0.0022,-0.01374 -0.00646,9.448e-4 -0.012835,0.00191 -0.019291,0.0028 l 9.646e-4,0.010874 c 0,1.18e-5 -0.00243,0.01852 -0.00477,0.013067 -0.00238,-0.0055 -0.00569,-0.021811 -0.00848,-0.017472 -0.00288,0.00435 -0.011819,0.020602 -0.011768,0.020551 0.00215,0.00453 0.0043,0.00895 0.00642,0.013406 0,0 0.00916,-0.00355 0.015937,-0.00622 z" />
    <path
   id="_510587368"
   class="fil3"
   d="m 2.11433,2.53636 c 0.00508,0.00117 0.010118,0.00234 0.015252,0.00354 1.18e-5,-1.18e-5 -0.00357,0.016457 0.00968,0.011469 0.013287,-0.00495 0.011457,-0.013378 0.011457,-0.013378 0,5.12e-5 0.016169,-0.00911 0.021484,-0.012705 0.00533,-0.0035 -0.00247,-0.023524 -0.00252,-0.023587 l 0.01013,-0.00393 c -3.94e-5,0 0.010626,-0.019653 0.00687,-0.026059 -0.00381,-0.0064 -0.015807,0.012488 -0.021484,0.014618 -0.00564,0.00219 -0.016913,0.00644 -0.016913,0.00644 l -0.00857,0.01102 c -3.661e-4,0.00586 -6.889e-4,0.011653 -0.00106,0.017354 0,0 0,0 -0.011276,-0.00186 -0.01126,-0.002 -0.013055,0.017079 -0.013055,0.017079 z" />
    <path
   id="_510587056"
   class="fil3"
   d="M 3.24374,1.9112 C 3.217291,1.91903 3.196665,1.928609 3.19039,1.931633 3.18411,1.934563 3.158217,1.943964 3.155331,1.944952 3.152631,1.9458851 3.169087,1.934208 3.155516,1.931299 l -0.00352,-8.071e-4 2.717e-4,-3.898e-4 -0.00807,-0.00798 -0.00998,-5.315e-4 -0.00985,-0.00539 -0.015547,0.00663 -0.013693,7.244e-4 -0.014898,-5.984e-4 -0.011823,0.0089 -0.00274,-0.00459 -0.00931,0.00367 c -0.00476,9.212e-4 -0.00963,0.00176 -0.014394,0.00266 l -0.00861,0.00513 -1.772e-4,-0.00104 -0.00806,0.00224 -0.011457,0.00619 c -0.0045,0.00198 -0.00908,0.00392 -0.013524,0.00587 l -0.00344,-0.00277 c -0.00412,7.283e-4 -0.00834,0.00143 -0.012512,0.00219 -0.00421,0.00315 -0.00843,0.00638 -0.012559,0.00957 l -0.00769,0.00556 -0.00528,-0.0021 c -0.0055,0.00201 -0.011039,0.00407 -0.016587,0.00605 l -0.00486,0.00815 -0.00375,-0.00211 c -0.00444,0.00146 -0.0089,0.00291 -0.013339,0.00434 l -0.00687,0.00832 -0.010118,0.010118 -0.00702,-2.323e-4 c -0.00486,0.0022 -0.00972,0.00443 -0.014571,0.00666 l -0.00546,3.268e-4 c -0.00352,0.00486 -0.00705,0.0097 -0.010587,0.014508 l -0.00578,0.00167 -0.0076,0.00643 -0.00962,0.00313 -0.0027,-0.00236 -0.01026,0.00975 c -0.00491,0.00311 -0.00981,0.00622 -0.014665,0.00938 -0.00303,0.00525 -0.006,0.010622 -0.00899,0.015949 -0.00493,0.00273 -0.0099,0.00548 -0.014886,0.00824 0,0 0.011642,-0.010468 -0.015768,4.685e-4 -0.027264,0.011028 -0.045047,0.018276 -0.052559,0.021276 -0.00746,0.00309 -0.028913,0.020213 -0.030382,0.024303 -0.00141,0.0042 -0.020811,0.013406 -0.020756,0.013406 -2.244e-4,0 -0.076122,0.050673 -0.059988,0.047453 0.015992,-0.0032 0.02402,0.00628 0.00298,0.015134 -0.021071,0.00894 -0.039177,0.031721 -0.066118,0.043177 -0.026941,0.011472 -0.04148,0.035087 -0.017457,0.024799 0.024106,-0.010252 0.053284,-0.020409 0.053335,-0.020409 -2.205e-4,3.94e-5 -0.064248,0.044634 -0.036437,0.039516 0.027732,-0.00502 0.022874,4.016e-4 0.043583,-0.00843 0.020807,-0.0089 0.024016,-0.027268 0.048528,-0.025268 0.024433,0.00198 0.028823,-0.00213 0.031811,0.012236 0.00298,0.014315 0.015343,0.025488 0.0076,0.039673 -0.00774,0.014181 -0.024835,0.023783 -0.024835,0.023783 5.12e-5,1.18e-5 -0.00247,0.016252 0.01461,0.00667 0.017201,-0.00956 0.027268,-0.027941 0.02924,-0.021252 0.00203,0.00673 0.015992,0.021071 0.015992,0.021071 1.58e-5,0 -0.018965,-0.00144 -0.029094,0.00293 -0.010173,0.00434 -0.022268,0.014953 -0.010315,0.016197 0.011921,0.00128 0.031811,-0.00418 0.034606,-0.00537 0.00279,-0.0012 -0.00247,0.015913 -0.00972,0.020098 -0.00729,0.00419 -0.031488,0.02524 -0.031488,0.02524 0,-2.75e-5 -0.021535,0.024161 -0.015713,0.047504 0.00574,0.023197 0.00949,0.027626 0.01261,0.040472 0.00316,0.012862 0.00105,0.039764 0.010626,0.043543 0.00959,0.00381 0.011095,0.011988 0.025669,0.00965 0.01452,-0.00236 0.023783,-0.00736 0.026524,-0.0086 0.00285,-0.00119 0.00591,0.00441 0.011689,0.00783 0.00578,0.00333 0.011366,9.212e-4 0.027539,-0.00609 0.00435,-0.00582 0.00876,-0.01163 0.013146,-0.0175 0.00524,-0.010091 0.013394,-0.032488 0.013394,-0.032488 0,0 0.00861,-0.014626 0.00526,-0.021248 -0.00329,-0.00655 -1.299e-4,0.00508 0.016862,-0.015354 0.017016,-0.020437 0.020575,-0.024031 0.018835,-0.033323 -0.00182,-0.00935 -0.00669,-0.013378 -0.0028,-0.015024 0.00386,-0.00169 0.00867,-0.01502 0.02424,-0.021681 0.015638,-0.0068 0.00972,0.00697 0.039827,-0.01928 0.030201,-0.026173 0.030059,-0.027134 0.044268,-0.042409 0.014161,-0.015291 3.268e-4,-0.014524 0.020484,-0.027177 0.020217,-0.012677 0.018512,-0.00994 0.039595,-0.023874 0.021083,-0.014004 0.028732,-0.024315 0.03785,-0.028094 0.00903,-0.00377 0.040595,-0.030153 0.069331,-0.048854 0.028823,-0.01876 0.023185,-0.014409 0.018106,-0.012343 -0.00509,0.002 -0.047205,0.010784 -0.05939,0.014768 -0.012236,0.0039 0.00834,-0.016795 0.00829,-0.01674 1.18e-5,0 0.014303,-0.013992 0.016823,-0.00778 0.00248,0.00618 0.00806,0.011067 0.026213,0.00382 0.018146,-0.00734 0.029551,-0.014835 0.016858,-0.020992 -0.012508,-0.00626 -0.011496,-0.00669 -0.020028,-0.01048 -0.00852,-0.00383 -0.010299,-0.00213 -0.022315,-0.00254 -0.011913,-4.527e-4 -0.02424,-0.00288 -0.019291,-0.00476 0.005,-0.00204 0.016173,-0.00956 0.032031,-0.015669 0.015772,-0.00615 0.02076,-0.00808 0.028681,-0.011067 0.00794,-0.00305 0.020173,-0.00166 0.01976,-0.00764 -2.756e-4,-0.00387 -0.0066,-0.00458 -0.012094,-0.00418 0.00729,-0.00207 0.018146,-0.00618 0.024094,-0.012575 0.010224,-0.010976 0.019524,-0.020449 0.00582,-0.015421 -0.013693,0.00511 0.00944,-0.01365 0.0094,-0.013622 0,-1.18e-5 0.00737,-0.016902 -0.012976,-0.00957 -0.020342,0.00744 -0.037437,0.00127 -0.014299,-0.00716 0.023236,-0.00835 0.03863,-0.017772 0.03337,-0.01798 -0.00531,-1.378e-4 -0.034606,-0.00115 -0.034606,-0.00118 -3.93e-5,3.93e-5 -0.00211,-0.00564 0.030839,-0.027213 0.03272,-0.021264 0.036437,-0.037319 0.044776,-0.039992 0.00839,-0.00264 0.014795,-0.00863 0.026484,-0.013122 0.011642,-0.00451 0.017043,-0.012976 0.017043,-0.012976 1.18e-5,3.93e-5 -0.00114,-0.00759 -0.027433,1.531e-4 z" />
    <path
   id="_510587008"
   class="fil3"
   d="M 3.20803,2.20498 C 3.195703,2.21492 3.195664,2.211 3.184152,2.215669 3.172656,2.220379 3.167475,2.222489 3.161148,2.229086 3.154958,2.235646 3.145703,2.24044 3.137416,2.243909 3.129076,2.247319 3.132556,2.238849 3.123857,2.236489 3.115157,2.233979 3.082794,2.263521 3.08829,2.267312 c 0.00555,0.00368 0.017366,-0.00831 0.031941,-0.01435 0.014575,-0.00603 -6.378e-4,0.00627 -0.00376,0.00757 l -0.021264,0.01998 c 0.00876,-0.00169 0.017591,-0.00343 0.026488,-0.00516 -0.00367,0.00517 -0.00729,0.010339 -0.010949,0.015587 0,-1.18e-5 0.020705,-0.00967 0.025976,-0.00791 0.00522,0.0018 0.021358,5.51e-5 0.03098,-0.00397 C 3.177272,2.275019 3.187954,2.270619 3.187903,2.266681 3.1878636,2.262691 3.210415,2.24648 3.228057,2.237311 3.245655,2.228051 3.257061,2.204772 3.257061,2.204835 3.250371,2.192796 3.220171,2.195085 3.208026,2.2049809 Z" />
    <path
   id="_510586024"
   class="fil3"
   d="m 2.21089,2.45117 c 0,0 0.013469,-0.007 0.018366,-0.00733 0.00491,-4.409e-4 0.014717,-0.00752 0.014717,-0.00752 0,-1.57e-5 3.661e-4,-0.017681 -0.0054,-0.015358 -0.00582,0.00233 -0.017965,0.010394 -0.017965,0.010394 -0.00321,0.00664 -0.00651,0.013236 -0.00972,0.019811 z" />
    <path
   id="_510586552"
   class="fil3"
   d="m 2.27747,3.4494 c 0,0 -0.024847,-0.010976 -0.056595,-0.018626 -0.031799,-0.00769 -0.031906,-0.00135 -0.040374,-0.00521 -0.00843,-0.00379 -0.0077,-0.00504 -0.019976,-4.567e-4 -0.012146,0.00456 -0.022406,0.015795 -0.02585,0.02198 -0.00339,0.00614 -0.00132,0.00968 -0.00132,0.00968 0.00284,-8.307e-4 0.021847,-0.01763 0.027953,-0.01837 0.00606,-7.008e-4 0.00535,0.0078 0.013055,0.00557 0.0077,-0.0022 0.018925,-0.00326 0.024146,4.292e-4 0.00533,0.00369 0.014303,-0.00512 0.014303,-0.00512 l 0.00656,0.011752 0.010898,0.00109 -3.622e-4,0.00954 c -0.0027,0.00175 0.033594,-0.00103 0.047567,-0.012264 z" />
    <path
   id="_510586528"
   class="fil3"
   d="M 3.14269,3.79079 C 3.131363,3.778644 3.14575,3.766719 3.127285,3.76864 3.109005,3.77058 3.11588,3.77831 3.088289,3.7690298 3.060935,3.7597598 3.0481,3.7519468 3.040864,3.7490418 c -0.00729,-0.00294 -0.032031,-0.016512 -0.04248,-0.016177 -0.010547,4.173e-4 -0.015039,9.37e-4 -0.026118,0.00238 -0.011095,0.00135 -0.019614,0.00606 -0.028646,0.00351 -0.00893,-0.00252 -0.027721,-0.012665 -0.042528,0.00626 l -0.00509,0.00703 c -0.00113,-0.00535 -0.00301,-0.013661 -0.00513,-0.019134 -0.00325,-0.00844 -0.00444,-0.00832 -0.024606,-0.012638 -0.020209,-0.00434 -0.032122,-0.00786 -0.042165,-0.00908 -0.00997,-0.0012 -0.017587,0.00342 -0.020614,0.00913 l -0.00398,0.0067 c 0.00206,-0.00435 0.00335,-0.00969 1.417e-4,-0.014004 -0.00642,-0.0087 -0.013941,-0.00662 -0.02072,-0.00563 -0.00681,0.00102 -0.022768,0.00176 -0.022728,0.00176 -3.94e-5,-3.94e-5 -0.012602,-0.00669 -0.0027,-0.012484 0.00999,-0.00587 0.011315,-0.00781 0.00725,-0.015732 -0.00399,-0.00798 0.00223,-0.00213 -0.014173,-0.00805 -0.016213,-0.00585 -0.011405,-0.00918 -0.017551,-0.017496 -0.00604,-0.00834 -0.017874,-0.021421 -0.017874,-0.021421 l -0.00801,-0.00282 -0.00325,-0.00105 c -1.456e-4,-9.06e-5 -0.038413,-0.014721 -0.046244,-0.013161 l -0.00307,3.385e-4 c -0.00811,4.174e-4 -0.019795,-0.00183 -0.030472,2.481e-4 -0.012146,0.00235 -0.020669,0.00403 -0.020669,0.00403 l -0.00197,-0.00111 c -0.00531,-0.00317 -0.020122,-0.011417 -0.025343,-0.0097 -0.00651,0.00207 -0.021354,-0.025421 -0.033358,-0.021992 l -0.0012,2.599e-4 c -0.011728,0.00285 -0.024874,-2.599e-4 -0.024874,-2.599e-4 0,0 0.011728,-0.011276 0.00541,-0.014614 -0.00637,-0.00338 -0.00591,4.567e-4 -0.01802,-0.00235 -0.012091,-0.00283 -0.030461,-0.00491 -0.017079,-0.00794 0.013327,-0.00306 0.00952,-0.00452 0.00952,-0.00452 -0.012094,0.00113 -0.024059,0.00238 -0.035917,0.00351 0,0 -0.00458,0.011264 -0.01022,0.014106 -0.00569,0.00286 -0.013614,-0.00618 -0.02424,-0.00367 -0.010496,0.00251 -0.00963,0.00765 -0.019433,0.010028 -0.00963,0.00228 -0.011602,-0.00646 -0.011602,-0.00646 1.58e-5,0 -0.00453,-0.00661 -0.00966,-0.00534 -0.00522,0.00126 -0.017638,0.00431 -0.022732,0.0056 -0.00513,0.00126 -0.020614,0.016551 -0.011405,0.023512 0.00921,0.00692 0.017224,0.015055 0.00994,0.016811 -0.00729,0.00178 -0.015902,0.00156 -0.018043,-0.00795 -0.00221,-0.00939 0.00659,-0.018508 3.15e-4,-0.023811 l -0.00531,-0.00575 0.00221,-0.00409 0.00783,-0.00734 c 0,0 0.00435,-0.00871 -0.00514,-0.00402 -0.00939,0.00467 -0.00939,0.00467 -0.012366,0.00999 -0.00303,0.00531 -0.00454,0.010287 -0.011693,0.012079 -0.00709,0.00184 -0.00838,0.00518 -0.00798,0.00893 l -0.00256,0.00674 c 0,0 -0.00606,-0.01213 -0.00899,-0.00683 -0.00293,0.00531 -0.014709,0.00915 -0.012315,0.016925 0.00238,0.00776 0.00582,0.019146 0.00582,0.019146 0,0 -0.019252,0.00648 -0.015823,0.017929 0.00344,0.011429 -0.00563,0.02152 -0.00563,0.02152 3.93e-5,-1.18e-5 0.00912,-0.024811 -0.00578,-0.029315 -0.014937,-0.00448 -0.013654,-0.0079 -0.024563,-0.00416 -0.010858,0.00369 -0.00861,0.013784 -0.016224,0.015858 l -0.00572,0.00298 c -0.00293,0.00174 -0.0061,0.0026 -0.017327,-0.00279 -0.015394,-0.00733 -0.015862,-0.006 -0.017638,-0.012067 l -0.012094,-0.00425 c -0.00321,9.37e-4 -0.00409,-0.00134 -0.010224,4.015e-4 -0.00578,0.00168 -0.015264,0.00152 -0.016315,0.00352 0.00325,0.00795 0.00856,0.022488 0.020524,0.022461 0.016315,-2.75e-5 0.015122,0.00105 0.021083,0.00631 0.006,0.00522 0.00898,0.00517 0.016587,0.00307 0.00756,-0.00213 0.020071,-1.181e-4 0.021953,0.00635 0.00193,0.00639 0.018693,0.0073 0.012965,-0.00199 -0.00302,-0.00486 -0.00577,-0.00531 -0.00696,-0.00566 l -6.378e-4,-8.307e-4 0.00183,-0.00278 c 0.00481,-0.00667 0.00468,-0.00967 0.00769,-0.012079 0.00308,-0.00234 0.011744,-0.00856 0.016461,-0.00283 0.00468,0.00567 0.00687,0.012835 0.00797,0.016445 0.00105,0.00357 0.00916,0.00534 0.012043,0.010016 0.00294,0.00455 0.014626,0.048051 0.015535,0.051114 8.819e-4,0.00292 0.00542,0.01772 -0.00292,0.02311 -0.00834,0.00533 -0.012146,0.00551 -0.00894,0.013614 0.0032,0.00805 0.00604,0.00484 0.0032,0.00806 l -9.173e-4,0.00118 -0.00682,0.01135 c -0.00353,9.134e-4 -0.012559,0.00156 -0.0061,0.01298 0.00651,0.011429 0.00147,0.015232 5.12e-5,0.018079 -0.00147,0.00283 -0.0039,0.00512 2.717e-4,0.016512 0.00413,0.011378 0.00733,0.024874 0.016496,0.019106 0.00912,-0.00572 0.00477,0.00803 0.00472,0.013173 l -0.00421,0.00576 c -0.00207,0.00387 -0.00308,0.011768 0.00325,0.032965 0.00143,0.00482 -0.00399,0.018433 0.00968,0.019201 0.01361,9.488e-4 0.021898,0.00496 0.034228,0.019524 0.012417,0.01461 0.024744,0.028665 0.032484,0.04585 0.0077,0.017173 0.026945,0.029335 0.034555,0.037752 0.00756,0.00848 0.013705,0.017287 0.013705,0.017287 0,-1.18e-5 0.00691,0.014394 0.025654,0.023472 0.018795,0.00916 0.03085,0.01524 0.041386,0.018732 0.010406,0.00363 0.02663,-0.00155 0.035512,0.00725 0.00894,0.00872 0.02085,0.020992 0.026398,0.02189 l 0.00348,0.00147 c 0.0045,0.00278 0.00876,0.00798 0.00908,0.00485 2.717e-4,-0.00434 0.035279,0.077693 0.045031,0.105961 0.00926,0.027224 0.044232,0.113232 0.044362,0.113594 -3.93e-5,-1.299e-4 0.024472,0.044709 0.015587,0.04002 -0.00899,-0.00469 0.00865,0.014575 0.013602,0.0235 0.00487,0.00887 0.00619,0.00749 0.01265,0.026043 0.00642,0.018614 0.017823,0.046476 0.021122,0.055976 0.00317,0.00935 0.017185,0.055618 0.017236,0.055709 0,-1.18e-5 -0.012874,6.614e-4 8.701e-4,0.016083 0.013654,0.015394 0.03189,0.021642 0.035516,0.034839 0.00357,0.013209 -0.00367,0.028083 0.00876,0.039256 0.012417,0.01113 0.014067,0.029925 0.020248,0.028382 0.00615,-0.00162 0.00252,0.010091 0.010862,0.026098 0.00839,0.015874 0.014158,0.021587 0.016169,0.016197 0.00203,-0.00541 -0.00609,-0.017744 -0.011221,-0.029669 -0.00499,-0.011858 -0.00921,-0.023937 -0.00367,-0.021799 0.00555,0.00221 0.014795,0.017811 0.016315,0.022201 0.00156,0.00437 0.00789,0.017094 0.014201,0.029917 0.00632,0.012768 0.010858,0.028551 0.010858,0.028563 -6.772e-4,0.00463 -0.00136,0.00931 -0.00196,0.013949 0,0 -0.010768,-0.00309 -0.00803,0.00483 0.00271,0.00781 0.00491,0.025709 0.00491,0.025709 0,-1.18e-5 0.015354,-0.00334 0.021031,-0.00378 0.00564,-4.331e-4 0.012874,-0.00495 0.013976,-0.0016 0.00115,0.00328 7.796e-4,0.021886 -0.00363,0.023236 -0.00439,0.00129 -0.00398,0.022409 -0.00398,0.022409 1.18e-5,0 0.017835,0.020732 0.024106,0.024913 0.00629,0.00425 0.024421,0.017031 0.026358,0.022665 l 9.06e-5,3.779e-4 c 8.661e-4,5.984e-4 0.00306,0.00288 0.0081,0.00933 0.013941,0.017835 0.02324,0.022071 0.02324,0.022071 0,0 0.00357,-0.0037 0.00981,0.00288 0.00615,0.00651 0.017134,0.010118 0.017134,0.010118 l 0.00651,0.00757 0.012744,0.00288 0.02676,0.012472 c 0.00353,-0.00125 0.016626,-0.00585 0.025161,-0.00405 0.00838,0.00185 0.022083,0.00181 0.027394,2.36e-5 0.00437,-0.00153 0.020394,-0.00607 0.02585,-0.00763 l 0.00187,-4.527e-4 0.00964,-0.00652 c 0.00265,-7.953e-4 0.00939,-0.00415 0.014146,-0.00448 0.00482,-3.504e-4 0.014717,-0.00334 0.014717,-0.00334 0.00486,-0.00406 0.00981,-0.00808 0.014756,-0.012106 -0.00499,1.57e-5 -0.049035,0.018445 -0.084134,-0.00973 C 3.0327182,4.857778 3.0490732,4.865522 3.0281322,4.853105 3.0070612,4.840554 2.9934472,4.832566 3.0043492,4.827109 c 0.011004,-0.00536 0.011961,1.969e-4 0.00747,-0.018354 -0.00439,-0.018484 -0.00802,-0.023248 -0.00151,-0.027201 0.00655,-0.00394 0.012004,0.00611 0.00361,-0.018079 -0.00838,-0.024161 -0.015433,-0.021461 -0.025476,-0.019083 -0.00998,0.00234 -0.020248,0.00135 -0.030016,-0.012524 -0.0097,-0.013846 -0.011913,-0.028409 1.417e-4,-0.033264 0.012055,-0.00495 0.010405,-0.018083 0.00857,-0.023358 -0.00188,-0.0052 -0.014571,-0.00495 -0.00669,-0.018874 0.00798,-0.013909 0.017496,-0.017795 0.00504,-0.02215 -0.012512,-0.0044 -0.028787,-1.535e-4 -0.03263,-0.00834 -0.0039,-0.00819 -0.034555,-0.022535 -0.012106,-0.025665 0.022547,-0.00302 0.035524,0.00802 0.03872,-0.00244 0.00317,-0.010433 0.00752,-0.012213 -0.0031,-0.022461 -0.010681,-0.010248 -0.031905,-0.025354 -0.022555,-0.026878 0.00921,-0.00157 0.058378,-0.00131 0.066354,-0.019146 0.00775,-0.017913 0.00683,-0.026134 0.00248,-0.038177 C 2.9982919,4.479048 2.9934419,4.482745 2.9812459,4.47167 2.9691119,4.460536 2.9927929,4.455717 2.9745559,4.450485 2.9564099,4.445275 2.9429379,4.446895 2.9390949,4.439001 l 5.985e-4,-0.00446 c 0.0033,-0.00103 0.011949,8.583e-4 0.025563,0.00148 0.020626,7.795e-4 0.027358,0.013535 0.043035,0.00573 0.015807,-0.00778 0.026342,-0.00768 0.029878,-0.01815 l 2.322e-4,-8.543e-4 c 0.00297,-0.011213 -0.00184,-0.040961 -0.00478,-0.05448 -0.00298,-0.013847 2.323e-4,-0.031087 2.323e-4,-0.031087 0,0 0.01013,0.00426 0.00926,0.016315 -8.307e-4,0.012134 0.0048,0.00167 0.00637,-0.017445 0.00156,-0.019031 -0.00276,-0.024732 0.0081,-0.036228 0.011004,-0.011587 0.012146,-0.014614 -0.00192,-0.028591 -0.013925,-0.013937 -0.034866,-0.026343 -0.027177,-0.037669 0.0077,-0.011224 0.019488,-0.032437 0.025709,-0.039618 0.0061,-0.00715 0.027551,-0.030685 0.042984,-0.029472 0.01526,0.00114 0.049035,5.826e-4 0.049177,-0.00235 9.06e-5,-0.00293 -0.014717,-0.013886 4.055e-4,-0.014587 0.015134,-6.496e-4 0.013882,-0.00735 0.013882,-0.00735 -0.00136,-0.00869 -0.00265,-0.017394 -0.00393,-0.026008 -3.94e-5,-1.18e-5 0.00683,-0.016847 0.00393,-0.024406 -0.00288,-0.00759 -0.00466,-0.015264 -0.0087,-0.025709 -0.00403,-0.010394 0.00628,-0.009 0.00198,-0.023252 -0.00426,-0.014315 -0.02511,-0.070728 -0.033142,-0.091071 -0.00805,-0.020445 0.00867,-0.0092 0.014122,-0.0048 0.00546,0.00441 -0.00239,-0.0027 0.00183,-0.017339 0.00413,-0.014665 -9.606e-4,-0.018122 0.00129,-0.024902 0.00234,-0.00689 0.0093,-0.011213 0.020433,-0.021681 0.011095,-0.010402 0.020445,-0.022705 0.011508,-0.044996 C 3.1610167,3.8138054 3.1540443,3.8029865 3.14269,3.79079 Z" />
    <path
   id="_510586264"
   class="fil3"
   d="M 4.74583,3.93559 C 4.731204,3.917248 4.733039,3.92721 4.733039,3.92721 c 0,-1.19e-5 -0.00459,0.018862 -0.0049,0.026472 -4.174e-4,0.00757 -0.00399,0.00769 -0.011929,0.017941 -0.00783,0.01039 -0.012909,0.014342 -0.019508,0.024732 -0.00665,0.01039 -0.024941,0.00846 -0.030256,0.016303 -0.00535,0.00787 -0.022949,0.014819 -0.029732,0.024083 -0.00674,0.00934 -0.00446,0.011807 -0.00573,0.030071 -0.00128,0.018366 0.00234,0.019508 0.00861,0.035126 0.00638,0.015701 -0.00683,0.00944 -0.016732,0.027094 -0.010028,0.017653 -0.012236,0.013716 -0.019653,0.030098 -0.00756,0.016417 0.00238,0.017472 0.00696,0.022716 0.00459,0.00525 -0.00119,0.014965 -0.00467,0.027409 -0.00348,0.012457 -7.795e-4,0.00961 0.012976,0.025709 0.01374,0.016169 0.026252,-8.582e-4 0.035047,-0.00115 C 4.662232,4.2335423 4.674369,4.220747 4.674369,4.220747 4.69496,4.166007 4.714885,4.11279 4.734082,4.060948 l 0.00156,-0.00386 c -0.0016,-0.015638 -0.00228,-0.024602 0.00981,-0.024992 0.012146,-3.268e-4 0.00426,-0.010354 0.00426,-0.010354 0,-1.18e-5 -0.00463,-0.00374 -0.00508,-0.017795 -4.134e-4,-0.014083 0.011862,0.00477 0.01563,0.00216 0.00381,-0.00268 0.00339,-0.018043 0.00196,-0.038268 C 4.760812,3.947741 4.760572,3.954016 4.745828,3.935583 Z" />
    <path
   id="_510586504"
   class="fil3"
   d="M 1.99853,2.51889 C 2.0071,2.51448 2.040644,2.50902 2.02877,2.51469 2.016951,2.52037 2.008014,2.528044 2.011676,2.52832 2.015356,2.5286428 2.032357,2.51968 2.044578,2.515367 2.056779,2.511037 2.062779,2.505737 2.069106,2.501871 2.075476,2.498041 2.100397,2.490466 2.100397,2.490466 c 0.00798,-0.00977 0.015902,-0.019602 0.023965,-0.0295 -0.0081,0.00196 -0.016224,0.004 -0.024331,0.00595 0,0 -3.622e-4,-0.01261 -0.00605,-0.010496 -0.00562,0.00208 -0.01278,0.019071 -0.013287,0.027173 -6.338e-4,0.00812 -0.026071,0.0079 -0.026071,0.00785 0.00444,-0.00315 0.00898,-0.00633 0.01352,-0.0096 -0.00966,3.228e-4 -0.019287,6.772e-4 -0.028913,9.488e-4 l 0.011913,-0.010535 -0.015992,0.00878 0.00216,-0.016626 c 0,0 -0.012433,0.00928 -0.021772,0.010858 -0.00678,0.00125 -0.012055,0.0036 -0.018795,0.00629 -0.00512,0.00787 -0.010303,0.015705 -0.015343,0.02363 l 0.00243,-0.00165 c 0.00637,-0.00365 0.018551,-0.00309 0.011496,0.00242 -0.00705,0.00552 -0.010819,0.00991 -0.014795,0.012819 -0.00413,0.00287 0.00952,0.00459 0.018004,1.182e-4 z" />
    <path
   id="_510586240"
   class="fil3"
   d="M 1.98405,2.55598 1.969396,2.540988 C 1.966676,2.539778 1.960266,2.545288 1.954081,2.549808 1.944921,2.56519 1.936022,2.580725 1.927361,2.59643 1.947298,2.581662 1.972861,2.568839 1.975203,2.567997 Z" />
    <polygon
   id="_510586120"
   class="fil3"
   points="2.31458,3.064 2.31623,3.06336 " />
    <path
   id="_510586048"
   class="fil3"
   d="M 5.09915,3.23221 C 5.09561,3.2343 5.09052,3.23606 5.083146,3.23642 5.089386,3.24436 5.095615,3.252306 5.101796,3.260243 5.1009296,3.2508517 5.10015,3.2415368 5.09915,3.23221 Z" />
    <path
   id="_510586216"
   class="fil3"
   d="M 2.14229,3.63421 2.1377,3.623454 c 0.00362,-3.228e-4 0.00385,-3.898e-4 0.00912,0.00341 0.00528,0.00377 0.00724,0.00551 0.013016,0.00764 0.00582,0.00217 0.011913,0.00292 0.010118,-0.00241 -0.00178,-0.00528 -0.00348,-0.00864 -0.00132,-0.018248 0.00216,-0.00965 -0.00265,-0.019331 -0.00201,-0.023996 6.338e-4,-0.00467 3.622e-4,-0.01226 3.622e-4,-0.01226 -0.00115,-0.00417 -0.00417,-0.00861 -0.00702,-0.012264 -0.00348,-0.0044 -0.00678,-0.00765 -0.00678,-0.00765 0,3.94e-5 -0.00655,-0.00486 -0.025346,0.00135 -0.018728,0.00609 -0.020575,0.012638 -0.027626,0.011 l -0.00289,-1.142e-4 c -0.00531,7.638e-4 -0.010677,0.00578 -0.00981,0.00229 l 0.00133,-0.00331 c 0.00509,-0.010406 0.00435,-0.00279 0.00665,-0.015303 0.00229,-0.01248 -9.606e-4,-0.00857 0.00265,-0.02148 0.0018,-0.00625 0.0029,-0.00865 0.00326,-0.010784 3.622e-4,-0.00225 -2.362e-4,-0.0043 -0.00193,-0.010185 -0.0033,-0.011547 -0.00207,-0.014807 4.567e-4,-0.021405 0.00248,-0.00661 0.00953,-0.020303 -0.00802,-0.015264 -0.017547,0.00512 -0.044177,0.012055 -0.040516,0.024965 0.00372,0.012886 0.00363,0.020252 -0.00183,0.026992 -0.0055,0.00677 -0.0072,0.010992 -0.00504,0.013319 0.00211,0.00233 0.00183,0.00905 -0.00696,0.00424 -0.00875,-0.00479 -0.012976,0.00904 -0.026681,0.013158 -0.013744,0.00411 -0.00838,-0.00861 -0.018043,-0.00573 -0.00968,0.00289 -0.00725,0.00364 -0.014079,-0.0047 -0.00682,-0.00833 -0.017043,-0.00973 -0.021342,-0.024744 -0.00426,-0.015095 -0.00537,-0.039878 -0.00794,-0.053882 -0.00261,-0.014071 0.0029,-0.015642 0.00206,-0.021252 l -5.039e-4,-0.00507 c -3.268e-4,-0.00519 -4.174e-4,-0.011587 -0.00151,-0.017276 -0.00151,-0.00768 -0.00326,-0.013858 0.0099,-0.022654 0.01311,-0.0089 0.00967,-0.00276 0.014665,-0.013717 0.00495,-0.011016 -0.010169,-0.009 0.011913,-0.015134 0.021953,-0.00618 0.019201,-0.00536 0.027354,-0.00769 0.00821,-0.0023 0.010913,-0.0082 0.017004,-0.0048 0.00619,0.00335 0.011134,0.00786 0.017004,3.386e-4 0.00586,-0.00757 0.00238,-0.014638 0.00238,-0.014638 0,0 -0.00976,-0.00828 0.016224,-0.0098 0.02589,-0.00155 0.021394,-0.017185 0.029697,-0.00851 0.00834,0.0086 0.01265,0.013248 0.017311,0.00672 0.00477,-0.00651 0.00203,-0.015953 0.00995,-0.00873 0.00792,0.00725 0.019524,0.00683 0.019055,0.012795 -4.922e-4,0.00596 4.173e-4,0.00647 0.00372,0.015756 0.00344,0.0093 0.00638,0.019409 0.014665,0.027996 0.00839,0.00857 0.015858,0.021744 0.020626,0.00501 0.00468,-0.016784 0.00631,-0.00844 1.811e-4,-0.030071 -0.00627,-0.021693 -0.013791,-0.037866 -0.014441,-0.039945 -5.473e-4,-0.00205 -0.015213,-0.019728 0.00284,-0.042173 0.018106,-0.022539 0.018886,-0.028059 0.029189,-0.036413 0.010406,-0.00843 0.010858,-0.00407 0.015677,-0.013768 0.00486,-0.00981 0.00297,-0.013799 0.00715,-0.015083 0.00417,-0.00131 0.00161,-0.00504 0.00513,-0.00616 l 0.00807,-0.00631 -0.00238,-0.00909 -0.00917,0.00286 0.010406,-0.00935 -0.00372,-0.00798 -0.00874,0.00119 c 0.00256,-0.00159 0.011134,-0.00658 0.00976,-0.011571 -0.00128,-0.00489 -0.00491,-0.018421 -0.00491,-0.018421 1.18e-5,0 -0.0043,-0.030386 0.00271,-0.007 0.00691,0.023256 0.00499,0.033035 0.011913,0.016197 0.00702,-0.016898 0.00307,-0.023378 0.00303,-0.023378 l 0.00783,5.591e-4 c -3.54e-5,0 0.012748,-0.022083 0.011189,-0.031059 -0.00152,-0.00891 -0.0033,-0.00672 0.011169,-0.013965 0.014575,-0.00726 0.020394,-0.015587 0.026213,-0.017598 0.00441,-0.00148 0.011327,-0.00387 0.014484,-0.00493 -0.00229,2.834e-4 -0.00577,-0.00133 -0.00169,-0.017094 0.00564,-0.022106 0.0097,-0.028524 0.019602,-0.034461 0.00986,-0.00595 0.01087,-0.015327 0.019941,-0.018591 l 0.0083,-0.00277 c 0.00564,-0.00189 0.00994,-0.00373 0.00921,-0.00688 l 0.00307,-0.00796 0.0077,-0.00598 c 0.00733,-0.00433 0.012417,-0.011181 0.017681,-0.014 0.00518,-0.00276 -0.016772,0.011299 -0.022409,0.02576 -0.00563,0.014468 0.00395,0.029835 0.012106,0.015402 0.0082,-0.014571 0.00669,-0.014 0.016681,-0.017689 0.01013,-0.0037 0.017276,-0.013031 0.024366,-0.015653 0.00707,-0.00261 0.021228,-0.016276 0.024382,-0.017484 0.00321,-0.0012 0.010134,-0.00885 0.017366,-0.019276 0.00729,-0.010421 0.00212,-0.013575 -0.00582,-0.0097 -0.00789,0.00391 9.646e-4,-0.014902 -0.00225,-0.013677 -0.00324,0.00127 -0.012272,0.011598 -0.011768,0.017327 5.078e-4,0.00577 -0.00752,0.00882 -0.00971,0.010508 -0.00225,0.00168 -0.00903,0.00594 -0.016461,0.007 -0.00746,0.00111 -0.019693,0.00322 -0.020252,-0.00251 -4.016e-4,-0.00574 -0.00261,-0.015122 0.00211,-0.020303 0.00482,-0.00525 0.005,-0.00446 0.00844,-0.011783 0.00348,-0.0073 0.016213,-0.026886 4.055e-4,-0.020823 -0.015756,0.00607 -0.02089,0.00204 -0.033866,0.012083 -0.012823,0.010067 -0.021535,0.022756 -0.027669,0.024992 -0.00344,0.00128 -0.010677,0.012756 -0.017236,0.022941 -0.0039,0.00605 -0.00752,0.01165 -0.010039,0.014563 l -0.00215,0.00196 c -0.00504,0.00266 -0.0093,-0.00165 -0.0093,-0.00165 0,0 0.00417,-0.00644 0.011445,-0.013339 0.00739,-0.00694 0.0088,-0.015055 0.016965,-0.022303 0.00825,-0.00739 0.00787,-0.00898 0.012728,-0.013327 0.00478,-0.00434 0.012331,-0.011535 0.012382,-0.011535 l 0.00971,-0.00886 c 0.00261,-0.00354 -7.401e-4,-0.010937 0.0055,-0.013291 0.0062,-0.0024 0.028591,-0.012756 0.038307,-0.015752 0.00973,-0.00282 0.025941,-0.012732 0.03098,-0.013823 0.005,-0.00106 0.018602,-0.00737 0.022772,-0.009 0.00409,-0.00163 0.00638,-0.00335 0.015535,-0.015 0.00917,-0.011693 0.00669,-0.014264 0.029839,-0.025358 0.023185,-0.011236 0.029331,-0.013744 0.029602,-0.025539 2.717e-4,-0.011886 0.00178,-0.018 -0.00165,-0.021157 -0.00348,-0.00317 -0.012653,0.0061 -0.014756,-0.00399 -0.00211,-0.010158 -0.00903,-0.0036 -0.017457,0.00448 -0.00838,0.00794 -0.014665,0.01689 -0.022189,0.019937 -0.00745,0.00303 -0.019795,-1.141e-4 -0.00622,-0.00839 0.013614,-0.00829 0.016626,-0.011378 0.025342,-0.017705 0.0088,-0.00631 0.00604,-0.00613 0.014197,-0.011339 0.00812,-0.0052 0.00783,-0.00687 -0.00559,-0.00507 -0.013378,0.0018 -0.00921,0.00467 -0.021445,0.00241 -0.012276,-0.00237 -0.023925,-0.0022 -0.022965,-0.010925 9.213e-4,-0.00882 0.00449,2.36e-5 0.00656,-0.016732 0.00215,-0.016547 -0.01998,-0.066756 -0.01998,-0.067039 0,7.87e-5 -0.00981,0.024496 -0.023055,0.0385 -0.013287,0.014106 -0.023138,0.021862 -0.025342,0.028449 -0.00219,0.00652 -0.00632,0.011988 -0.0099,0.00306 -0.00352,-0.00892 -0.00669,-0.00768 -0.010075,-0.00721 -0.00343,3.779e-4 -0.025295,0.00835 -0.00298,-0.014988 0.022457,-0.023591 0.011224,-0.014213 0.00966,-0.022213 -0.00154,-0.00804 -0.00838,-0.00724 -0.015665,-0.00426 -0.00729,0.003 -0.010728,-0.00141 -0.013102,-0.00926 -0.00234,-0.00782 -0.01128,-0.00907 -0.023748,-0.00201 -0.012457,0.00694 -0.020071,0.015858 -0.026343,0.014429 -0.00624,-0.00138 -0.026398,-0.00409 -0.025618,0.016031 7.441e-4,0.020071 -0.00807,0.022433 -0.00636,0.030472 0.0016,0.00794 0.00389,0.014587 -0.0039,0.017626 -0.00774,0.00299 -0.027319,0.023721 -0.013795,0.032555 0.013433,0.00879 0.014394,0.00935 0.013378,0.019823 -9.094e-4,0.01048 -0.0054,0.037968 -0.053335,0.067898 0,-1.58e-5 -0.00156,0.024472 0.00147,0.033787 0.00298,0.00941 0.00174,0.010752 -0.00528,0.018457 -0.00692,0.00763 -0.00393,0.013472 -0.011965,0.016287 -0.00801,0.00274 -0.00971,0.00852 -0.013705,-0.00126 -0.00393,-0.0098 -0.00636,-3.15e-4 -0.00691,-0.012303 -5.04e-4,-0.011925 -0.00701,-0.00611 0.00234,-0.019941 0.00934,-0.013783 -5.944e-4,-0.00589 0.00517,-0.018484 0.00573,-0.012689 0.00581,-0.019016 0.00215,-0.017689 l -0.036512,0.010165 c 0,0 -0.00647,-0.010232 -0.018161,-0.00623 -0.011626,0.00403 -0.024004,-0.014252 -0.03863,-0.00942 -0.014472,0.00487 -0.026161,0.011311 -0.026161,0.011311 0,0 0.00801,-0.017842 0.00545,-0.027976 -0.00256,-0.010173 -0.018925,-0.00299 -0.018886,-0.00303 -1.299e-4,5.709e-4 0.027224,-0.083032 0.069484,-0.098602 0.00669,-0.00234 0.020705,-0.022968 0.00544,-0.018421 -0.015248,0.00449 0.00926,-0.00917 0.017461,-0.013161 0.00811,-0.00394 0.00463,-0.00462 0.016039,-0.00883 0.011457,-0.0043 -0.00486,0.00774 0.014484,-0.00931 0.019433,-0.017213 0.02324,-0.019669 0.022224,-0.024256 -9.606e-4,-0.00461 -0.013937,0.00528 -0.021953,0.00235 -0.0082,-0.00294 -0.01187,-0.00458 -0.01187,-0.00458 1.18e-5,-1.18e-5 0.00999,-0.00374 0.016405,-0.00517 0.00638,-0.00138 0.012705,-0.00282 0.017146,-0.00551 0.00449,-0.00269 0.0043,3.347e-4 0.00564,-0.00922 0.00138,-0.0096 1.811e-4,-0.011209 0.0088,-0.014563 0.00857,-0.00331 0.00939,-0.00768 0.018779,-0.00731 0.00941,3.897e-4 -5.945e-4,-0.00278 0.013394,-0.00525 0.013925,-0.0025 -8.307e-4,3.503e-4 0.017043,-0.012898 0.017965,-0.013366 0.027398,-0.014083 0.023969,-0.022968 -0.00344,-0.009 -0.0215,4.055e-4 -0.00793,-0.014496 0.013654,-0.014949 0.021067,-0.01278 0.018185,-0.018925 -0.00293,-0.00616 -0.017315,-0.00873 -0.021354,-0.00709 -0.00403,0.00161 -0.00921,-0.00266 -0.017732,0.00713 -0.00852,0.00976 -0.00702,0.021795 -0.011039,0.027563 -0.00404,0.00578 -0.00954,0.00379 -0.015173,0.014327 -0.00555,0.010421 -0.010677,0.010382 -0.016134,0.01672 -0.00558,0.00619 -4.567e-4,0.00629 -0.00555,0.00619 -0.00508,-7.48e-5 -0.013146,-0.00618 -0.00312,-0.011169 0.010004,-0.00487 0.021083,-0.00924 0.011602,-0.018031 -0.00944,-0.00879 -0.017965,-0.012819 -0.02402,-0.00101 -0.00609,0.011728 -0.010535,0.018614 -0.012095,0.015106 -0.00165,-0.00349 -0.00471,-0.026406 -0.00801,-0.01787 -0.00326,0.00861 -0.015772,0.01339 -0.022319,0.022146 -0.00651,0.00865 -0.017366,0.012728 -0.021768,0.019484 -0.0043,0.00678 -0.00912,0.014705 -0.012925,0.02015 -0.0037,0.00544 -0.00106,0.013571 -0.00408,0.014717 -0.00306,0.00109 -0.00627,0.01239 -0.00884,0.00114 -0.00261,-0.011236 -0.0055,-0.013276 -0.01315,-0.010472 -0.00765,0.00269 -0.018327,0.0065 -0.02213,0.00776 -0.00381,0.00133 -0.00609,0.00219 -0.01476,0.00715 -0.00867,0.00505 -0.020846,0.012197 -0.020846,0.012197 0,0 -0.00743,-0.013677 -0.021862,-0.00889 -0.014378,0.00478 -0.023224,0.0056 -0.028043,0.012146 -0.00481,0.00669 -0.010626,0.012484 -0.0105,0.019405 1.969e-4,0.00691 9.252e-4,0.015642 -0.00357,0.014095 -0.00448,-0.00162 -0.00321,-0.00593 -0.00889,-0.012169 -0.00578,-0.00616 -0.00299,-0.00804 -0.015122,-0.00436 -0.012055,0.00384 -0.047295,0.021028 -0.047295,0.020961 0,-7.48e-5 -0.0066,-0.00306 0.00774,-0.010244 0.014342,-0.00712 0.016862,-0.024866 -0.00591,-0.01824 -0.022862,0.00663 -0.026303,0.014484 -0.033539,0.00951 l -7.402e-4,-4.173e-4 c -0.106724,0.220295 -0.167165,0.467256 -0.168685,0.728142 l 5.12e-5,0.011236 c 0.0066,0.00404 0.00642,0.011433 0.00994,0.020291 0.00446,0.011157 0.00606,0.024614 0.012327,0.028307 0.00629,0.00365 0.014173,-8.071e-4 0.016185,0.00554 0.00198,0.00638 0.01311,0.012457 0.018783,0.014654 0.00569,0.00221 -3.622e-4,0.00164 0.00473,0.010091 0.00508,0.00851 0.00952,0.00118 0.019146,0.011327 0.00967,0.010173 0.034827,0.015709 0.039232,0.030984 0.00449,0.015315 0.00558,0.016472 0.00316,0.024783 -0.00238,0.00831 -0.00865,0.014807 -1.85e-4,0.019032 0.00857,0.00424 0.033319,0.018598 0.040701,0.017028 0.00746,-0.00152 0.021209,-0.00275 0.021209,-0.00275 0,0 0.028228,0.00938 0.039594,0.011882 0.011417,0.00246 0.0072,0.00381 0.019197,0.00304 0.012016,-6.378e-4 0.028736,0.00548 0.030476,-0.00181 0.00175,-0.0073 0.00765,-0.015846 0.015079,-0.015886 0.00747,-3.94e-5 0.026126,0.015976 0.030335,0.017783 l 0.00509,0.00182 c 0.00504,0.00178 0.012693,0.00404 0.020303,0.00524 0.00605,9.37e-4 0.012,0.00118 0.016587,-1.536e-4 0.012925,-0.00389 0.00843,0.00121 0.021358,-0.00259 l 0.00651,-6.3e-5 0.00188,0.00204 c 0.00169,0.00332 0.00132,0.00891 0.00637,0.011028 0.00834,0.00356 0.01961,0.00938 0.022768,0.010004 l 0.00101,0.00102 z" />
    <path
   id="_510586288"
   class="fil3"
   d="m 5.00667,2.93602 0.00646,-5.079e-4 6.89e-4,-5.12e-5 z m -0.205937,0.364791 -0.00174,0.00113 z m -0.540685,-0.79778 -5.118e-4,-8.425e-4 6.417e-4,9.606e-4 z m -0.056654,0.104894 0.00202,0.00287 4.174e-4,7.441e-4 z m 0.894878,0.61639 C 5.055512,2.839311 4.883945,2.493303 4.627603,2.230236 4.621583,2.233556 4.616422,2.242393 4.616422,2.242393 4.606942,2.240603 4.597261,2.238913 4.587635,2.237193 l -0.00686,0.00898 c -0.00725,3.504e-4 -0.014535,7.402e-4 -0.021772,0.00107 0,0 0.00718,-0.00593 0.0076,-0.015146 4.685e-4,-0.00917 -0.014705,-0.00485 -0.018468,-0.00341 l -0.013421,0.00733 c 0,0 -0.012831,0.00125 -0.020213,0.00565 -0.00729,0.00439 -0.018744,0.019252 -0.018744,0.019252 -0.00123,0.00444 -0.00247,0.00891 -0.00384,0.013406 0,2.76e-5 -0.025524,0.00232 -0.032669,-0.00394 C 4.452138,2.264225 4.443295,2.253432 4.461478,2.25394 4.479639,2.2544361 4.456998,2.235653 4.441281,2.235247 4.425651,2.2348179 4.421753,2.2348061 4.42634,2.252968 c 0.00454,0.018185 0.020941,0.026043 0.021811,0.035043 0.00101,0.00902 -0.00615,0.00278 -0.00615,0.00278 0,-1.18e-5 -0.00742,-0.00909 -0.016587,-0.00943 C 4.416384,2.2811012 4.393016,2.293778 4.389993,2.301054 4.386783,2.308304 4.406269,2.320692 4.400123,2.32346 4.393933,2.32614 4.371521,2.3224758 4.360115,2.313279 4.348658,2.304039 4.331796,2.316689 4.353835,2.327712 4.375776,2.338633 4.36937,2.351468 4.359335,2.342334 4.349307,2.333294 4.340733,2.327188 4.335552,2.326972 4.330382,2.326787 4.31965,2.324982 4.31965,2.324982 c 0,-1.18e-5 0.0033,-0.00572 -0.00564,-0.016248 C 4.30495,2.298159 4.30921,2.28947 4.30921,2.28947 c 0,-1.58e-5 -0.01476,-0.00344 -0.026358,-0.012693 -0.011547,-0.00922 0.00348,-0.00431 0.00876,-0.00409 0.00518,1.457e-4 0.03024,0.012847 0.052697,0.015083 C 4.366679,2.28994 4.397376,2.28502 4.395907,2.271581 4.394307,2.258112 4.382438,2.244238 4.366537,2.242227 4.350726,2.240247 4.341517,2.239997 4.329553,2.22764 4.317789,2.215286 4.297612,2.211597 4.279195,2.211101 4.260683,2.2105695 4.256423,2.207421 4.250644,2.202741 c -0.00586,-0.00468 -0.029968,0.00365 -0.029968,0.00365 0,0 -0.012185,-0.013874 -0.00687,-0.013744 0.00526,1.575e-4 0.00526,1.575e-4 0.00526,1.575e-4 0,0 -0.00678,-0.00165 -0.012642,-0.00642 -0.00586,-0.00465 -0.020847,-0.00808 -0.020847,-0.00808 l -0.00174,0.00744 c -0.00115,-0.0056 -0.00225,-0.011091 -0.00339,-0.016665 -0.00399,0.00291 -0.00803,0.00581 -0.012197,0.00873 -0.00339,0.00438 -0.00682,0.00876 -0.010315,0.013185 -1.299e-4,-0.00499 -3.622e-4,-0.010067 -4.96e-4,-0.015039 -0.00426,0.0044 -0.00862,0.00876 -0.012976,0.013091 0.00102,-0.00643 0.00198,-0.012858 0.00299,-0.019405 0,0 -0.00711,-0.0032 -0.018614,9.842e-4 -0.011406,0.00419 -0.015756,0.011535 -0.015248,0.01598 5.985e-4,0.0045 -0.00794,-2.205e-4 -0.011965,-3.779e-4 l -0.015768,0.00243 c 0,0 -9.094e-4,0.00302 -0.011642,0.00263 -0.010717,-3.386e-4 -0.018327,-0.00803 -0.017457,-5.591e-4 9.607e-4,0.00739 -0.012146,0.00985 -0.015992,0.011181 l -0.00459,0.017437 c 0,0 -0.019744,0.00365 -0.024146,5.827e-4 -0.00439,-0.00315 -0.00894,0.00402 -0.00908,0.014169 -1.339e-4,0.010083 -0.00802,0.011185 -0.011953,0.012488 l -0.014661,0.013768 c -0.0012,0.00519 -0.00234,0.010417 -0.00363,0.015532 0,3.94e-5 -0.00234,0.015575 -0.0076,0.016748 -0.00527,0.00115 -0.01448,0.016315 -0.021406,0.015961 -0.00682,-3.347e-4 -0.00916,0.016433 -0.014575,0.016189 -0.00549,-2.992e-4 -0.00829,-4.685e-4 -0.012366,-6.89e-4 l -0.024795,-0.00129 -0.00476,0.020665 c -0.00395,0.0026 -0.0067,0.00246 -0.016004,0.00606 -0.00934,0.00369 -0.016264,0.00327 -0.015846,0.00746 3.623e-4,0.00416 0.00682,0.012819 0.00682,0.012819 0.00881,9.488e-4 0.017693,0.00195 0.026539,0.00294 -0.011004,2.599e-4 -0.022095,5.709e-4 -0.033177,8.426e-4 0.00174,0.00786 0.00343,0.015823 0.00499,0.02363 0.00715,-0.00273 0.014339,-0.00553 0.021496,-0.00835 -0.00531,0.00753 -0.010583,0.015012 -0.015898,0.022445 0.00426,0.00669 0.00865,0.013287 0.012965,0.019886 0,0 -3.622e-4,0.010902 0.025799,0.00839 C 3.931062,2.437083 3.933984,2.426278 3.939491,2.42525 3.944801,2.4242 3.952133,2.401179 3.954558,2.412329 c 0.00225,0.00992 0.00248,0.011024 0.012146,0.011689 l 0.00417,2.322e-4 c 0.01376,7.56e-4 -0.017095,0.00734 -0.00119,0.01511 0.015862,0.0077 0.011693,0.00756 0.020535,0.027146 0.00876,0.019602 0.00486,0.022032 0.00541,0.027461 5.079e-4,0.0054 0.00683,0.013925 0.015079,0.014433 0.00825,4.922e-4 0.012146,-0.00195 0.012925,-0.00738 8.701e-4,-0.00541 0.011772,-0.00473 0.021394,-0.00421 0.00954,5.315e-4 0.018787,-0.00159 0.015681,-0.019512 -0.00321,-0.017941 -8.701e-4,-0.034307 -8.701e-4,-0.034307 3.94e-5,0 0.03528,-0.010508 0.029591,-0.026071 -0.00572,-0.015598 -0.028087,-0.01113 -0.035319,-0.040917 -0.00738,-0.02976 0.019327,-0.03137 0.034228,-0.04202 0.014791,-0.010677 0.024382,-0.02028 0.024382,-0.02028 0,0 -0.015264,-0.00501 -0.00789,-0.010402 0.00738,-0.00544 0.00789,-0.012602 0.014524,-0.012343 0.00683,2.599e-4 0.019614,-0.00352 0.023598,-0.00334 l 0.00651,5.984e-4 c 0.00939,0.00107 0.024606,0.00381 0.021213,0.0092 -0.00448,0.00704 -0.00119,0.012937 -0.00522,0.012807 l -0.032902,0.025784 c 0,0 -0.020394,0.00764 -0.014484,0.02489 0.00592,0.017224 0.012146,0.037165 0.012146,0.037126 0,-1.18e-5 5.945e-4,0.00566 0.00876,0.00747 0.00815,0.00183 0.014433,0.010457 0.021118,0.010835 0.00674,3.229e-4 0.020071,9.607e-4 0.02402,0.00115 l 0.020992,-0.0018 0.013236,6.339e-4 0.0095,-0.00942 0.00517,2.756e-4 0.00944,4.251e-4 c 0.0049,0.00159 0.00999,0.00325 0.01489,0.0049 -0.0049,0.00304 -0.00981,0.00611 -0.01476,0.00916 l -0.00727,0.00524 c -0.016315,-2.756e-4 -0.032591,-5.827e-4 -0.048906,-8.976e-4 0,-1.19e-5 -0.034228,0.015016 -0.011587,0.028551 l 0.01022,0.00756 c 0.012276,0.011492 0.010902,0.022693 0.00238,0.023366 -0.010587,8.189e-4 -0.014118,-0.00755 -0.014118,-0.00755 1.18e-5,0 -0.014106,-0.021394 -0.030878,-0.015394 -0.016677,0.00602 -0.015315,0.00747 -0.00446,0.021744 0.010874,0.014213 0.00102,0.00956 0.00564,0.015291 0.00464,0.00572 -0.0043,0.010744 0.00299,0.016512 0.0033,0.00256 -0.00125,0.00474 -0.00614,0.00674 -0.006,0.00254 -0.012744,0.0049 -0.00582,0.00747 0.012508,0.00476 -0.027772,0.00391 -0.027772,0.00391 l -0.011909,-0.011457 c 0,0 -0.019795,0.00426 -0.030342,0.00768 -0.010484,0.00344 -0.031803,0.00891 -0.031803,0.00891 l -0.00504,-0.0016 -0.010496,-0.00333 -0.018508,-0.00781 c -0.00376,0.00382 -0.014614,0.00581 -0.020161,0.00552 -0.0055,-3.859e-4 -0.014067,-0.00356 -0.018614,-0.0079 -0.00457,-0.00431 -0.015158,4.292e-4 -0.013689,-0.012937 0.0015,-0.013378 0.00311,-0.010598 0.013598,-0.016756 0.010457,-0.00613 0.013248,-0.0059 0.00857,-0.011626 -0.00463,-0.00572 -0.0165,3.78e-4 -0.01324,-0.00894 0.0032,-0.00935 0.010535,-0.018457 0.00361,-0.01889 -0.00687,-4.016e-4 -0.013654,6.142e-4 -0.018697,0.00572 -0.00498,0.00516 -0.01022,0.0089 -0.01022,0.0089 0,0 -0.016626,3.859e-4 -0.01613,0.00586 6.102e-4,0.00545 -9.45e-5,0.013496 0.00179,0.018976 0.00192,0.0056 0.017417,0.022693 0.017417,0.022693 0,-1.18e-5 -0.00266,0.017343 -0.0083,0.016976 -0.00531,-3.622e-4 0.00206,0.0013 -0.023185,0.00795 l -0.00394,0.00102 c -0.030343,0.00744 -0.032811,-0.00478 -0.041331,0.012004 -0.00852,0.016819 1.3e-4,0.020004 -0.020992,0.022598 l -0.00261,3.779e-4 c -0.017965,0.00265 -0.011327,0.00687 -0.015213,0.010433 -0.00239,0.00222 -0.01,0.00315 -0.015626,0.00495 0.00129,-0.00138 6.772e-4,-0.00312 -0.00344,-0.00557 -0.013563,-0.00788 -0.021445,0.00356 -0.013563,-0.00787 0.0078,-0.011405 0.012457,-0.00709 0.016031,-0.016898 0.00358,-0.00972 0.00775,-0.010409 -0.00105,-0.014008 -0.00889,-0.00357 -0.018839,0.00776 -0.026941,0.00122 -0.00807,-0.00654 0.00306,-0.00283 -0.00225,-0.016201 -0.00526,-0.013339 0.00101,-0.014898 -0.010406,-0.023716 -0.011445,-0.00883 -0.016535,-0.00419 -0.016535,-0.00419 9.05e-5,5.12e-5 0.00834,-0.019508 -0.011693,-0.026913 -0.020016,-0.00737 -0.0285,-0.00291 -0.0285,-0.00291 0,0 0.00111,-0.00194 0.018969,-0.00881 0.017886,-0.00687 0.017835,-0.021098 0.017835,-0.021098 0,0 -0.020941,-0.00639 -0.029657,-0.00696 -0.00865,-5.867e-4 -0.015626,0.00801 -0.016953,0.00491 -0.00128,-0.00308 0.00142,-0.011055 0.00876,-0.014575 0.00729,-0.00359 0.014394,-0.00924 0.014394,-0.00924 -0.011965,-0.00179 -0.023969,-0.00356 -0.03602,-0.00535 0,0 -0.00674,0.011705 -0.016043,0.019169 -0.00939,0.00743 -0.011224,0.012331 -0.010716,0.019421 4.015e-4,0.00707 0.018185,0.010343 0.018185,0.010343 0,0 -0.013654,0.010142 -0.00816,0.01052 0.00555,3.386e-4 0.026252,-2.205e-4 0.01985,0.00134 -0.00647,0.00159 -0.016043,0.00591 -0.016043,0.00591 0.00444,3.268e-4 0.00876,6.496e-4 0.013197,9.213e-4 0,-1.18e-5 -0.017965,0.011874 -0.01352,0.012185 0.00445,2.874e-4 0.025157,-0.00233 0.025157,-0.00233 0,0 0.00944,-0.00435 0.010264,0.00674 7.401e-4,0.01113 0.00903,0.020665 0.00903,0.020665 0,0 0.016677,0.00419 -0.00252,0.011886 -0.01924,0.00764 -0.01815,0.00772 -0.023693,0.00734 -0.00559,-3.937e-4 0.014118,0.013961 0.00765,0.016469 -0.00646,0.00257 -0.02337,-0.0026 -0.024366,0.00134 -8.347e-4,0.0039 0.00843,0.010587 0.015118,0.011028 0.00669,4.291e-4 0.021902,0.013457 0.03198,-0.00178 0,-1.18e-5 -0.00559,0.015512 -0.020213,0.013512 -0.014472,-0.00198 -0.02863,0.003 -0.029969,0.020783 0,0 0.0099,-0.00429 0.028878,-0.00298 0.018874,0.0013 0.016535,-0.0019 0.027579,-0.00109 0.011091,7.52e-4 0.012106,-1.417e-4 0.024248,6.733e-4 0.012146,8.307e-4 0.02415,6.496e-4 0.032815,2.48e-4 0.00435,-2.48e-4 0.012457,-7.008e-4 0.017819,-0.00216 l -0.00215,0.00351 c 4.174e-4,0.00663 -2.716e-4,0.017173 -0.00751,0.016681 -0.00734,-4.961e-4 -0.0095,0.00989 -0.0095,0.00989 0,0 -0.017224,0.00544 -0.028083,-0.0045 -0.010862,-0.010016 -0.012197,-0.0074 -0.00863,0.00335 0.00359,0.010835 0.00821,0.013772 -0.00214,0.013067 -0.010315,-6.733e-4 -0.020669,-6.3e-5 -0.020669,-6.3e-5 0,-1.19e-5 -0.022508,-0.00551 -0.029929,-0.00468 -0.00742,7.677e-4 -0.00669,0.015354 -0.00642,0.020653 3.267e-4,0.00522 0.010083,-0.00721 0.027319,0.00709 0.017185,0.014303 0.029642,0.025602 0.031433,0.02963 0.00165,0.00406 0.00522,0.013496 0.00577,0.023909 5.984e-4,0.010512 0.00651,0.038244 -0.00237,0.037661 l -0.010626,0.00118 c -0.00683,0.00143 -0.013067,0.00386 -0.013067,0.00386 -0.036425,-0.00625 -0.073185,-0.012508 -0.110531,-0.018925 1.299e-4,-1.58e-5 -0.047984,0.00474 -0.03011,0.026913 0,-1.19e-5 6.496e-4,0.00244 0.00147,0.0068 0.00105,0.00595 0.00243,0.015468 0.0028,0.027484 6.457e-4,0.020913 -0.013291,0.026646 -0.017913,0.032929 -0.00454,0.00617 -0.010587,0.01898 -0.0027,0.019433 0.00798,4.961e-4 0.010445,0.033268 0.010445,0.033216 0,0 -0.00303,0.00376 0.015953,0.00484 0.016677,9.37e-4 0.013925,0.0037 0.017221,0.00203 l 0.00185,-9.882e-4 c 0.00613,-0.00356 0.021721,-0.00527 0.02689,0.00926 0.00518,0.014539 0.00683,0.017173 0.016079,0.016409 0.00935,-8.307e-4 0.0027,-0.014122 0.018201,-0.013287 0.015445,8.149e-4 0.018512,-0.00289 0.035421,-0.00196 0.016772,8.858e-4 0.027539,0.00147 0.027539,0.00147 0,0 0.00995,-0.01487 0.017551,-0.013173 0.00766,0.00168 0.00812,-0.022744 0.01861,-0.022134 0.0105,5.866e-4 -0.00857,-0.024925 0.00733,-0.035665 0.015862,-0.010705 0.018059,-0.023425 0.03002,-0.022709 0.011823,6.614e-4 0.023279,-0.00381 0.023279,-0.00381 0.00243,-0.00889 0.0048,-0.017784 0.0072,-0.026693 0,-1.57e-5 -0.00542,-0.018421 0.013559,-0.017276 0.018874,0.00109 0.038583,0.015197 0.051323,0.013406 0.012784,-0.00182 0.016591,-0.00938 0.021811,-0.015484 l 0.0018,-0.00343 c 0.00174,-0.0059 -1.457e-4,-0.012417 0.020248,-0.00691 0.024433,0.0066 0.03285,0.00712 0.034008,0.022602 0.00105,0.015524 -7.795e-4,0.010224 0.015535,0.022709 0.016264,0.012445 0.028134,0.023252 0.040917,0.027795 0.012835,0.00444 0.024874,-0.00123 0.040228,0.022437 0.015303,0.023524 0.032217,0.030591 0.019941,0.032512 -0.012185,0.00189 0.00352,0.011508 -0.018563,0.010457 -0.022134,-0.00113 -0.021992,0.00139 -0.035929,7.126e-4 -0.014016,-7.008e-4 -0.01924,0.00539 -0.014756,0.010626 0.00454,0.00534 0.050087,0.02376 0.049996,0.023748 0.00281,-0.00738 0.00555,-0.014772 0.00839,-0.022177 0,-1.18e-5 0.015028,-4.921e-4 0.020016,-0.00912 0.00496,-0.00852 0.00862,-0.015898 0.016783,-0.015496 0.00811,4.173e-4 -0.00931,-0.018043 -0.015043,-0.022173 -0.00577,-0.00405 0.00555,-0.018642 0.020264,-0.00152 0.014705,0.017146 0.03015,0.0053 0.00321,-0.013717 -0.027173,-0.019122 -0.036669,-0.017094 -0.040929,-0.019811 -0.0043,-0.00279 -0.00633,-0.011807 -0.00633,-0.011807 -0.00706,-0.00249 -0.01411,-0.00504 -0.021122,-0.0075 -0.00265,-0.0049 -0.00531,-0.00965 -0.00798,-0.01452 1.18e-5,-1.18e-5 -0.00183,-0.0065 -0.016354,-0.016342 -0.014614,-0.00974 -0.022083,-0.016602 -0.022083,-0.016602 0,0 -0.00866,-0.023779 0.00385,-0.023032 0.00885,4.725e-4 0.00972,-0.00453 0.013614,-0.00287 l 0.00747,0.00664 c 0.012091,0.013665 0.019378,0.019173 0.023693,0.021953 0.00435,0.00283 0.010807,0.016071 0.022083,0.0205 0.011221,0.00449 0.014433,0.011028 0.020031,0.012598 0.00554,0.00156 0.016535,0.00212 0.016535,0.00212 l 0.00192,0.00151 c 0.00899,0.00677 0.017784,0.013626 0.02663,0.020327 l 0.00339,0.029335 c 0.00303,0.00394 0.00985,0.025653 0.017874,0.024756 l 0.00363,5.12e-5 c 0.00444,7.008e-4 0.00522,0.00432 0.00783,0.010535 0.00316,0.00764 0.00541,0.021563 0.00541,0.021563 0.00339,0.0047 0.00678,0.00942 0.01022,0.014122 0,-1.57e-5 0.00985,0.00668 0.015157,0.00812 0.00546,0.00152 0.0215,0.00343 0.0215,0.00343 -7.284e-4,-0.00418 -0.00142,-0.00833 -0.00207,-0.012512 l 0.00651,-10e-4 c -0.00376,-0.00431 -0.00761,-0.0086 -0.011366,-0.012925 0.00592,0.00276 0.01178,0.00551 0.017689,0.00829 l 0.00747,-0.00718 c -0.00705,-0.00735 -0.014118,-0.014717 -0.021264,-0.02211 -0.00399,-0.00601 -0.00789,-0.012055 -0.01178,-0.018106 1.18e-5,0 -0.00376,-0.015213 0.00359,-0.00608 0.00723,0.00912 0.00828,0.00539 0.014429,-0.00186 0.00606,-0.00726 -0.00693,-0.00539 0.00606,-0.00725 0.011858,-0.00181 0.015847,-0.00685 0.020705,-0.003 l 0.00161,0.00149 c 0.0049,0.00557 0.017224,0.00968 0.020705,0.010744 l 9.607e-4,2.835e-4 -9.607e-4,-2.835e-4 c -6.889e-4,4.922e-4 -0.0015,0.00312 -7.244e-4,0.012756 9.567e-4,0.016236 0.00417,0.023874 0.00714,0.030189 0.00299,0.00632 0.00898,0.017717 0.015445,0.017992 0.00656,2.559e-4 0.011819,0.00179 0.014756,0.00805 0.00307,0.00626 0.00885,0.017654 0.00885,0.017614 0.0082,0.00108 0.016496,0.00226 0.024744,0.00338 l 0.011638,0.00166 0.00834,-0.00952 c 0,0 0.00985,-0.00696 0.021953,0.00328 0.012,0.010276 0.010768,0.011433 0.025925,0.010717 0.015173,-6.89e-4 0.00798,-0.015587 0.016968,-0.012819 0.00892,0.00275 0.021626,0.00318 0.027898,0.0034 l 0.00656,0.00229 0.00132,0.00657 c 4.567e-4,0.00731 0.00312,0.034122 0.0022,0.040098 -8.701e-4,0.00552 -7.283e-4,0.011079 -0.00546,0.015547 l -0.00118,0.00113 c -0.00606,0.00464 -0.013484,0.00686 -0.012976,0.016484 3.74e-4,0.00964 0.00192,0.015681 0.00225,0.024071 2.717e-4,0.00539 0.0017,0.026185 0.00582,0.045114 0.0023,0.010417 0.00537,0.020276 0.00957,0.026693 0.011835,0.017976 0.00651,0.0073 0.025906,0.03124 0.019339,0.023862 0.012142,0.034228 0.024744,0.046153 0.012547,0.011874 0.022224,0.0051 0.030185,0.033098 1.57e-5,-1.57e-5 -0.00426,0.035929 0.011744,0.047657 0.015992,0.011653 0.021902,0.00712 0.03189,0.029071 0.00986,0.021953 0.021902,0.024291 0.030382,0.033516 l 0.00628,0.00899 c 0.00134,0.00349 9.606e-4,0.00678 9.606e-4,0.012835 0,0.010327 -0.00229,0.018339 0,0.033228 0.00243,0.014913 0.00243,0.020689 0.00834,0.027551 0.00596,0.00683 0.00477,0.012598 0.022646,0.0068 0.017921,-0.00582 0.00362,-0.01261 0.023819,-0.012677 0.020177,-5.12e-5 0.04487,-0.00922 0.04487,-0.00922 0,-1.57e-5 0.00123,-0.015913 0.016457,-0.015913 0.015299,-5.51e-5 0.016354,-0.00806 0.028043,-0.013665 0.011587,-0.00574 0.019799,-0.00566 0.020941,-0.013626 0.0011,-0.00796 0.00687,-0.016965 0.010406,-0.016965 h 9.606e-4 c 0.00279,0 0.00462,0 0.012874,2.76e-5 0.0093,-1.58e-5 0.017366,0 0.023095,-0.00115 0.00578,-0.0011 -0.011598,-0.017004 0.00344,-0.016965 0.015024,3.94e-5 0.019559,0.00231 0.020701,-0.00786 0.00102,-0.010173 0.015953,-0.014677 0.015953,-0.014677 l -9.05e-5,-0.012445 c 0,-0.00342 -0.00698,-0.017043 0.00325,-0.016992 0.010366,1.18e-5 0.00468,0 0.018291,-0.01126 0.01365,-0.011236 0.012413,-0.024902 0.00888,-0.030579 -0.00353,-0.0057 -0.00353,-0.0046 -0.00816,-0.00916 -0.00463,-0.00459 -0.010492,-0.014886 -0.013925,-0.014925 -0.00335,-2.76e-5 -0.013795,0.00107 -0.019575,-0.00356 -0.00577,-0.00463 -0.013925,-0.00929 -0.017547,-0.016197 l -0.00202,-0.00612 c -0.00216,-0.00847 -0.00297,-0.020287 -0.00297,-0.020287 0,0 -0.023839,0.030795 -0.033047,0.035264 -0.00916,0.00452 -0.032528,8.741e-4 -0.038398,0.00426 l -0.00367,-1.968e-4 c -0.00815,-0.00294 -0.023653,-0.019795 -0.030847,-0.032472 -0.0086,-0.015185 0.00206,-0.013835 -0.011173,-0.026784 -0.00935,-0.00909 -0.020575,-0.022252 -0.026575,-0.032165 -0.00252,-0.00417 -0.00408,-0.00783 -0.00417,-0.010264 -2.756e-4,-0.00819 0.020157,-0.037146 0.030185,-0.019402 0.010004,0.017842 0.021134,0.038953 0.044827,0.047346 0,3.54e-5 0.010902,0.018693 0.0285,0.022421 0.017512,0.00363 0.037945,-0.01689 0.045091,-0.00989 0.00706,0.00695 0.00628,0.027748 0.028224,0.031319 0.021913,0.00364 0.039228,0.011823 0.050685,0.011886 0.00412,3.94e-5 0.00798,-3.504e-4 0.012744,-8.701e-4 0.00843,-8.819e-4 0.019744,-0.00192 0.040827,-0.00101 0.033032,0.00132 0.035098,-0.010106 0.042114,0.00251 0.00683,0.012496 0.00353,0.022732 0.023913,0.022823 l 0.00679,0.00138 c 0.00948,0.00467 0.00591,0.019185 0.031071,0.016079 z"
   style="display:inline;fill:#cccccc" />
    <path
   id="_510585160"
   class="fil3"
   d="M 3.95237,2.81151 C 3.963047,2.8121478 3.964606,2.80452 3.964098,2.795857 3.9635035,2.787157 3.946133,2.781349 3.944484,2.788017 c 0,0 -0.00279,0.022913 0.00789,0.023496 z" />
    <path
   id="_510585784"
   class="fil3"
   d="M 1.76414,3.52382 C 1.754101,3.52137 1.752542,3.504922 1.746809,3.491918 1.741079,3.47889 1.730171,3.479603 1.724951,3.468627 c -0.00196,-0.0043 -0.00385,-0.00799 -0.00568,-0.011118 4.922e-4,0.011925 0.00114,0.023811 0.00183,0.035642 l 0.005,0.00373 c 0.00499,0.00791 0.00499,0.00789 0.00628,0.012185 0.00132,0.00424 0.00303,0.015382 0.00303,0.015382 0.00925,0.00401 0.018417,0.008 0.027535,0.012028 0,3.93e-5 0.015626,0.021433 0.016681,0.00812 0.00101,-0.013339 -0.0054,-0.018248 -0.015484,-0.020772 z" />
    <path
   id="_510585280"
   class="fil3"
   d="M 2.25974,2.414 C 2.25309,2.41832 2.26161,2.437161 2.26509,2.435732 2.26857,2.434292 2.279015,2.430002 2.289562,2.425704 2.300109,2.421374 2.310645,2.417064 2.322468,2.412129 2.334247,2.407219 2.344003,2.404809 2.352381,2.401322 2.360681,2.397832 2.367046,2.39033 2.3847,2.379743 2.402291,2.369121 2.401094,2.353546 2.401054,2.353546 L 2.366967,2.366341 C 2.363387,2.367821 2.332817,2.385526 2.297538,2.40005 2.262258,2.414597 2.305698,2.382255 2.305788,2.382215 L 2.348174,2.361286 2.375398,2.346609 C 2.390016,2.340969 2.404626,2.335294 2.419473,2.329566 2.4194336,2.3295542 2.435375,2.322796 2.431024,2.319716 2.426674,2.316756 2.421304,2.307547 2.433594,2.302259 2.44596,2.297019 2.45796,2.288606 2.45796,2.288606 L 2.46178,2.278756 2.503512,2.254339 c 0.00357,-0.0032 -0.015118,0.00644 -0.021394,0.00912 -0.00627,0.00265 0.00215,-0.022516 0.00925,-0.028906 C 2.498428,2.228133 2.540825,2.213498 2.552459,2.2086 2.56401,2.20364 2.572987,2.19982 2.581884,2.194454 2.590684,2.189014 2.598742,2.167174 2.609152,2.162718 2.619644,2.158358 2.638376,2.143769 2.648691,2.137793 2.658967,2.131813 2.685852,2.113943 2.685852,2.113943 2.694102,2.108863 2.702313,2.103852 2.710506,2.098746 c 0,5.12e-5 -0.015079,-0.00899 -0.033717,-0.00304 C 2.658132,2.101686 2.65438,2.104956 2.639844,2.110942 2.625411,2.116922 2.621513,2.118532 2.603238,2.126166 2.584951,2.133816 2.575868,2.137599 2.555203,2.146276 2.534498,2.154976 2.538341,2.153396 2.506309,2.166863 2.47447,2.180375 2.47712,2.180918 2.445506,2.202977 2.414069,2.224902 2.399726,2.225823 2.386022,2.231591 2.372412,2.237381 2.368061,2.251272 2.368061,2.251217 c 6.889e-4,0.00482 0.00147,0.00969 0.00224,0.014394 l 0.00417,0.010067 c 0,0 -0.00986,0.00419 -0.014213,9.882e-4 -0.00444,-0.00326 -0.015665,-1.811e-4 -0.015665,-1.811e-4 0,-1.18e-5 -0.00921,0.00729 -0.014122,0.00929 -0.00481,0.00203 -0.021807,0.00917 -0.029004,0.012169 -0.00729,0.003 -0.015083,0.024784 -0.015083,0.024748 0.00148,0.00555 0.00284,0.011118 0.00422,0.016575 0,3.94e-5 0.01287,0.00795 0.017638,0.00591 0.00477,-0.00195 0.016768,-0.00696 0.023744,-0.011524 0.00696,-0.00457 0.022409,-0.012661 0.026071,-0.014276 l 0.015772,0.00163 -0.00363,0.00976 -0.010445,-4.96e-4 c 0,0 -0.012055,0.00503 -0.01687,0.00706 -0.00485,0.00199 -0.010496,0.014303 -0.017642,0.017236 -0.00715,0.00296 -0.014343,0.00596 -0.019106,0.00794 -0.00472,0.00195 -0.00843,0.010004 -0.016681,0.013405 -0.00834,0.00342 -0.025937,0.00416 -0.034969,0.00298 -0.00903,-0.00124 -0.013563,0.021835 -0.013563,0.021744 0.0078,-0.00311 0.015575,-0.0063 0.023421,-0.00948 0,5.12e-5 0.00215,0.018524 -0.00462,0.022862 z" />
    <path
   id="_510585736"
   class="fil3"
   d="m 3.94325,2.8369 c 6.339e-4,0.010193 0.00123,0.020457 0.00187,0.030681 l 0.010693,5.709e-4 0.0038,-0.00747 0.00954,-0.00137 0.00224,-0.032319 -0.00803,-0.00906 -0.00957,3.779e-4 -0.00828,0.00335 -0.00825,0.00437 z" />
    <path
   id="_510585448"
   class="fil3"
   d="m 1.943,2.65465 0.00435,0.011587 c 0,0 0.00828,-0.00385 0.029732,-0.010484 0.021535,-0.00667 0.039268,-0.024055 0.043673,-0.029965 0.00435,-0.00582 0.00536,0.00265 0.024291,0.00356 C 2.064007,2.6301787 2.059058,2.624608 2.07753,2.618187 2.095951,2.611757 2.07606,2.607018 2.07927,2.605927 2.08253,2.604767 2.099935,2.598587 2.107443,2.589974 2.114923,2.581384 2.077474,2.593364 2.077565,2.573789 2.0777068,2.554395 2.09649,2.521478 2.096581,2.521439 c 0.00441,-0.00169 0.00533,-0.00817 0.00533,-0.00817 -0.00816,0.00299 -0.016315,0.00602 -0.024433,0.00893 0.00111,0.00676 0.00234,0.013469 0.00344,0.020213 0,-1.18e-5 -0.00522,-0.00726 -0.014756,-0.00696 -0.00954,3.465e-4 -0.023004,0.018886 -0.019291,0.034098 l 3.662e-4,0.0013 c -0.00165,-0.00422 -0.00509,-0.010468 -0.00972,-0.00554 -0.00508,0.00527 5.079e-4,-0.012354 -0.00247,-0.00524 -0.00297,0.00708 -0.014626,0.00807 -0.024795,0.00543 -0.010213,-0.00267 -0.0099,0.00334 -0.024476,0.00659 -0.01461,0.00323 -0.017185,0.0071 -0.031382,0.011587 -0.014209,0.00448 -0.017146,0.00682 -0.021134,0.018457 -0.00389,0.011575 0.016134,0.011327 0.00524,0.014677 -0.010874,0.00326 -0.018524,0.00995 -0.013756,0.00995 0.00476,2.323e-4 0.053622,-0.00611 0.053622,-0.00621 0,0 -0.014122,0.00447 -0.030347,0.00946 -0.016303,0.00499 -0.034772,0.01039 -0.033213,0.024327 0.00156,0.01398 0.028173,3.78e-4 0.028185,3.268e-4 z" />
    <path
   id="_510585424"
   class="fil3"
   d="m 3.58866,2.56449 c 0.013886,0.00499 0.01365,0 0.026902,-0.00402 0.013327,-0.00412 0.012185,-0.00412 0.03111,-0.00582 0.018886,-0.00167 0.00509,-0.028551 0.00926,-0.032342 0,-1.58e-5 0.00916,0.00574 -0.00243,-0.00409 C 3.641813,2.508288 3.635069,2.505899 3.661702,2.507785 3.688293,2.509595 3.6621193,2.496742 3.655242,2.492301 3.648322,2.487791 3.645203,2.490551 3.627419,2.489271 3.609557,2.488011 3.617246,2.506586 3.617246,2.506586 c 0,0 -0.00645,0.00361 -0.019197,-0.00428 -0.012728,-0.00794 -0.015807,-0.00213 -0.017315,0.013756 -0.00152,0.015898 0.00388,0.01022 0.014067,0.010988 0.010224,7.126e-4 -7.402e-4,0.00691 -0.00981,0.00828 -0.00894,0.00138 -0.014158,0.00996 -0.013847,0.016988 1.968e-4,0.00698 0.00372,0.00725 0.017512,0.012173 z" />
    <path
   id="_510585520"
   class="fil3"
   d="m 3.93555,2.02485 c 0.012055,1.299e-4 0.016405,-0.012457 0.0275,-0.012417 0.011043,1.535e-4 5.945e-4,0.012756 5.945e-4,0.012705 -0.030236,0.00653 -0.031575,0.00417 -0.00843,0.020496 0.023098,0.016287 0.018043,3.11e-4 0.032945,0.00739 0.014937,0.00708 0.00705,2.204e-4 0.016547,-0.019339 0.00948,-0.019539 0.00513,-0.014941 0.02176,-0.01711 0.016732,-0.00218 0.014846,0.014095 0.022276,0.017693 0,0 0.017004,0.00721 0.032941,0.00743 0.016043,1.693e-4 0.01911,-0.00681 0.012055,-0.00687 -0.00696,-9.45e-5 -0.019937,-2.598e-4 -0.033772,-0.014433 -0.013835,-0.014213 -0.05174,-0.021524 -0.05174,-0.021524 0,-1.18e-5 0.011004,1.181e-4 0.016276,0.00247 0.00531,0.00238 0.02763,0.0049 0.041606,0.00505 0.014032,3.94e-5 0.016823,-0.0011 0.034866,-0.0081 0.018106,-0.00699 0.00785,-0.016575 0.00785,-0.016575 0,0 -0.03098,-1.181e-4 -0.045972,-1.575e-4 -0.014976,-7.87e-5 -0.027902,-1.574e-4 -0.046917,-2.086e-4 -0.019016,-6.69e-5 -0.02424,0.00578 -0.052193,0.00564 -0.027953,-1.536e-4 -0.031996,-1.536e-4 -0.046012,-2.441e-4 -0.013976,-3.94e-5 -0.013705,0.010311 -0.012,0.024055 0.00174,0.013717 0.017768,0.013925 0.029823,0.014055 z"
   style="display:inline" />
   </g>
   
  </g>
 </g>
 
</svg>
