<svg width="16" height="16" viewBox="0 0 16 16" fill="none" xmlns="http://www.w3.org/2000/svg">
<path d="M4.66659 4.24123C5.57464 3.70624 6.68074 3.33333 7.99992 3.33333C12.095 3.33333 14.1367 6.92684 14.5753 7.80712C14.6364 7.92959 14.6365 8.07026 14.5754 8.19273C14.2959 8.75363 13.3652 10.417 11.6666 11.5496M9.33325 12.5334C8.91556 12.619 8.47135 12.6667 7.99992 12.6667C3.90483 12.6667 1.86318 9.07315 1.42449 8.19287C1.36345 8.0704 1.36357 7.92935 1.42461 7.80688C1.59332 7.46838 1.99879 6.72923 2.66659 5.94742" stroke="white" stroke-width="1.5" stroke-linecap="round" stroke-linejoin="round"/>
<path d="M6.66675 6.50926C7.02059 6.19257 7.48785 6 8.00008 6C9.10465 6 10.0001 6.89543 10.0001 8C10.0001 8.51224 9.80751 8.9795 9.49082 9.33333" stroke="white" stroke-width="1.5" stroke-linecap="round" stroke-linejoin="round"/>
<path d="M2 2L14 14" stroke="white" stroke-width="1.5" stroke-linecap="round" stroke-linejoin="round"/>
</svg>
