<?xml version="1.0" encoding="UTF-8" standalone="no"?>
<!-- Creator: CorelDRAW -->

<svg
   xml:space="preserve"
   width="24"
   height="24"
   style="clip-rule:evenodd;fill-rule:evenodd;image-rendering:optimizeQuality;shape-rendering:geometricPrecision;text-rendering:geometricPrecision"
   viewBox="0 0 0.24999999 0.24999999"
   version="1.1"
   id="svg6"
   sodipodi:docname="map.svg"
   inkscape:version="1.3.2 (091e20e, 2023-11-25)"
   xmlns:inkscape="http://www.inkscape.org/namespaces/inkscape"
   xmlns:sodipodi="http://sodipodi.sourceforge.net/DTD/sodipodi-0.dtd"
   xmlns="http://www.w3.org/2000/svg"
   xmlns:svg="http://www.w3.org/2000/svg"><sodipodi:namedview
   id="namedview6"
   pagecolor="#505050"
   bordercolor="#eeeeee"
   borderopacity="1"
   inkscape:showpageshadow="0"
   inkscape:pageopacity="0"
   inkscape:pagecheckerboard="0"
   inkscape:deskcolor="#505050"
   inkscape:document-units="in"
   inkscape:zoom="6.7836314"
   inkscape:cx="3.1693939"
   inkscape:cy="28.524545"
   inkscape:window-width="1312"
   inkscape:window-height="664"
   inkscape:window-x="213"
   inkscape:window-y="119"
   inkscape:window-maximized="0"
   inkscape:current-layer="Layer_x0020_1" />
 <defs
   id="defs1">
  <style
   type="text/css"
   id="style1">
   <![CDATA[
    .fil2 {fill:none}
    .fil0 {fill:#424242}
    .fil1 {fill:#FFFFFE;fill-rule:nonzero}
   ]]>
  </style>
 </defs>
 
 <g
   id="Layer_x0020_1"
   inkscape:label="Layer 1"
   inkscape:groupmode="layer">
  <metadata
   id="CorelCorpID_0Corel-Layer" />
  <path
   class="fil1"
   d="m 0.07270953,0.03707769 0.05236934,0.0203842 -0.001568,0.004053 0.001582,-0.004065 c 0.001755,6.8264e-4 0.002818,0.002377 0.00278,0.004157 v 0.13803538 c 0,0.002407 -0.001953,0.004364 -0.004362,0.004364 -6.869e-4,0 -0.001337,-1.5908e-4 -0.001915,-4.4213e-4 l -0.0523694,-0.0203842 0.0015677,-0.004053 -0.0015823,0.004066 c -0.0017557,-6.8307e-4 -0.0028181,-0.002377 -0.0027803,-0.004157 v -0.1380383 c 0,-0.002408 0.0019528,-0.004364 0.0043622,-0.004364 6.8691e-4,0 0.0013366,1.5908e-4 0.001915,4.4207e-4 z m 0.04643944,0.0274075 -0.04399235,-0.017124 v 0.12879839 l 0.04399235,0.0171239 z"
   id="path1"
   style="stroke-width:0.0408934" />
  
  <path
   class="fil1"
   d="m 0.06643239,0.04736078 -0.04399235,0.0171239 v 0.12879839 l 0.04399235,-0.017124 z M 0.01807796,0.06151706 0.01651032,0.05746387 0.0688793,0.0370797 c 5.7812e-4,-2.8512e-4 0.0012279,-4.4426e-4 0.001915,-4.4426e-4 0.0024088,0 0.0043622,0.00195 0.0043622,0.004364 v 0.13803581 c 3.799e-5,0.00178 -0.001024,0.003474 -0.0027799,0.004157 l -0.0015823,-0.004066 0.0015677,0.004053 -0.05236898,0.0203842 c -5.7814e-4,2.8299e-4 -0.0012281,4.4213e-4 -0.001915,4.4213e-4 -0.0024087,0 -0.0043622,-0.00195 -0.0043622,-0.004364 V 0.0616105 c -3.803e-5,-0.00178 0.001024,-0.003474 0.00278,-0.004157 z"
   id="path3"
   style="display:inline;fill:#fffffe;fill-opacity:1;stroke-width:0.0368041;stroke-dasharray:none" />
  
  
  
  
 <path
   class="fil1"
   d="m 0.17904735,0.03707769 0.0523696,0.0203842 -0.001566,0.004053 0.001584,-0.004065 c 0.001755,6.8264e-4 0.002816,0.002377 0.00278,0.004157 v 0.13803538 c 0,0.002407 -0.00195,0.004364 -0.004364,0.004364 -6.8874e-4,0 -0.001335,-1.5908e-4 -0.001914,-4.4213e-4 l -0.0523696,-0.0203842 0.001566,-0.004053 -0.001584,0.004066 c -0.001755,-6.8265e-4 -0.002816,-0.002377 -0.00278,-0.004157 v -0.1380383 c 0,-0.002408 0.00195,-0.004364 0.004364,-0.004364 6.8873e-4,0 0.001335,1.5908e-4 0.001914,4.4207e-4 z m 0.0464392,0.0274075 -0.0439926,-0.017124 v 0.12879839 l 0.0439926,0.0171239 z"
   id="path6"
   style="stroke-width:0.0408934" /><path
   class="fil1"
   d="m 0.17277016,0.04736078 -0.0439923,0.0171239 v 0.12879839 l 0.0439923,-0.0171239 z m -0.0483544,0.0141563 -0.001568,-0.004053 0.052369,-0.0203842 c 5.7818e-4,-2.8513e-4 0.001228,-4.4426e-4 0.001915,-4.4426e-4 0.002407,0 0.004364,0.00195 0.004364,0.004364 v 0.1380358 c 3.797e-5,0.00178 -0.001024,0.003474 -0.00278,0.004157 l -0.001584,-0.004066 0.001566,0.004053 -0.052369,0.0203842 c -5.7815e-4,2.8299e-4 -0.001228,4.4214e-4 -0.001915,4.4214e-4 -0.002409,0 -0.004362,-0.00195 -0.004362,-0.004364 V 0.0616105 c -3.803e-5,-0.00178 0.001024,-0.003474 0.00278,-0.004157 z"
   id="path7"
   style="display:inline;stroke-width:0.0408934" /></g>
</svg>
