<?xml version="1.0" encoding="UTF-8" standalone="no"?>
<svg
   class="record"
   width="400"
   height="400"
   version="1.1"
   id="svg13"
   xmlns:xlink="http://www.w3.org/1999/xlink"
   xmlns="http://www.w3.org/2000/svg"
   xmlns:svg="http://www.w3.org/2000/svg">
  <defs
     id="defs4">
    <filter
       id="filter3315"
       x="-.024"
       y="-.024"
       width="1.048"
       height="1.048">
      <feGaussianBlur
         stdDeviation="3.7"
         id="feGaussianBlur1" />
    </filter>
    <radialGradient
       id="radialGradient3328"
       cx="289.43"
       cy="209.67"
       r="92.5"
       gradientTransform="matrix(-.53298 .54647 -1.4851 -1.4484 484.2 164.09)"
       gradientUnits="userSpaceOnUse">
      <stop
         style="stop-color:#fff"
         offset="0"
         id="stop1" />
      <stop
         style="stop-color:#fff;stop-opacity:0"
         offset="1"
         id="stop2" />
    </radialGradient>
    <radialGradient
       id="radialGradient3349"
       cx="199.28"
       cy="192.84"
       r="53.688"
       gradientTransform="matrix(0,3.3323261,-1.1599172,0,423.67891,-464.06468)"
       gradientUnits="userSpaceOnUse">
      <stop
         style="stop-color:#f7f7f7"
         offset="0"
         id="stop3" />
      <stop
         style="stop-color:#e1e1e1"
         offset="1"
         id="stop4" />
    </radialGradient>
  </defs>
  <use
     transform="translate(2.7143,4)"
     width="100%"
     height="100%"
     style="display:inline;fill-opacity:0.5;filter:url(#filter3315)"
     xlink:href="#path3191"
     id="use4" />
  <g
     id="record-main">
    <path
       id="platter"
       d="M 200,15 C 97.88,15 15,97.88 15,200 15,302.12 97.88,385 200,385 302.12,385 385,302.12 385,200 385,97.88 302.12,15 200,15 Z m 0,179.81 c 2.8664,0 5.1875,2.321 5.1875,5.1875 0,2.8664 -2.321,5.1875 -5.1875,5.1875 -2.8664,0 -5.1875,-2.321 -5.1875,-5.1875 0,-2.8664 2.321,-5.1875 5.1875,-5.1875 z"
       style="display:inline" />
    <path
       style="display:inline;fill:none;fill-rule:evenodd;stroke:#d3d3d3;stroke-width:0.13;stroke-dasharray:none"
       id="path13"
       d="m 228.92898,266.16593 c -36.45213,16.16162 -80.35257,-0.91332 -96.49523,-37.32601 -16.27843,-36.71895 0.92189,-80.94001 37.6014,-97.19949 36.98578,-16.39524 81.52746,0.93045 97.90375,37.87678 16.51205,37.2526 -0.93901,82.11491 -38.15216,98.60802 -37.51943,16.62885 -82.70236,-0.94758 -99.31229,-38.42755 -16.74566,-37.78626 0.95614,-83.2898 38.70294,-100.01655 38.05308,-16.86247 83.87725,0.9647 100.72081,38.97832 16.97928,38.31991 -0.97327,84.4647 -39.2537,101.42508 -38.58673,17.09608 -85.05215,-0.98183 -102.12935,-39.52909 -17.21289,-38.85356 0.9904,-85.63959 39.80448,-102.83361 39.12038,-17.3297 86.22704,0.99896 103.53787,40.07986 17.44651,39.38721 -1.00752,86.81449 -40.35524,104.24214 -39.65404,17.56332 -87.40194,-1.01608 -104.9464,-40.63063 -17.68013,-39.92086 1.02464,-87.98938 40.90601,-105.65067 40.18768,-17.79693 88.57683,1.03321 106.35493,41.1814 17.91374,40.45451 -1.04177,89.16428 -41.45678,107.0592 -40.72134,18.03055 -89.75173,-1.05034 -107.76346,-41.73217 -18.14736,-40.98816 1.05889,-90.33918 42.00755,-108.46773 41.25498,-18.26416 90.92662,1.06746 109.17199,42.28294 18.38098,41.52181 -1.07602,91.51407 -42.55832,109.87626 -41.78864,18.49778 -92.10152,-1.08459 -110.58052,-42.83371 -18.6146,-42.05546 1.09315,-92.68897 43.10909,-111.28479 42.32229,-18.7314 93.27642,1.10172 111.98905,43.38448 18.84821,42.58911 -1.11028,93.86387 -43.65986,112.69332 -42.85594,18.96502 -94.45132,-1.11884 -113.39758,-43.93525 -19.08183,-43.12276 1.1274,-95.03876 44.21063,-114.10185 43.38959,-19.19863 95.62621,1.13597 114.80611,44.48602 19.31544,43.65641 -1.14453,96.21366 -44.7614,115.51038 -43.92324,19.43225 -96.80111,-1.15309 -116.21464,-45.03679 -19.549066,-44.19006 1.16165,-97.38856 45.31217,-116.9189 44.45689,-19.665877 97.976,1.17021 117.62317,45.58755 19.78268,44.72371 -1.17878,98.56346 -45.86294,118.32744 -44.99054,19.89949 -99.15091,-1.18734 -119.0317,-46.13833 -20.016301,-45.25736 1.1959,-99.73835 46.41371,-119.73596 45.52419,-20.133112 100.3258,1.20446 120.44023,46.68909 20.24991,45.79101 -1.21303,100.91325 -46.96448,121.14449 -46.05784,20.36673 -101.5007,-1.22159 -121.84876,-47.23986 -20.483537,-46.32466 1.23015,-102.08815 47.51525,-122.55302 46.59149,-20.600349 102.6756,1.23871 123.25729,47.79063 20.71715,46.85831 -1.24728,103.26305 -48.06602,123.96155 -47.12514,20.83397 -103.8505,-1.25584 -124.66582,-48.3414 -20.950774,-47.39196 1.2644,-104.43795 48.61679,-125.37008 47.65879,-21.067586 105.02539,1.27296 126.07435,48.89217 21.18439,47.92561 -1.28153,105.61285 -49.16756,126.77861 -48.19244,21.30121 -106.2003,-1.29009 -127.48288,-49.44294 -21.418012,-48.45926 1.29865,-106.78774 49.71833,-128.18714 48.72609,-21.534823 107.37519,1.30721 128.89141,49.99371 21.65163,48.99291 -1.31578,107.96264 -50.2691,129.59567 -49.25974,21.76844 -108.5501,-1.32434 -130.29994,-50.54448 -21.885249,-49.52656 1.3329,-109.13754 50.81987,-131.0042 49.79338,-22.002061 109.72499,1.34146 131.70846,51.09525 22.11887,50.06021 -1.35002,110.31244 -51.37063,132.41273 -50.32704,22.23568 -110.89989,-1.35859 -133.117,-51.64602 -22.352488,-50.59386 1.36715,-111.48734 51.92141,-133.82126 50.86068,-22.4693 112.07479,1.37571 134.52552,52.19679 22.58611,51.12751 -1.38427,112.66224 -52.47217,135.22979 -51.39434,22.70292 -113.24969,-1.39284 -135.93406,-52.74756 -22.819727,-51.66116 1.4014,-113.83714 53.02295,-136.63832 51.92798,-22.936539 114.42459,1.40996 137.34258,53.29833 23.05335,52.19481 -1.41852,115.01204 -53.57371,138.04685 -52.46164,23.17016 -115.59949,-1.42709 -138.75112,-53.8491 -23.286966,-52.72846 1.43565,-116.18694 54.12448,-139.45538 52.99529,-23.403778 116.7744,1.44421 140.15965,54.39987 23.52059,53.26211 -1.45277,117.36184 -54.67525,140.86391 -53.52893,23.6374 -117.94929,-1.46134 -141.56818,-54.95064 -23.754205,-53.79576 1.4699,-118.53674 55.22602,-142.27244 54.06259,-23.871018 119.1242,1.47846 142.97671,55.50141 23.98783,54.32941 -1.48702,119.71164 -55.77679,143.68097 C 188.91467,323.57866 123.21181,297.97843 99.125663,243.42184 74.904214,188.55879 100.62981,122.5353 155.45322,98.332341 c 55.12989,-24.338259 121.474,1.512711 145.79377,56.602949 24.45507,55.3967 -1.52127,122.06144 -56.87833,146.49803 C 188.70513,326.0052 121.71977,299.90348 97.166364,244.2796 72.477674,188.34925 98.704761,121.04326 154.59546,96.373041 c 56.19718,-24.805499 123.8238,1.54696 148.61083,57.704489 24.92231,56.464 -1.55552,124.41124 -57.97987,149.31509 C 188.49559,328.43174 120.22773,301.82853 95.207064,245.13736 70.051133,188.13971 96.779711,119.55122 153.7377,94.413742 c 57.26448,-25.272741 126.1736,1.581209 151.42789,58.806028 25.38955,57.5313 -1.58977,126.76104 -59.08141,152.13215 C 188.28605,330.85828 118.73569,303.75359 93.247765,245.99512 67.624592,187.93017 94.85466,118.05918 152.87994,92.454443 211.21172,66.71446 281.40334,94.0699 307.12489,152.36201 c 25.85679,58.5986 -1.62402,129.11084 -60.18295,154.94921 -58.86542,25.9736 -129.69829,-1.63258 -155.653475,-60.45833 -26.090414,-59.13225 1.641144,-130.28575 60.733715,-156.357747 59.39908,-26.207225 130.8732,1.649706 157.06201,61.009107 26.32404,59.66589 -1.65827,131.46064 -61.28449,157.76627 C 187.86698,335.71136 115.7516,307.60369 89.329166,247.71065 62.771509,187.5111 91.004558,115.0751 151.16442,88.535844 c 60.46637,-26.674467 133.223,1.683953 159.87907,62.110636 26.79128,60.7332 -1.69252,133.81046 -62.38603,160.58334 -61.00002,26.90809 -134.3979,-1.70108 -161.287594,-62.66141 -27.024899,-61.26685 1.70964,-134.98536 62.936794,-161.991866 61.53367,-27.141709 135.5728,1.718202 162.69613,63.212176 27.25852,61.8005 -1.72677,136.16026 -63.48757,163.4004 -62.06731,27.37533 -136.7477,-1.73533 -164.104653,-63.76295 -27.492142,-62.33415 1.743888,-137.33516 64.038333,-164.808925 62.60097,-27.608953 137.92261,1.75245 165.51319,64.313715 27.72576,62.8678 -1.76101,138.51006 -64.58911,166.21746 -63.13461,27.84257 -139.0975,-1.76958 -166.921713,-64.86449 -27.959384,-63.40144 1.778136,-139.68496 65.139873,-167.625985 63.66827,-28.076195 140.27241,1.786698 168.33025,65.415255 28.193,63.93509 -1.79526,140.85986 -65.69065,169.03452 C 187.02883,345.41753 109.78343,315.30389 81.491968,251.14169 53.06534,186.67295 83.304352,109.10693 147.73338,80.698646 212.46894,52.155207 290.35559,82.519592 318.88069,147.21544 347.54094,212.21783 317.05118,290.42511 252.0885,319.06701 186.81929,347.84407 108.29139,317.22894 79.532669,251.99945 50.638797,186.46341 81.3793,107.61488 146.87562,78.739346 212.67848,49.728664 291.84763,80.59454 320.83999,146.35768 349.96748,212.42737 318.97623,291.91715 252.94627,321.02631 186.60976,350.27062 106.79935,319.154 77.573369,252.85721 48.212254,186.25388 79.454248,106.12284 146.01786,76.780047 212.88802,47.302121 293.33968,78.669488 322.79929,145.49992 352.39402,212.6369 320.90128,293.40919 253.80403,322.98561 186.40022,352.69716 105.30731,321.07905 75.61407,253.71497 45.785711,186.04434 77.529197,104.6308 145.1601,74.820747 c 67.93745,-29.945169 149.67162,1.923689 179.59849,69.821413 30.06198,68.20428 -1.93226,150.25907 -70.0968,180.30275 C 186.19068,355.1237 103.81526,323.0041 73.65477,254.57273 43.359168,185.8348 75.604145,103.13875 144.30234,72.861448 c 69.00475,-30.412414 152.02143,1.957936 182.41554,70.922952 30.52923,69.27158 -1.96649,152.60888 -71.19833,183.11981 -69.5384,30.64604 -153.19633,-1.97506 -183.824079,-71.47372 -30.762847,-69.80522 1.983622,-153.78378 71.749109,-184.528341 70.07204,-30.879658 154.37123,1.992183 185.2326,72.024491 30.99647,70.33887 -2.00074,154.95868 -72.29987,185.93687 C 185.77161,359.97679 100.83117,326.8542 69.736171,256.28825 38.50608,185.41573 71.754041,100.15467 142.58682,68.942849 213.72616,37.595947 299.30785,70.96928 330.63648,142.06888 362.1002,213.47505 328.60149,299.37737 257.23507,330.82281 185.56208,362.40334 99.339131,328.77926 67.776872,257.14601 36.079536,185.20619 69.828989,98.662622 141.72906,66.98355 213.9357,35.169403 300.7999,69.044228 332.59578,141.21112 364.52674,213.68458 330.52654,300.86941 258.09283,332.78211 185.35254,364.82988 97.847086,330.70431 65.817572,258.00377 33.652992,184.99666 67.903936,97.170578 140.8713,65.02425 214.14523,32.742859 302.29194,67.119176 334.55508,140.35336 366.95329,213.89412 332.4516,302.36145 258.95059,334.74141 185.143,367.25642 96.355042,332.62936 63.858273,258.86153 31.226448,184.78712 65.978884,95.678534 140.01354,63.064951 c 74.34123,-32.748637 163.77045,2.129173 196.50084,76.430649 32.86545,74.60806 -2.13773,164.3579 -76.70603,197.20511 -74.87488,32.98226 -164.945352,-2.1463 -197.909377,-76.98142 -33.09907,-75.1417 2.154859,-165.532801 77.256807,-198.613639 75.40853,-33.215881 166.12025,2.16342 199.3179,77.532189 33.33269,75.67535 -2.17198,166.7077 -77.80757,200.02217 -75.94218,33.4495 -167.295157,-2.18054 -200.726436,-78.08296 -33.566315,-76.209 2.189105,-167.882605 78.358346,-201.430698 76.47582,-33.683127 168.47005,2.197667 202.13496,78.633728 33.79994,76.74265 -2.20623,169.05751 -78.90911,202.83923 C 184.5144,374.53606 91.878908,338.40452 57.980374,261.43481 23.946814,184.15851 60.203727,91.2024 137.44026,57.187052 214.98338,23.036681 308.26012,59.418967 342.39228,136.92232 376.65946,214.73226 340.1518,308.32963 262.38163,342.57861 184.30486,376.9626 90.386863,340.32957 56.021075,262.29257 21.520269,183.94898 58.278674,89.710355 136.5825,55.227753 215.19291,20.610136 309.75216,57.493914 344.35158,136.06456 379.08601,214.9418 342.07686,309.82168 263.23939,344.53791 184.09532,379.38915 88.894818,342.25462 54.061776,263.15033 19.093724,183.73944 56.353622,88.21831 135.72474,53.268453 215.40245,18.183591 311.24421,55.568861 346.31088,135.2068 381.51255,215.15134 344.00191,311.31372 264.09715,346.49721 183.88579,381.81569 87.402773,344.17968 52.102476,264.00809 16.667179,183.52991 54.428569,86.726265 134.86698,51.309154 c 80.745,-35.552108 177.86927,2.334655 213.4032,83.039886 35.66892,81.01183 -2.34322,178.45673 -83.31527,214.10747 C 183.67625,384.24224 85.910728,346.10473 50.143177,264.86585 14.240634,183.32037 52.503517,85.234219 134.00922,49.349855 215.82152,13.330501 314.2283,51.718756 350.22948,133.49128 386.36564,215.57041 347.85201,314.29781 265.81267,350.41581 183.46672,386.66878 84.418683,348.02978 48.183877,265.72361 11.814089,183.11084 50.578464,83.742174 133.15145,47.390555 c 82.87961,-36.4866 182.5689,2.403149 219.03733,85.242965 36.60341,83.14642 -2.41171,183.15634 -85.51835,219.74159 C 183.25718,389.09533 82.926637,349.95483 46.224578,266.58137 9.3875436,182.9013 48.653411,82.250128 132.29369,45.431256 216.24059,8.4774099 317.21239,47.868651 354.14808,131.77576 391.21873,215.98948 351.70212,317.28191 267.52819,354.3344 183.04765,391.52187 81.434592,351.87989 44.265278,267.43913 6.9609981,182.69177 46.728359,80.758083 131.43593,43.471956 216.45013,6.0508644 318.70444,45.943598 356.10738,130.918 393.64528,216.19901 353.62717,318.77395 268.38595,356.2937 182.83811,393.94842 79.942546,353.80494 42.305979,268.29689 4.5344525,182.48223 44.803306,79.266037 130.57817,41.512657 216.65966,3.6243188 320.19648,44.018545 358.06668,130.06024 396.07183,216.40855 355.55223,320.266 269.24371,358.253 182.62858,396.37496 78.4505,355.72999 40.346679,269.15465 2.1079068,182.27269 42.878253,77.773991 129.72041,39.553357 216.8692,1.1977731 321.68853,42.093492 360.02598,129.20248 398.49837,216.61808 357.47728,321.75804 270.10147,360.2123 182.41904,398.80151 76.958454,357.65504 38.38738,270.01241 -0.31863893,182.06316 40.9532,76.281945 128.86265,37.594058 217.07873,-1.2287727 323.18057,40.16844 361.98528,128.34472 400.92492,216.82762 359.40233,323.25009 270.95923,362.1716 182.2095,401.22806 75.466408,359.5801 36.42808,270.87018 -2.7451848,181.85362 39.028147,74.7899 128.00489,35.634758 217.28827,-3.6553186 324.67262,38.243387 363.94457,127.48696 403.35146,217.03715 361.32738,324.74213 271.81699,364.1309 181.99997,403.6546 73.974362,361.50515 34.468781,271.72794 -5.1717307,181.64409 37.103094,73.297853 127.14713,33.675459 c 90.35067,-39.7573235 199.01754,2.642875 238.75674,92.953731 39.87414,90.6175 -2.65143,199.60499 -93.22912,239.46101 -42.1128,18.53049 -90.59267,20.33849 -133.97486,5.01963" />
    <path
       d="m 244.03094,155.96906 c -24.30375,-24.30374 -63.76413,-24.30374 -88.06788,0 -24.30374,24.30375 -24.30374,63.76413 0,88.06788 24.30375,24.30374 63.76413,24.30374 88.06788,0 24.30374,-24.30375 24.30374,-63.76413 0,-88.06788 z m -39.77936,39.77936 c 2.35103,2.35104 2.35103,6.15835 0,8.50939 -2.35104,2.35103 -6.15835,2.35103 -8.50939,0 -2.35103,-2.35104 -2.35103,-6.15835 0,-8.50939 2.35104,-2.35103 6.15835,-2.35103 8.50939,0 z"
       style="display:inline;fill:#f7f7f7;stroke-width:1.15992;fill-opacity:1"
       id="path8" />
    <text
       x="200.32707"
       y="183.05084"
       style="display:inline;fill:#000000"
       xml:space="preserve"
       id="text10"><title
         id="title10">404</title><tspan
         x="200.32707"
         y="183.05084"
         style="font-style:normal;font-variant:normal;font-weight:normal;font-stretch:normal;font-size:26.667px;font-family:'Bradley Hand';-inkscape-font-specification:'Bradley Hand';font-variant-ligatures:normal;font-variant-caps:normal;font-variant-numeric:normal;font-variant-east-asian:normal;text-align:center;text-anchor:middle"
         id="tspan10">404</tspan></text>
    <text
       id="title"
       x="198.30508"
       y="222.88136"
       style="font-size:26.667px;font-family:'Lucida Grande';font-variant-ligatures:normal;font-variant-caps:normal;font-variant-numeric:normal;font-variant-east-asian:normal;text-align:center;text-anchor:middle;display:inline;fill:none;stroke:#cccccc"
       xml:space="preserve"><title
         id="title11">pagenotfound</title><tspan
         x="198.30508"
         y="222.88136"
         style="font-style:normal;font-variant:normal;font-weight:bold;font-stretch:normal;font-size:8px;font-family:'Bradley Hand';-inkscape-font-specification:'Bradley Hand Bold';font-variant-ligatures:normal;font-variant-caps:normal;font-variant-numeric:normal;font-variant-east-asian:normal;fill:#000000;stroke:none"
         id="tspan11">&quot;PAGE NOT FOUND&quot;</tspan></text>
    <circle
       style="display:inline;opacity:1;fill:none;stroke:#000000;stroke-width:0.83;stroke-linejoin:round;stroke-dasharray:none;stroke-opacity:1;paint-order:stroke fill markers"
       id="path16"
       cx="199.6965"
       cy="199.6965"
       r="57.056145" />
    <circle
       style="display:inline;opacity:1;fill:none;stroke:#000000;stroke-width:2.5;stroke-linejoin:round;stroke-dasharray:none;stroke-opacity:1;paint-order:stroke fill markers"
       id="circle16"
       cx="199.6965"
       cy="199.6965"
       r="95.019775" />
    <circle
       style="display:inline;opacity:1;fill:none;stroke:#000000;stroke-width:2.5;stroke-linejoin:round;stroke-dasharray:none;stroke-opacity:1;paint-order:stroke fill markers"
       id="circle17"
       cx="199.6965"
       cy="199.6965"
       r="120.13211" />
    <circle
       style="display:inline;opacity:1;fill:none;stroke:#000000;stroke-width:2.97505;stroke-linejoin:round;stroke-dasharray:none;stroke-opacity:1;paint-order:stroke fill markers"
       id="circle18"
       cx="199.6965"
       cy="199.6965"
       r="142.95984" />
    <circle
       style="display:inline;opacity:1;fill:none;stroke:#000000;stroke-width:3.4001;stroke-linejoin:round;stroke-dasharray:none;stroke-opacity:1;paint-order:stroke fill markers"
       id="circle19"
       cx="199.6965"
       cy="199.6965"
       r="163.38464" />
  </g>
  <g
     id="record-highlight">
    <use
       id="highlight_main_R"
       transform="rotate(180,200,200)"
       width="100%"
       height="100%"
       xlink:href="#highlight_main_L"
       style="display:inline">
      <title
         id="title12">highlight_main_R</title>
    </use>
    <path
       id="highlight_main_L"
       d="m 190.34,203.39 c 0,-51.651 -42.835,-19.865 8.8168,-19.865 l 0.84746,-164.96 c -100.15,0 -181.44,81.289 -181.44,181.44 z"
       style="display:inline;fill:url(#radialGradient3328)">
      <title
         id="title13">highlight_main_L</title>
    </path>
  </g>
</svg>
