<?xml version="1.0" encoding="UTF-8" standalone="no"?>
<svg
   class="record"
   width="400"
   height="400"
   version="1.1"
   id="svg13"
   viewBox="0 0 400 400"
   xml:space="preserve"
   xmlns:xlink="http://www.w3.org/1999/xlink"
   xmlns="http://www.w3.org/2000/svg"
   xmlns:svg="http://www.w3.org/2000/svg"><defs
     id="defs4"><linearGradient
   id="linearGradient1560"><stop
     style="stop-color:#ededed;stop-opacity:1;"
     offset="0"
     id="stop1561" /><stop
     style="stop-color:#939393;stop-opacity:1;"
     offset="1"
     id="stop1562" /></linearGradient><linearGradient
   id="linearGradient1031"><stop
     style="stop-color:#e7e7e7;stop-opacity:1;"
     offset="0"
     id="stop1031" /><stop
     style="stop-color:#919191;stop-opacity:1;"
     offset="1"
     id="stop1032" /></linearGradient><linearGradient
   id="linearGradient1024"><stop
     style="stop-color:#e3e3e3;stop-opacity:0.98030633;"
     offset="0"
     id="stop1025" /><stop
     style="stop-color:#535353;stop-opacity:1;"
     offset="1"
     id="stop1024" /></linearGradient><linearGradient
   id="linearGradient944"><stop
     style="stop-color:#c1c1c1;stop-opacity:1;"
     offset="0"
     id="stop944" /><stop
     style="stop-color:#000000;stop-opacity:0;"
     offset="0.96866447"
     id="stop945" /></linearGradient><linearGradient
   id="linearGradient942"><stop
     style="stop-color:#000000;stop-opacity:1;"
     offset="0"
     id="stop942" /><stop
     style="stop-color:#eaeaea;stop-opacity:0;"
     offset="1"
     id="stop943" /></linearGradient><linearGradient
   id="linearGradient926"><stop
     style="stop-color:#cdcdcd;stop-opacity:1;"
     offset="0"
     id="stop926" /><stop
     style="stop-color:#ffffff;stop-opacity:1;"
     offset="0.25"
     id="stop928" /><stop
     style="stop-color:#afafaf;stop-opacity:1;"
     offset="0.36574075"
     id="stop929" /><stop
     style="stop-color:#959595;stop-opacity:1;"
     offset="0.43287036"
     id="stop930" /><stop
     style="stop-color:#5a5a5a;stop-opacity:1;"
     offset="0.52777779"
     id="stop931" /><stop
     style="stop-color:#2e2e2e;stop-opacity:1;"
     offset="0.64699078"
     id="stop932" /><stop
     style="stop-color:#353535;stop-opacity:1;"
     offset="0.67100698"
     id="stop934" /><stop
     style="stop-color:#e1e1e1;stop-opacity:1;"
     offset="0.82465279"
     id="stop933" /><stop
     style="stop-color:#8e8e8e;stop-opacity:1;"
     offset="1"
     id="stop927" /></linearGradient><linearGradient
   id="linearGradient364"><stop
     style="stop-color:#c0c0c0;stop-opacity:1;"
     offset="0"
     id="stop364" /><stop
     style="stop-color:#ffffff;stop-opacity:1;"
     offset="0.33908045"
     id="stop366" /><stop
     style="stop-color:#b4b4b4;stop-opacity:1;"
     offset="0.45607552"
     id="stop367" /><stop
     style="stop-color:#787878;stop-opacity:1;"
     offset="0.72557473"
     id="stop368" /><stop
     style="stop-color:#000000;stop-opacity:1;"
     offset="1"
     id="stop365" /></linearGradient><linearGradient
   id="linearGradient26"><stop
     style="stop-color:#cccccc;stop-opacity:1;"
     offset="0"
     id="stop26" /><stop
     style="stop-color:#909090;stop-opacity:1;"
     offset="0.778135"
     id="stop27" /></linearGradient><filter
   id="filter3315"
   x="-0.024"
   y="-0.024"
   width="1.048"
   height="1.048"><feGaussianBlur
     stdDeviation="3.7"
     id="feGaussianBlur1" /></filter><radialGradient
   id="radialGradient3328"
   cx="289.42999"
   cy="209.67"
   r="92.5"
   gradientTransform="matrix(-0.53298,0.54647,-1.4851,-1.4484,484.90004,166.89)"
   gradientUnits="userSpaceOnUse"><stop
     style="stop-color:#fff"
     offset="0"
     id="stop1" /><stop
     style="stop-color:#fff;stop-opacity:0"
     offset="1"
     id="stop2" /></radialGradient><radialGradient
   id="radialGradient3349"
   cx="199.28"
   cy="192.84"
   r="53.688"
   gradientTransform="matrix(-1.4174041,2.9899829,-1.0407533,-0.49337106,683.91135,-297.64927)"
   gradientUnits="userSpaceOnUse"><stop
     style="stop-color:#f7f7f7"
     offset="0"
     id="stop3" /><stop
     style="stop-color:#e1e1e1"
     offset="1"
     id="stop4" /></radialGradient><filter
   style="color-interpolation-filters:sRGB"
   id="filter19"
   x="-0.066134036"
   y="-0.07691665"
   width="1.1322681"
   height="1.1538333"><feGaussianBlur
     stdDeviation="14.992248"
     id="feGaussianBlur19" /></filter>
    <linearGradient
   xlink:href="#linearGradient26"
   id="linearGradient27"
   x1="430.57407"
   y1="66.663956"
   x2="483.88342"
   y2="120.90855"
   gradientUnits="userSpaceOnUse"
   gradientTransform="matrix(0.97342708,0,0,0.98007031,119.8753,28.267074)" /><filter
   style="color-interpolation-filters:sRGB"
   id="filter27"
   x="-0.13333334"
   y="-0.13333334"
   width="1.2666667"
   height="1.2666667"><feGaussianBlur
     stdDeviation="3.9551214"
     id="feGaussianBlur27" /></filter>
    <mask
   maskUnits="userSpaceOnUse"
   id="mask36"><circle
     style="display:inline;fill:#ff00ff;fill-opacity:1;stroke:none;stroke-width:2.5637;stroke-dasharray:none;stroke-opacity:0"
     id="circle36"
     cx="484.90747"
     cy="22.418898"
     r="31.606007"
     transform="rotate(11.814991)" /></mask>
    <linearGradient
   xlink:href="#linearGradient364"
   id="linearGradient798"
   x1="418.60721"
   y1="193.39371"
   x2="426.03183"
   y2="193.39371"
   gradientUnits="userSpaceOnUse"
   gradientTransform="translate(-228.92582,-615.71322)" /><linearGradient
   xlink:href="#linearGradient926"
   id="linearGradient927"
   x1="339.25"
   y1="41.625"
   x2="369.75"
   y2="41.625"
   gradientUnits="userSpaceOnUse"
   gradientTransform="translate(207.94983,9.017284)" /><linearGradient
   xlink:href="#linearGradient926"
   id="linearGradient936"
   x1="339.25"
   y1="28.125"
   x2="369.5"
   y2="28.125"
   gradientUnits="userSpaceOnUse"
   gradientTransform="translate(207.94983,9.017284)" /><linearGradient
   xlink:href="#linearGradient926"
   id="linearGradient938"
   x1="347"
   y1="86.25"
   x2="361.875"
   y2="86.25"
   gradientUnits="userSpaceOnUse"
   gradientTransform="translate(207.94983,9.017284)" /><linearGradient
   xlink:href="#linearGradient926"
   id="linearGradient940"
   x1="347"
   y1="52.25"
   x2="361.875"
   y2="52.25"
   gradientUnits="userSpaceOnUse"
   gradientTransform="translate(207.94983,9.017284)" /><linearGradient
   xlink:href="#linearGradient926"
   id="linearGradient941"
   gradientUnits="userSpaceOnUse"
   x1="347"
   y1="52.25"
   x2="361.875"
   y2="52.25"
   gradientTransform="matrix(1,0,0,0.86160715,130.37349,183.71339)" /><linearGradient
   xlink:href="#linearGradient942"
   id="linearGradient943"
   x1="-285.2338"
   y1="368.11215"
   x2="193.6098"
   y2="368.11215"
   gradientUnits="userSpaceOnUse" /><linearGradient
   xlink:href="#linearGradient944"
   id="linearGradient945"
   x1="367.16516"
   y1="267.9888"
   x2="407.02832"
   y2="267.9888"
   gradientUnits="userSpaceOnUse"
   gradientTransform="translate(107.01952,-9.8500076)"
   spreadMethod="reflect" /><linearGradient
   xlink:href="#linearGradient364"
   id="linearGradient946"
   gradientUnits="userSpaceOnUse"
   gradientTransform="translate(-228.92582,-615.71322)"
   x1="418.60721"
   y1="193.39371"
   x2="426.03183"
   y2="193.39371" /><linearGradient
   xlink:href="#linearGradient364"
   id="linearGradient947"
   gradientUnits="userSpaceOnUse"
   gradientTransform="translate(-228.92582,-615.71322)"
   x1="418.60721"
   y1="193.39371"
   x2="426.03183"
   y2="193.39371" /><linearGradient
   xlink:href="#linearGradient364"
   id="linearGradient948"
   gradientUnits="userSpaceOnUse"
   gradientTransform="translate(-228.92582,-615.71322)"
   x1="418.60721"
   y1="193.39371"
   x2="426.03183"
   y2="193.39371" /><linearGradient
   xlink:href="#linearGradient364"
   id="linearGradient949"
   gradientUnits="userSpaceOnUse"
   gradientTransform="translate(-228.92582,-615.71322)"
   x1="418.60721"
   y1="193.39371"
   x2="426.03183"
   y2="193.39371" /><linearGradient
   xlink:href="#linearGradient364"
   id="linearGradient950"
   gradientUnits="userSpaceOnUse"
   gradientTransform="translate(-228.92582,-615.71322)"
   x1="418.60721"
   y1="193.39371"
   x2="426.03183"
   y2="193.39371" /><linearGradient
   xlink:href="#linearGradient364"
   id="linearGradient951"
   gradientUnits="userSpaceOnUse"
   gradientTransform="translate(-228.92582,-615.71322)"
   x1="418.60721"
   y1="193.39371"
   x2="426.03183"
   y2="193.39371" /><linearGradient
   xlink:href="#linearGradient364"
   id="linearGradient952"
   gradientUnits="userSpaceOnUse"
   gradientTransform="translate(-228.92582,-615.71322)"
   x1="418.60721"
   y1="193.39371"
   x2="426.03183"
   y2="193.39371" /><linearGradient
   xlink:href="#linearGradient364"
   id="linearGradient953"
   gradientUnits="userSpaceOnUse"
   gradientTransform="translate(-228.92582,-615.71322)"
   x1="418.60721"
   y1="193.39371"
   x2="426.03183"
   y2="193.39371" /><linearGradient
   xlink:href="#linearGradient364"
   id="linearGradient954"
   gradientUnits="userSpaceOnUse"
   gradientTransform="translate(-228.92582,-615.71322)"
   x1="418.60721"
   y1="193.39371"
   x2="426.03183"
   y2="193.39371" /><linearGradient
   xlink:href="#linearGradient364"
   id="linearGradient955"
   gradientUnits="userSpaceOnUse"
   gradientTransform="translate(-228.92582,-615.71322)"
   x1="418.60721"
   y1="193.39371"
   x2="426.03183"
   y2="193.39371" /><linearGradient
   xlink:href="#linearGradient364"
   id="linearGradient956"
   gradientUnits="userSpaceOnUse"
   gradientTransform="translate(-228.92582,-615.71322)"
   x1="418.60721"
   y1="193.39371"
   x2="426.03183"
   y2="193.39371" /><linearGradient
   xlink:href="#linearGradient364"
   id="linearGradient957"
   gradientUnits="userSpaceOnUse"
   gradientTransform="translate(-228.92582,-615.71322)"
   x1="418.60721"
   y1="193.39371"
   x2="426.03183"
   y2="193.39371" /><linearGradient
   xlink:href="#linearGradient364"
   id="linearGradient958"
   gradientUnits="userSpaceOnUse"
   gradientTransform="translate(-228.92582,-615.71322)"
   x1="418.60721"
   y1="193.39371"
   x2="426.03183"
   y2="193.39371" /><linearGradient
   xlink:href="#linearGradient364"
   id="linearGradient959"
   gradientUnits="userSpaceOnUse"
   gradientTransform="translate(-228.92582,-615.71322)"
   x1="418.60721"
   y1="193.39371"
   x2="426.03183"
   y2="193.39371" /><linearGradient
   xlink:href="#linearGradient364"
   id="linearGradient960"
   gradientUnits="userSpaceOnUse"
   gradientTransform="translate(-228.92582,-615.71322)"
   x1="418.60721"
   y1="193.39371"
   x2="426.03183"
   y2="193.39371" /><linearGradient
   xlink:href="#linearGradient364"
   id="linearGradient961"
   gradientUnits="userSpaceOnUse"
   gradientTransform="translate(-228.92582,-615.71322)"
   x1="418.60721"
   y1="193.39371"
   x2="426.03183"
   y2="193.39371" /><linearGradient
   xlink:href="#linearGradient364"
   id="linearGradient962"
   gradientUnits="userSpaceOnUse"
   gradientTransform="translate(-228.92582,-615.71322)"
   x1="418.60721"
   y1="193.39371"
   x2="426.03183"
   y2="193.39371" /><linearGradient
   xlink:href="#linearGradient364"
   id="linearGradient963"
   gradientUnits="userSpaceOnUse"
   gradientTransform="translate(-228.92582,-615.71322)"
   x1="418.60721"
   y1="193.39371"
   x2="426.03183"
   y2="193.39371" /><linearGradient
   xlink:href="#linearGradient364"
   id="linearGradient964"
   gradientUnits="userSpaceOnUse"
   gradientTransform="translate(-228.92582,-615.71322)"
   x1="418.60721"
   y1="193.39371"
   x2="426.03183"
   y2="193.39371" /><linearGradient
   xlink:href="#linearGradient364"
   id="linearGradient965"
   gradientUnits="userSpaceOnUse"
   gradientTransform="translate(-228.92582,-615.71322)"
   x1="418.60721"
   y1="193.39371"
   x2="426.03183"
   y2="193.39371" /><linearGradient
   xlink:href="#linearGradient364"
   id="linearGradient966"
   gradientUnits="userSpaceOnUse"
   gradientTransform="translate(-228.92582,-615.71322)"
   x1="418.60721"
   y1="193.39371"
   x2="426.03183"
   y2="193.39371" /><linearGradient
   xlink:href="#linearGradient364"
   id="linearGradient967"
   gradientUnits="userSpaceOnUse"
   gradientTransform="translate(-228.92582,-615.71322)"
   x1="418.60721"
   y1="193.39371"
   x2="426.03183"
   y2="193.39371" /><linearGradient
   xlink:href="#linearGradient364"
   id="linearGradient968"
   gradientUnits="userSpaceOnUse"
   gradientTransform="translate(-228.92582,-615.71322)"
   x1="418.60721"
   y1="193.39371"
   x2="426.03183"
   y2="193.39371" /><linearGradient
   xlink:href="#linearGradient364"
   id="linearGradient969"
   gradientUnits="userSpaceOnUse"
   gradientTransform="translate(-228.92582,-615.71322)"
   x1="418.60721"
   y1="193.39371"
   x2="426.03183"
   y2="193.39371" /><linearGradient
   xlink:href="#linearGradient364"
   id="linearGradient970"
   gradientUnits="userSpaceOnUse"
   gradientTransform="translate(-228.92582,-615.71322)"
   x1="418.60721"
   y1="193.39371"
   x2="426.03183"
   y2="193.39371" /><linearGradient
   xlink:href="#linearGradient364"
   id="linearGradient971"
   gradientUnits="userSpaceOnUse"
   gradientTransform="translate(-228.92582,-615.71322)"
   x1="418.60721"
   y1="193.39371"
   x2="426.03183"
   y2="193.39371" /><linearGradient
   xlink:href="#linearGradient364"
   id="linearGradient972"
   gradientUnits="userSpaceOnUse"
   gradientTransform="translate(-228.92582,-615.71322)"
   x1="418.60721"
   y1="193.39371"
   x2="426.03183"
   y2="193.39371" /><linearGradient
   xlink:href="#linearGradient364"
   id="linearGradient973"
   gradientUnits="userSpaceOnUse"
   gradientTransform="translate(-228.92582,-615.71322)"
   x1="418.60721"
   y1="193.39371"
   x2="426.03183"
   y2="193.39371" /><linearGradient
   xlink:href="#linearGradient364"
   id="linearGradient974"
   gradientUnits="userSpaceOnUse"
   gradientTransform="translate(-228.92582,-615.71322)"
   x1="418.60721"
   y1="193.39371"
   x2="426.03183"
   y2="193.39371" /><linearGradient
   xlink:href="#linearGradient364"
   id="linearGradient975"
   gradientUnits="userSpaceOnUse"
   gradientTransform="translate(-228.92582,-615.71322)"
   x1="418.60721"
   y1="193.39371"
   x2="426.03183"
   y2="193.39371" /><linearGradient
   xlink:href="#linearGradient364"
   id="linearGradient976"
   gradientUnits="userSpaceOnUse"
   gradientTransform="translate(-228.92582,-615.71322)"
   x1="418.60721"
   y1="193.39371"
   x2="426.03183"
   y2="193.39371" /><linearGradient
   xlink:href="#linearGradient364"
   id="linearGradient977"
   gradientUnits="userSpaceOnUse"
   gradientTransform="translate(-228.92582,-615.71322)"
   x1="418.60721"
   y1="193.39371"
   x2="426.03183"
   y2="193.39371" /><linearGradient
   xlink:href="#linearGradient364"
   id="linearGradient978"
   gradientUnits="userSpaceOnUse"
   gradientTransform="translate(-228.92582,-615.71322)"
   x1="418.60721"
   y1="193.39371"
   x2="426.03183"
   y2="193.39371" /><linearGradient
   xlink:href="#linearGradient364"
   id="linearGradient979"
   gradientUnits="userSpaceOnUse"
   gradientTransform="translate(-228.92582,-615.71322)"
   x1="418.60721"
   y1="193.39371"
   x2="426.03183"
   y2="193.39371" /><linearGradient
   xlink:href="#linearGradient364"
   id="linearGradient980"
   gradientUnits="userSpaceOnUse"
   gradientTransform="translate(-228.92582,-615.71322)"
   x1="418.60721"
   y1="193.39371"
   x2="426.03183"
   y2="193.39371" /><linearGradient
   xlink:href="#linearGradient364"
   id="linearGradient981"
   gradientUnits="userSpaceOnUse"
   gradientTransform="translate(-228.92582,-615.71322)"
   x1="418.60721"
   y1="193.39371"
   x2="426.03183"
   y2="193.39371" /><linearGradient
   xlink:href="#linearGradient364"
   id="linearGradient982"
   gradientUnits="userSpaceOnUse"
   gradientTransform="translate(-228.92582,-615.71322)"
   x1="418.60721"
   y1="193.39371"
   x2="426.03183"
   y2="193.39371" /><linearGradient
   xlink:href="#linearGradient364"
   id="linearGradient983"
   gradientUnits="userSpaceOnUse"
   gradientTransform="translate(-228.92582,-615.71322)"
   x1="418.60721"
   y1="193.39371"
   x2="426.03183"
   y2="193.39371" /><linearGradient
   xlink:href="#linearGradient364"
   id="linearGradient984"
   gradientUnits="userSpaceOnUse"
   gradientTransform="translate(-228.92582,-615.71322)"
   x1="418.60721"
   y1="193.39371"
   x2="426.03183"
   y2="193.39371" /><linearGradient
   xlink:href="#linearGradient364"
   id="linearGradient985"
   gradientUnits="userSpaceOnUse"
   gradientTransform="translate(-228.92582,-615.71322)"
   x1="418.60721"
   y1="193.39371"
   x2="426.03183"
   y2="193.39371" /><linearGradient
   xlink:href="#linearGradient364"
   id="linearGradient986"
   gradientUnits="userSpaceOnUse"
   gradientTransform="translate(-228.92582,-615.71322)"
   x1="418.60721"
   y1="193.39371"
   x2="426.03183"
   y2="193.39371" /><linearGradient
   xlink:href="#linearGradient364"
   id="linearGradient987"
   gradientUnits="userSpaceOnUse"
   gradientTransform="translate(-228.92582,-615.71322)"
   x1="418.60721"
   y1="193.39371"
   x2="426.03183"
   y2="193.39371" /><linearGradient
   xlink:href="#linearGradient364"
   id="linearGradient988"
   gradientUnits="userSpaceOnUse"
   gradientTransform="translate(-228.92582,-615.71322)"
   x1="418.60721"
   y1="193.39371"
   x2="426.03183"
   y2="193.39371" /><linearGradient
   xlink:href="#linearGradient364"
   id="linearGradient989"
   gradientUnits="userSpaceOnUse"
   gradientTransform="translate(-228.92582,-615.71322)"
   x1="418.60721"
   y1="193.39371"
   x2="426.03183"
   y2="193.39371" /><linearGradient
   xlink:href="#linearGradient364"
   id="linearGradient990"
   gradientUnits="userSpaceOnUse"
   gradientTransform="translate(-228.92582,-615.71322)"
   x1="418.60721"
   y1="193.39371"
   x2="426.03183"
   y2="193.39371" /><linearGradient
   xlink:href="#linearGradient364"
   id="linearGradient991"
   gradientUnits="userSpaceOnUse"
   gradientTransform="translate(-228.92582,-615.71322)"
   x1="418.60721"
   y1="193.39371"
   x2="426.03183"
   y2="193.39371" /><linearGradient
   xlink:href="#linearGradient364"
   id="linearGradient992"
   gradientUnits="userSpaceOnUse"
   gradientTransform="translate(-228.92582,-615.71322)"
   x1="418.60721"
   y1="193.39371"
   x2="426.03183"
   y2="193.39371" /><linearGradient
   xlink:href="#linearGradient364"
   id="linearGradient993"
   gradientUnits="userSpaceOnUse"
   gradientTransform="translate(-228.92582,-615.71322)"
   x1="418.60721"
   y1="193.39371"
   x2="426.03183"
   y2="193.39371" /><linearGradient
   xlink:href="#linearGradient364"
   id="linearGradient994"
   gradientUnits="userSpaceOnUse"
   gradientTransform="translate(-228.92582,-615.71322)"
   x1="418.60721"
   y1="193.39371"
   x2="426.03183"
   y2="193.39371" /><linearGradient
   xlink:href="#linearGradient364"
   id="linearGradient995"
   gradientUnits="userSpaceOnUse"
   gradientTransform="translate(-228.92582,-615.71322)"
   x1="418.60721"
   y1="193.39371"
   x2="426.03183"
   y2="193.39371" /><linearGradient
   xlink:href="#linearGradient364"
   id="linearGradient996"
   gradientUnits="userSpaceOnUse"
   gradientTransform="translate(-228.92582,-615.71322)"
   x1="418.60721"
   y1="193.39371"
   x2="426.03183"
   y2="193.39371" /><linearGradient
   xlink:href="#linearGradient364"
   id="linearGradient997"
   gradientUnits="userSpaceOnUse"
   gradientTransform="translate(-228.92582,-615.71322)"
   x1="418.60721"
   y1="193.39371"
   x2="426.03183"
   y2="193.39371" /><linearGradient
   xlink:href="#linearGradient364"
   id="linearGradient998"
   gradientUnits="userSpaceOnUse"
   gradientTransform="translate(-228.92582,-615.71322)"
   x1="418.60721"
   y1="193.39371"
   x2="426.03183"
   y2="193.39371" /><linearGradient
   xlink:href="#linearGradient364"
   id="linearGradient999"
   gradientUnits="userSpaceOnUse"
   gradientTransform="translate(-228.92582,-615.71322)"
   x1="418.60721"
   y1="193.39371"
   x2="426.03183"
   y2="193.39371" /><linearGradient
   xlink:href="#linearGradient364"
   id="linearGradient1000"
   gradientUnits="userSpaceOnUse"
   gradientTransform="translate(-228.92582,-615.71322)"
   x1="418.60721"
   y1="193.39371"
   x2="426.03183"
   y2="193.39371" /><linearGradient
   xlink:href="#linearGradient364"
   id="linearGradient1001"
   gradientUnits="userSpaceOnUse"
   gradientTransform="translate(-228.92582,-615.71322)"
   x1="418.60721"
   y1="193.39371"
   x2="426.03183"
   y2="193.39371" /><linearGradient
   xlink:href="#linearGradient364"
   id="linearGradient1002"
   gradientUnits="userSpaceOnUse"
   gradientTransform="translate(-228.92582,-615.71322)"
   x1="418.60721"
   y1="193.39371"
   x2="426.03183"
   y2="193.39371" /><linearGradient
   xlink:href="#linearGradient364"
   id="linearGradient1003"
   gradientUnits="userSpaceOnUse"
   gradientTransform="translate(-228.92582,-615.71322)"
   x1="418.60721"
   y1="193.39371"
   x2="426.03183"
   y2="193.39371" /><linearGradient
   xlink:href="#linearGradient364"
   id="linearGradient1004"
   gradientUnits="userSpaceOnUse"
   gradientTransform="translate(-228.92582,-615.71322)"
   x1="418.60721"
   y1="193.39371"
   x2="426.03183"
   y2="193.39371" /><linearGradient
   xlink:href="#linearGradient364"
   id="linearGradient1005"
   gradientUnits="userSpaceOnUse"
   gradientTransform="translate(-228.92582,-615.71322)"
   x1="418.60721"
   y1="193.39371"
   x2="426.03183"
   y2="193.39371" /><linearGradient
   xlink:href="#linearGradient364"
   id="linearGradient1006"
   gradientUnits="userSpaceOnUse"
   gradientTransform="translate(-228.92582,-615.71322)"
   x1="418.60721"
   y1="193.39371"
   x2="426.03183"
   y2="193.39371" /><linearGradient
   xlink:href="#linearGradient364"
   id="linearGradient1007"
   gradientUnits="userSpaceOnUse"
   gradientTransform="translate(-228.92582,-615.71322)"
   x1="418.60721"
   y1="193.39371"
   x2="426.03183"
   y2="193.39371" /><linearGradient
   xlink:href="#linearGradient364"
   id="linearGradient1008"
   gradientUnits="userSpaceOnUse"
   gradientTransform="translate(-228.92582,-615.71322)"
   x1="418.60721"
   y1="193.39371"
   x2="426.03183"
   y2="193.39371" /><linearGradient
   xlink:href="#linearGradient364"
   id="linearGradient1009"
   gradientUnits="userSpaceOnUse"
   gradientTransform="translate(-228.92582,-615.71322)"
   x1="418.60721"
   y1="193.39371"
   x2="426.03183"
   y2="193.39371" /><linearGradient
   xlink:href="#linearGradient364"
   id="linearGradient1010"
   gradientUnits="userSpaceOnUse"
   gradientTransform="translate(-228.92582,-615.71322)"
   x1="418.60721"
   y1="193.39371"
   x2="426.03183"
   y2="193.39371" /><linearGradient
   xlink:href="#linearGradient364"
   id="linearGradient1011"
   gradientUnits="userSpaceOnUse"
   gradientTransform="translate(-228.92582,-615.71322)"
   x1="418.60721"
   y1="193.39371"
   x2="426.03183"
   y2="193.39371" /><linearGradient
   xlink:href="#linearGradient364"
   id="linearGradient1012"
   gradientUnits="userSpaceOnUse"
   gradientTransform="translate(-228.92582,-615.71322)"
   x1="418.60721"
   y1="193.39371"
   x2="426.03183"
   y2="193.39371" /><linearGradient
   xlink:href="#linearGradient364"
   id="linearGradient1013"
   gradientUnits="userSpaceOnUse"
   gradientTransform="translate(-228.92582,-615.71322)"
   x1="418.60721"
   y1="193.39371"
   x2="426.03183"
   y2="193.39371" /><linearGradient
   xlink:href="#linearGradient364"
   id="linearGradient1014"
   gradientUnits="userSpaceOnUse"
   gradientTransform="translate(-228.92582,-615.71322)"
   x1="418.60721"
   y1="193.39371"
   x2="426.03183"
   y2="193.39371" /><linearGradient
   xlink:href="#linearGradient364"
   id="linearGradient1015"
   gradientUnits="userSpaceOnUse"
   gradientTransform="translate(-228.92582,-615.71322)"
   x1="418.60721"
   y1="193.39371"
   x2="426.03183"
   y2="193.39371" /><linearGradient
   xlink:href="#linearGradient364"
   id="linearGradient1016"
   gradientUnits="userSpaceOnUse"
   gradientTransform="translate(-228.92582,-615.71322)"
   x1="418.60721"
   y1="193.39371"
   x2="426.03183"
   y2="193.39371" /><linearGradient
   xlink:href="#linearGradient364"
   id="linearGradient1017"
   gradientUnits="userSpaceOnUse"
   gradientTransform="translate(-228.92582,-615.71322)"
   x1="418.60721"
   y1="193.39371"
   x2="426.03183"
   y2="193.39371" /><linearGradient
   xlink:href="#linearGradient364"
   id="linearGradient1018"
   gradientUnits="userSpaceOnUse"
   gradientTransform="translate(-228.92582,-615.71322)"
   x1="418.60721"
   y1="193.39371"
   x2="426.03183"
   y2="193.39371" /><linearGradient
   xlink:href="#linearGradient364"
   id="linearGradient1019"
   gradientUnits="userSpaceOnUse"
   gradientTransform="translate(-228.92582,-615.71322)"
   x1="418.60721"
   y1="193.39371"
   x2="426.03183"
   y2="193.39371" /><linearGradient
   xlink:href="#linearGradient364"
   id="linearGradient1020"
   gradientUnits="userSpaceOnUse"
   gradientTransform="translate(-228.92582,-615.71322)"
   x1="418.60721"
   y1="193.39371"
   x2="426.03183"
   y2="193.39371" /><linearGradient
   xlink:href="#linearGradient364"
   id="linearGradient1021"
   gradientUnits="userSpaceOnUse"
   gradientTransform="translate(-228.92582,-615.71322)"
   x1="418.60721"
   y1="193.39371"
   x2="426.03183"
   y2="193.39371" /><linearGradient
   xlink:href="#linearGradient364"
   id="linearGradient1022"
   gradientUnits="userSpaceOnUse"
   gradientTransform="translate(-228.92582,-615.71322)"
   x1="418.60721"
   y1="193.39371"
   x2="426.03183"
   y2="193.39371" /><linearGradient
   xlink:href="#linearGradient1024"
   id="linearGradient1025"
   x1="430.81104"
   y1="330.125"
   x2="504.93896"
   y2="330.125"
   gradientUnits="userSpaceOnUse"
   gradientTransform="translate(126.39992,18.699999)" /><linearGradient
   xlink:href="#linearGradient1031"
   id="linearGradient1032"
   x1="486.18307"
   y1="333.75"
   x2="486.06693"
   y2="344.5"
   gradientUnits="userSpaceOnUse"
   gradientTransform="translate(126.39992,18.699999)" /><linearGradient
   xlink:href="#linearGradient26"
   id="linearGradient1034"
   gradientUnits="userSpaceOnUse"
   gradientTransform="matrix(0.21008781,0,0,0.21152157,455.34804,323.8376)"
   x1="430.57407"
   y1="66.663956"
   x2="483.88342"
   y2="120.90855" /><filter
   style="color-interpolation-filters:sRGB"
   id="filter1560"
   x="-0.22005926"
   y="-0.5751549"
   width="1.4401186"
   height="2.1503098"><feGaussianBlur
     stdDeviation="2.6361264"
     id="feGaussianBlur1560" /></filter><linearGradient
   xlink:href="#linearGradient1560"
   id="linearGradient1562"
   x1="471.74158"
   y1="333.50476"
   x2="476.16959"
   y2="344.90686"
   gradientUnits="userSpaceOnUse"
   gradientTransform="translate(126.39992,18.699999)" /></defs><g
     id="record-main"
     transform="translate(-0.900299,-3)"
     style="display:inline"><path
       id="platter"
       d="m 200.8003,17.9 c -102.120001,0 -185.000001,82.88 -185.000001,185 0,102.12 82.88,185 185.000001,185 102.12,0 185,-82.88 185,-185 0,-102.12 -82.88,-185 -185,-185 z m 0,179.81 c 2.8664,0 5.1875,2.321 5.1875,5.1875 0,2.8664 -2.321,5.1875 -5.1875,5.1875 -2.8664,0 -5.1875,-2.321 -5.1875,-5.1875 0,-2.8664 2.321,-5.1875 5.1875,-5.1875 z"
       style="display:inline;fill:#000000" /><path
       style="display:inline;fill:none;fill-opacity:0;fill-rule:evenodd;stroke:#8f8f8f;stroke-width:0.4;stroke-dasharray:none;stroke-opacity:0.508427"
       id="path14"
       d="m 216.796,273.34012 c -38.77499,9.24516 -78.78818,-15.56783 -88.01788,-54.28791 -9.33094,-39.14483 15.71942,-79.53879 54.80932,-88.8543 39.51466,-9.41673 80.2894,15.871 89.69072,55.33072 9.50252,39.88449 -16.02259,81.04001 -55.85213,90.52714 -40.25431,9.5883 -81.79062,-16.17417 -91.36355,-56.37354 -9.6741,-40.62414 16.32575,-82.54122 56.89494,-92.19997 40.99397,-9.75988 83.29183,16.47734 93.03638,57.41635 9.84567,41.3638 -16.62892,84.04244 -57.93775,93.8728 -41.73363,9.93146 -84.79304,-16.7805 -94.70922,-58.45916 -10.01724,-42.10345 16.93209,-85.54365 58.98057,-95.54563 42.47328,-10.10303 86.29426,17.08367 96.38205,59.50197 10.18882,42.84311 -17.23525,87.04487 -60.02338,97.21847 -43.21293,10.27461 -87.79548,-17.38684 -98.05489,-60.54479 -10.36039,-43.58276 17.53842,-88.54608 61.0662,-98.8913 43.95258,-10.44618 89.29669,17.69001 99.72771,61.5876 10.53198,44.32242 -17.84158,90.0473 -62.109,100.56414 -44.69224,10.61776 -90.79791,-17.99317 -101.40055,-62.63041 -10.70355,-45.06208 18.14475,-91.54852 63.15181,-102.23697 45.4319,-10.78934 92.29913,18.29633 103.07339,63.67322 10.87513,45.80173 -18.44792,93.04974 -64.19463,103.9098 -46.17155,10.96092 -93.80035,-18.5995 -104.74622,-64.71603 -11.0467,-46.54138 18.75109,-94.55096 65.23744,-105.58264 46.91121,-11.1325 95.30157,18.90267 106.41905,65.75885 11.21829,47.28103 -19.05424,96.05218 -66.28025,107.25547 -47.65086,11.30407 -96.80279,-19.20583 -108.09188,-66.80166 -11.38987,-48.02069 19.35741,-97.5534 67.32306,-108.9283 48.39052,-11.47566 98.30401,19.50899 109.76472,67.84447 11.56145,48.76034 -19.66058,99.05462 -68.36587,110.60113 -49.13018,11.64724 -99.80524,-19.81216 -111.43756,-68.88728 -11.733029,-49.5 19.96374,-100.55584 69.40869,-112.27397 49.86983,-11.81882 101.30645,20.11533 113.11039,69.93009 11.90461,50.23966 -20.26691,102.05707 -70.4515,113.94681 C 171.2267,307.05569 119.0285,274.6468 107.05296,224.09238 94.976761,173.11308 127.62303,120.5341 178.54727,108.47275 229.8964,96.31076 282.85617,129.1944 295.00332,180.48846 307.2511,232.20742 274.13008,285.54797 222.4662,297.78093 170.37741,310.1145 116.65608,276.75611 104.33731,224.7224 91.91795,172.26379 125.51371,118.16167 177.91725,105.7571 230.74569,93.251948 285.22859,127.08508 297.71897,179.85844 310.30991,233.05671 276.2394,287.9204 223.09622,300.49658 169.52813,313.17331 114.28365,278.86543 101.62167,225.35243 88.859138,171.4145 123.4044,115.78924 177.28722,103.04145 c 54.30775,-12.848315 110.3138,21.93432 123.14739,76.18697 12.93411,54.67757 -22.08589,111.06441 -76.70837,123.9838 C 168.67884,316.23213 111.91122,280.97475 98.906019,225.98245 85.800324,170.56522 121.29508,113.41682 176.6572,100.32581 c 55.78706,-13.191489 113.31625,22.54064 126.49306,78.27259 13.27728,56.15688 -22.69223,114.06685 -78.794,127.32947 C 167.82956,319.29094 109.5388,283.08406 96.190374,226.61247 82.741508,169.71593 119.18576,111.04439 176.02718,97.610163 233.29354,84.075505 292.34588,120.75713 305.8659,177.96838 319.48635,235.60456 282.56735,295.03768 224.98629,308.64352 166.98027,322.34976 107.16637,285.19338 93.474728,227.24249 79.682692,168.86665 117.07645,108.67196 175.39716,94.894518 234.14283,81.016689 294.71831,118.64782 308.58155,177.33835 322.54517,236.45385 284.67667,297.41011 225.61631,311.35916 166.13099,325.40858 104.79393,287.3027 90.759083,227.87251 76.623874,168.01737 114.96713,106.29953 174.76714,92.178872 c 60.22497,-14.221001 122.3236,24.359628 136.53005,84.529458 14.3068,60.5948 -24.5112,123.07422 -85.05086,137.36648 C 165.2817,328.46739 102.4215,289.41202 88.043437,228.50253 73.565056,167.16808 112.85781,103.92709 174.13712,89.463227 235.8414,74.899052 299.46317,114.42918 314.01284,176.07831 328.66281,238.15242 288.8953,302.15498 226.87635,316.79045 164.43242,331.52621 100.04907,291.52133 85.327792,229.13256 70.506236,166.3188 110.74849,101.55466 173.50709,86.747581 236.69068,71.840232 301.8356,112.31986 316.72849,175.44829 331.72163,239.0017 291.00462,304.52741 227.50637,319.5061 163.58314,334.58503 97.676635,293.63065 82.612146,229.76258 67.447416,165.46951 108.63917,99.182227 172.87707,84.031936 237.53996,68.781411 304.20804,110.21054 319.44413,174.81827 334.78045,239.85098 293.11394,306.89985 228.13639,322.22174 162.73385,337.64385 95.3042,295.73997 79.896501,230.3926 64.388594,164.62023 106.52986,96.809793 172.24705,81.31629 c 66.1422,-15.5937 134.33342,26.78494 149.91273,92.87196 15.67949,66.51202 -26.93652,135.08403 -93.39336,150.74914 C 161.88457,340.70268 92.931765,297.84929 77.180855,231.02262 61.329772,163.77095 104.42054,94.437357 171.61703,78.600645 239.23853,62.663768 308.95291,105.99191 324.87542,173.55822 340.89809,241.54955 297.33258,311.64472 229.39644,327.65303 161.03529,343.7615 90.559329,299.95861 74.46521,231.65264 58.27095,162.92167 102.31122,92.064921 170.98701,75.884999 240.08781,59.604945 311.32534,103.88259 327.59107,172.9282 343.95692,242.39883 299.4419,314.01715 230.02646,330.36868 160.186,346.82032 88.186892,302.06793 71.749564,232.28266 55.212126,162.07238 100.2019,89.692484 170.35699,73.169354 240.93709,56.546121 313.69778,101.77327 330.30671,172.29818 347.01574,243.24811 301.55122,316.38959 230.65648,333.08432 159.33672,349.87915 85.814455,304.17724 69.033918,232.91269 52.153302,161.2231 98.09258,87.320046 169.72696,70.453708 241.78638,53.487297 316.07022,99.663951 333.02236,171.66816 350.07456,244.0974 303.66053,318.76203 231.2865,335.79997 158.48744,352.93797 83.442017,306.28656 66.318273,233.54271 49.094477,160.37382 95.983261,84.947608 169.09694,67.738063 242.63566,50.428472 318.44266,97.554632 335.738,171.03814 353.13339,244.94668 305.76985,321.13447 231.91652,338.51562 157.63816,355.9968 81.069578,308.39588 63.602627,234.17273 46.035652,159.52454 93.873942,82.575169 168.46692,65.022417 243.48494,47.369647 320.8151,95.445313 338.45365,170.40812 356.19222,245.79596 307.87917,323.50691 232.54655,341.23126 156.78887,359.05562 78.697139,310.5052 60.886982,234.80275 42.976826,158.67525 91.764623,80.20273 167.8369,62.306771 244.33422,44.310821 323.18754,93.335994 341.1693,169.77809 359.25104,246.64524 309.98849,325.87935 233.17657,343.94691 155.93959,362.11445 76.324699,312.61452 58.171336,235.43277 39.918,157.82597 89.655304,77.83029 167.20688,59.591126 245.1835,41.251994 325.55998,91.226675 343.88494,169.14807 362.30987,247.49452 312.09781,328.25179 233.80659,346.66255 155.09031,365.17327 73.952259,314.72384 55.455691,236.06279 36.859173,156.97669 87.545984,75.45785 166.57686,56.87548 246.03279,38.193168 327.93242,89.117355 346.60059,168.51805 365.36869,248.34381 314.20713,330.62423 234.43661,349.3782 154.24103,368.2321 71.579819,316.83316 52.740045,236.69282 33.800346,156.12741 85.436665,73.085409 165.94683,54.159835 246.88207,35.13434 330.30486,87.008036 349.31623,167.88803 368.42752,249.19309 316.31645,332.99667 235.06663,352.09384 153.39175,371.29093 69.207378,318.94248 50.0244,237.32284 30.741519,155.27813 83.327345,70.712968 165.31681,51.444189 247.73135,32.075513 332.6773,84.898716 352.03188,167.25801 371.48635,250.04237 318.42577,335.36911 235.69665,354.80949 152.54247,374.34976 66.834936,321.0518 47.308754,237.95286 27.682691,154.42885 81.218025,68.340527 164.68679,48.728544 248.58063,29.016685 335.04974,82.789396 354.74752,166.62799 374.54518,250.89165 320.53509,337.74155 236.32668,357.52513 151.69318,377.40859 64.462494,323.16112 44.593109,238.58288 24.623862,153.57956 79.108706,65.968085 164.05677,46.012898 249.42991,25.957856 337.42218,80.680077 357.46317,165.99796 377.60401,251.74093 322.64441,340.11399 236.9567,360.24078 150.8439,380.46741 62.090052,325.27044 41.877463,239.2129 21.565034,152.73028 76.999386,63.595643 163.42675,43.297253 250.27919,22.899027 339.79462,78.570757 360.17881,165.36794 380.66284,252.59021 324.75373,342.48643 237.58672,362.95643 149.99462,383.52624 59.71761,327.37976 39.161818,239.84292 18.506204,151.881 74.890066,61.2232 162.79673,40.581607 251.12847,19.840198 342.16707,76.461437 362.89446,164.73792 383.72166,253.4395 326.86305,344.85888 238.21674,365.67207 149.14534,386.58507 57.345167,329.48908 36.446172,240.47295 15.447375,151.03172 72.780746,58.850757 162.1667,37.865962 251.97776,16.781369 344.53951,74.352117 365.61011,164.1079 386.78049,254.28878 328.97237,347.23132 238.84676,368.38772 148.29606,389.6439 54.972724,331.5984 33.730527,241.10297 12.388545,150.18244 70.671426,56.478314 161.53668,35.150316 252.82704,13.722539 346.91195,72.242797 368.32575,163.47788 389.83932,255.13806 331.08169,349.60376 239.47678,371.10336 147.44678,392.70273 52.60028,333.70772 31.014881,241.73299 9.3297191,149.33316 68.562106,54.105871 160.90666,32.434671 253.67632,10.663709 349.2844,70.133477 371.0414,162.84786 392.89815,255.98734 333.19101,351.97621 240.1068,373.81901 146.5975,395.76156 50.227837,335.81704 28.299235,242.36301 6.2708888,148.48388 66.452786,51.733427 160.27664,29.719025 254.5256,7.6048786 351.65684,68.024157 373.75704,162.21783 395.95698,256.83662 335.30033,354.34865 240.73683,376.53465 145.74822,398.82039 47.855393,337.92636 25.58359,242.99303 3.2120583,147.6346 64.343466,49.360983 159.64662,27.00338 255.37488,4.546048 354.02928,65.914837 376.47269,161.58781 398.51106,255.53422 340.14912,352.80862 247.00718,377.8315" /><ellipse
       style="fill:none;fill-opacity:0;stroke:#000000;stroke-width:3.1;stroke-dasharray:none;stroke-opacity:1"
       id="path15"
       cx="200.34927"
       cy="202.4481"
       rx="89.886452"
       ry="90.485695" /><ellipse
       style="fill:none;fill-opacity:0;stroke:#000000;stroke-width:2.839;stroke-dasharray:none;stroke-opacity:1"
       id="ellipse15"
       cx="199.8709"
       cy="201.96658"
       rx="117.10327"
       ry="117.88377" /><ellipse
       style="fill:none;fill-opacity:0;stroke:#000000;stroke-width:2.498;stroke-dasharray:none;stroke-opacity:1"
       id="ellipse16"
       cx="198.90181"
       cy="202.942"
       rx="139.12492"
       ry="140.05219" /><ellipse
       style="fill:none;fill-opacity:0;stroke:#000000;stroke-width:2.86475;stroke-dasharray:none;stroke-opacity:1"
       id="ellipse17"
       cx="197.93806"
       cy="203.91211"
       rx="159.55055"
       ry="160.61395" /><path
       d="m 258.98828,182.27261 c -11.46957,-32.14442 -46.87573,-48.92903 -79.02039,-37.4596 -32.14453,11.46949 -48.92904,46.87578 -37.45953,79.0204 11.46956,32.14442 46.87572,48.92904 79.02038,37.45961 32.14432,-11.46949 48.92901,-46.87577 37.45954,-79.02041 z m -52.6126,18.7726 c 1.1093,3.10942 -0.51016,6.52562 -3.61965,7.63529 -3.10934,1.10947 -6.52556,-0.51002 -7.63532,-3.61959 -1.10947,-3.1094 0.51004,-6.52562 3.61964,-7.63528 3.10936,-1.10935 6.52557,0.51002 7.63533,3.61958 z"
       style="display:inline;fill:url(#radialGradient3349);stroke-width:1.15165"
       id="path8" /><circle
       style="display:inline;fill:#000000;fill-opacity:0;stroke:#000000"
       id="path13"
       cx="200.4494"
       cy="203.14824"
       r="59.325062" /><text
       x="201.12842"
       y="185.95102"
       style="fill:#000000"
       xml:space="preserve"
       id="text10"><title
         id="title10">404</title><tspan
         x="201.12842"
         y="185.95102"
         style="font-style:normal;font-variant:normal;font-weight:normal;font-stretch:normal;font-size:26.667px;font-family:'Bradley Hand';-inkscape-font-specification:'Bradley Hand';font-variant-ligatures:normal;font-variant-caps:normal;font-variant-numeric:normal;font-variant-east-asian:normal;text-align:center;text-anchor:middle"
         id="tspan10">404</tspan></text><text
       id="title"
       x="199.10643"
       y="225.78154"
       style="font-size:26.667px;font-family:'Lucida Grande';font-variant-ligatures:normal;font-variant-caps:normal;font-variant-numeric:normal;font-variant-east-asian:normal;text-align:center;text-anchor:middle;fill:none;stroke:#cccccc"
       xml:space="preserve"><title
         id="title11">pagenotfound</title><tspan
         x="199.10643"
         y="225.78154"
         style="font-style:normal;font-variant:normal;font-weight:bold;font-stretch:normal;font-size:8px;font-family:'Bradley Hand';-inkscape-font-specification:'Bradley Hand Bold';font-variant-ligatures:normal;font-variant-caps:normal;font-variant-numeric:normal;font-variant-east-asian:normal;fill:#000000;stroke:none"
         id="tspan11">&quot;PAGE NOT FOUND&quot;</tspan></text></g><g
     id="record-highlight"
     transform="translate(-0.900299,-3)"><use
       id="highlight_main_R"
       transform="rotate(180,200.70004,202.8)"
       width="100%"
       height="100%"
       xlink:href="#highlight_main_L"><title
         id="title12">highlight_main_R</title></use><path
       id="highlight_main_L"
       d="m 191.04004,206.19 c 0,-51.651 -42.835,-19.865 8.8168,-19.865 l 0.84746,-164.96 c -100.15,0 -181.440001,81.289 -181.440001,181.44 z"
       style="fill:url(#radialGradient3328)"><title
         id="title13">highlight_main_L</title></path></g></svg>
