<svg width="24" height="24" viewBox="0 0 24 24" fill="none" xmlns="http://www.w3.org/2000/svg">
<path d="M8 8L7.29289 7.29289C6.90237 7.68342 6.90237 8.31658 7.29289 8.70711L8 8ZM10.7071 6.70711C11.0976 6.31658 11.0976 5.68342 10.7071 5.29289C10.3166 4.90237 9.68342 4.90237 9.29289 5.29289L10.7071 6.70711ZM9.29289 10.7071C9.68342 11.0976 10.3166 11.0976 10.7071 10.7071C11.0976 10.3166 11.0976 9.68342 10.7071 9.29289L9.29289 10.7071ZM15 11C15 11.5523 15.4477 12 16 12C16.5523 12 17 11.5523 17 11H15ZM16 16L16.7071 16.7071C17.0976 16.3166 17.0976 15.6834 16.7071 15.2929L16 16ZM13.2929 17.2929C12.9024 17.6834 12.9024 18.3166 13.2929 18.7071C13.6834 19.0976 14.3166 19.0976 14.7071 18.7071L13.2929 17.2929ZM14.7071 13.2929C14.3166 12.9024 13.6834 12.9024 13.2929 13.2929C12.9024 13.6834 12.9024 14.3166 13.2929 14.7071L14.7071 13.2929ZM9 13C9 12.4477 8.55228 12 8 12C7.44772 12 7 12.4477 7 13H9ZM8.70711 8.70711L10.7071 6.70711L9.29289 5.29289L7.29289 7.29289L8.70711 8.70711ZM7.29289 8.70711L9.29289 10.7071L10.7071 9.29289L8.70711 7.29289L7.29289 8.70711ZM8 9H14V7H8V9ZM15 10V11H17V10H15ZM14 9C14.5523 9 15 9.44772 15 10H17C17 8.34315 15.6569 7 14 7V9ZM15.2929 15.2929L13.2929 17.2929L14.7071 18.7071L16.7071 16.7071L15.2929 15.2929ZM16.7071 15.2929L14.7071 13.2929L13.2929 14.7071L15.2929 16.7071L16.7071 15.2929ZM16 15H10V17H16V15ZM9 14V13H7V14H9ZM10 15C9.44772 15 9 14.5523 9 14H7C7 15.6569 8.34315 17 10 17V15Z" fill="white"/>
<circle cx="10" cy="10" r="10" transform="matrix(-1 0 0 1 22 2)" stroke="white" stroke-width="2" stroke-linecap="round" stroke-linejoin="round"/>
</svg>
