<?xml version="1.0" encoding="UTF-8" standalone="no"?>
<!-- Creator: CorelDRAW X5 -->

<svg
   xml:space="preserve"
   width="24"
   height="24"
   style="clip-rule:evenodd;fill-rule:evenodd;image-rendering:optimizeQuality;shape-rendering:geometricPrecision;text-rendering:geometricPrecision"
   viewBox="0 0 24 24"
   version="1.1"
   id="svg2"
   sodipodi:docname="reset.svg"
   inkscape:version="1.3.2 (091e20e, 2023-11-25)"
   xmlns:inkscape="http://www.inkscape.org/namespaces/inkscape"
   xmlns:sodipodi="http://sodipodi.sourceforge.net/DTD/sodipodi-0.dtd"
   xmlns="http://www.w3.org/2000/svg"
   xmlns:svg="http://www.w3.org/2000/svg"><sodipodi:namedview
   id="namedview2"
   pagecolor="#505050"
   bordercolor="#eeeeee"
   borderopacity="1"
   inkscape:showpageshadow="0"
   inkscape:pageopacity="0"
   inkscape:pagecheckerboard="0"
   inkscape:deskcolor="#505050"
   inkscape:zoom="7.9791988"
   inkscape:cx="12.971227"
   inkscape:cy="12.908564"
   inkscape:window-width="1312"
   inkscape:window-height="595"
   inkscape:window-x="0"
   inkscape:window-y="118"
   inkscape:window-maximized="0"
   inkscape:current-layer="Layer_x0020_1" />
 <defs
   id="defs1">
  <style
   type="text/css"
   id="style1">
   <![CDATA[
    .fil3 {fill:none}
    .fil1 {fill:#01579B}
    .fil2 {fill:#0091EA;fill-rule:nonzero}
    .fil0 {fill:#388E3C;fill-rule:nonzero}
   ]]>
  </style>
 </defs>
 <g
   id="Layer_x0020_1"
   inkscape:label="Layer 1"
   inkscape:groupmode="layer">
  <metadata
   id="CorelCorpID_0Corel-Layer" />
  
  <path
   class="fil1"
   d="M 2.6709841,7.6827973 C 3.4695302,6.0714454 4.681609,4.6739896 6.1788833,3.6472873 7.9613525,2.4209486 10.071796,1.765 12.239278,1.765 c 2.837691,0 5.547046,1.1265204 7.557669,3.1371452 2.010626,2.0106255 3.137146,4.7199786 3.137146,7.5576688 0,2.837692 -1.12652,5.547045 -3.137146,7.55767 -2.010623,2.010625 -4.719978,3.137145 -7.557669,3.137145 -2.6808338,0 -5.2475889,-0.998182 -7.2296944,-2.809171 C 3.027478,18.53447 1.8153989,16.067532 1.5872429,13.400958 l -0.042779,-0.427792 1.6969105,-0.142598 0.042779,0.427793 c 0.1996364,2.238781 1.2120789,4.320705 2.88047,5.846498 1.6541314,1.525794 3.8216134,2.35286 6.0603956,2.35286 2.395639,0 4.662939,-0.941145 6.345589,-2.623796 1.682651,-1.682649 2.623795,-3.96421 2.623795,-6.345589 0,-2.395638 -0.941144,-4.6629391 -2.623795,-6.34559 -1.68265,-1.6826508 -3.964211,-2.6237944 -6.345589,-2.6237944 -1.825249,0 -3.5934581,0.5561302 -5.090732,1.5828326 C 5.9649869,5.914588 5.0095836,6.9698097 4.339375,8.2104084 L 2.6709841,7.7255767 Z"
   id="path2"
   style="fill:#cccccc;stroke-width:0.0142597" />
  <polygon
   class="fil2"
   points="341,843 331,815 236,532 651,739 369,834 "
   id="polygon2"
   style="fill:#cccccc"
   transform="matrix(0.01421958,0,0,0.01421958,-2.6106872,-1.3198928)" />
  
 </g>
</svg>
