<?xml version="1.0" encoding="UTF-8" standalone="no"?>
<!-- Creator: CorelDRAW X5 -->

<svg
   xml:space="preserve"
   width="24"
   height="24"
   style="clip-rule:evenodd;fill-rule:evenodd;image-rendering:optimizeQuality;shape-rendering:geometricPrecision;text-rendering:geometricPrecision"
   viewBox="0 0 24 24"
   version="1.1"
   id="svg2"
   xmlns="http://www.w3.org/2000/svg"
   xmlns:svg="http://www.w3.org/2000/svg">
 <defs
   id="defs1">
  <style
   type="text/css"
   id="style1">
   <![CDATA[
    .fil3 {fill:none}
    .fil1 {fill:#01579B}
    .fil2 {fill:#0091EA;fill-rule:nonzero}
    .fil0 {fill:#388E3C;fill-rule:nonzero}
   ]]>
  </style>
 </defs>
 <g
   id="Layer_x0020_1">
  <metadata
   id="CorelCorpID_0Corel-Layer" />
  
  <path
   class="fil1"
   d="M 5.5889338,10.003466 C 6.1254653,8.9208218 6.9398434,7.9818915 7.9458402,7.2920652 9.1434553,6.4681061 10.561432,6.0273837 12.017731,6.0273837 c 1.906603,0 3.72698,0.7568927 5.077888,2.1078023 1.35091,1.35091 2.107803,3.171285 2.107803,5.077888 0,1.906604 -0.756893,3.726979 -2.107803,5.077889 -1.350908,1.350909 -3.171285,2.107802 -5.077888,2.107802 -1.801213,0 -3.5257784,-0.670664 -4.8575262,-1.887441 C 5.8284569,17.294547 5.0140786,15.637047 4.8607839,13.845415 l -0.028743,-0.287427 1.1401294,-0.09581 0.028743,0.287428 c 0.1341328,1.504205 0.8143782,2.903019 1.9353459,3.928177 1.1113868,1.025159 2.5676868,1.580853 4.0718918,1.580853 1.609595,0 3.132961,-0.632342 4.263509,-1.762891 1.130548,-1.130547 1.762889,-2.663495 1.762889,-4.263509 0,-1.609594 -0.632341,-3.132961 -1.762889,-4.2635098 C 15.141112,7.8381777 13.608164,7.205837 12.008151,7.205837 c -1.226359,0 -2.4143924,0.3736558 -3.4203889,1.0634822 C 7.8021263,8.8154315 7.1602048,9.5244197 6.7099014,10.35796 L 5.5889338,10.032209 Z"
   id="path2"
   style="fill:#b3b3b3;stroke-width:0.00958089" />
  <path
   id="polygon2"
   style="fill:#b3b3b3;fill-rule:nonzero;stroke-width:0.0142196"
   class="fil2"
   d="M 4.5084798,8.1150387 8.5552521,10.88158 c -1.8208085,0.878039 -1.9508208,0.943789 -4.0514239,1.87168 0.00465,-1.713998 0.00465,-3.0293496 0.00465,-4.6382213 z" />
  
 </g>
</svg>
