<?xml version="1.0" encoding="UTF-8" standalone="no"?>
<!-- Creator: CorelDRAW X5 -->

<svg
   xml:space="preserve"
   width="24"
   height="24"
   style="clip-rule:evenodd;fill-rule:evenodd;image-rendering:optimizeQuality;shape-rendering:geometricPrecision;text-rendering:geometricPrecision"
   viewBox="0 0 24 24"
   version="1.1"
   id="svg2"
   xmlns="http://www.w3.org/2000/svg"
   xmlns:svg="http://www.w3.org/2000/svg">
 <defs
   id="defs1">
  <style
   type="text/css"
   id="style1">
   <![CDATA[
    .fil3 {fill:none}
    .fil1 {fill:#01579B}
    .fil2 {fill:#0091EA;fill-rule:nonzero}
    .fil0 {fill:#388E3C;fill-rule:nonzero}
   ]]>
  </style>
 </defs>
 <g
   id="Layer_x0020_1">
  <metadata
   id="CorelCorpID_0Corel-Layer" />
  
  <path
   class="fil1"
   d="M 5.8104807,9.2502061 C 6.3470122,8.1675623 7.1613903,7.228632 8.1673871,6.5388057 9.3650022,5.7148466 10.782979,5.2741242 12.239278,5.2741242 c 1.906603,0 3.72698,0.7568927 5.077888,2.1078023 1.35091,1.35091 2.107803,3.1712845 2.107803,5.0778875 0,1.906604 -0.756893,3.726979 -2.107803,5.077889 -1.350908,1.350909 -3.171285,2.107802 -5.077888,2.107802 -1.801213,0 -3.5257785,-0.670664 -4.8575263,-1.887441 C 6.0500038,16.541287 5.2356255,14.883787 5.0823308,13.092155 l -0.028743,-0.287427 1.1401294,-0.09581 0.028743,0.287428 c 0.1341328,1.504205 0.8143782,2.903019 1.9353459,3.928177 1.1113868,1.025159 2.5676869,1.580853 4.0718919,1.580853 1.609595,0 3.132961,-0.632342 4.263509,-1.762891 1.130548,-1.130547 1.762889,-2.663495 1.762889,-4.263509 0,-1.609594 -0.632341,-3.1329606 -1.762889,-4.2635093 -1.130548,-1.1305485 -2.663496,-1.7628892 -4.263509,-1.7628892 -1.226359,0 -2.4143925,0.3736558 -3.420389,1.0634822 C 8.0236732,8.062172 7.3817517,8.7711602 6.9314483,9.6047004 L 5.8104807,9.278949 Z"
   id="path2"
   style="fill:#f2f2f2;stroke-width:0.00958089" />
  <path
   id="polygon2"
   style="fill:#f2f2f2;fill-rule:nonzero"
   class="fil2"
   transform="matrix(0.01421958,0,0,0.01421958,0.39713359,-0.12929707)"
   d="m 304.71316,526.81417 284.59155,194.55861 c -128.04939,61.74855 -137.19258,66.37245 -284.91868,131.62689 0.32713,-120.53782 0.32713,-213.04069 0.32713,-326.1855 z" />
  
 </g>
</svg>
